<svg width="834.5999999999999px" height="484.05315614617945px" viewBox="351 427.0598006644518 834.5999999999999 484.05315614617945" fill="none" xmlns="http://www.w3.org/2000/svg"><g id="Medium Vehicle/UFO"><g id="ufo"><g id="cars"><path id="Path" d="M823.361 716.68C821.912 639.143 816.29 561.741 806.521 484.81V484.81C780.031 485.94 753.411 486.16 727.041 485.21C701.901 556.66 691.751 639.84 680.711 715.76V715.76C728.203 718.832 775.833 719.139 823.361 716.68V716.68Z" fill="#323257"/><path id="Path_2" d="M828.431 690.44C826.853 683.573 824.927 676.791 822.661 670.12C820.304 662.949 817.155 656.063 813.271 649.59L813.081 649.25C808.147 640.501 800.67 633.459 791.641 629.06C784.011 625.48 775.761 624.58 769.421 624.19C760.756 623.59 752.055 623.764 743.421 624.71C735.21 625.649 727.409 628.802 720.851 633.83C718.591 635.5 716.431 637.35 714.331 639.14C709.721 643.08 705.331 646.81 700.111 648.8C691.901 651.92 683.181 651.8 673.941 651.64H670.581C668.061 651.64 662.991 651.5 662.991 651.5C661.949 651.473 661.003 652.101 660.621 653.07C660.232 654.032 660.479 655.135 661.241 655.84C663.701 658.12 665.121 664.27 664.071 668.09L662.681 671.94L663.681 672.94C664.332 673.591 664.571 674.549 664.301 675.43L662.151 682.43C661.394 686.495 658.719 689.944 654.971 691.69L671.221 695.56L673.351 719.78C673.469 721.068 674.547 722.055 675.841 722.06H828.241C829.581 722.056 830.682 720.999 830.741 719.66C831.114 709.863 830.339 700.056 828.431 690.44V690.44Z" fill="#51D9FF"/><path id="9:12952" d="M662.66 671.9L664.05 668.05C665.1 664.23 663.68 658.05 661.22 655.8C660.984 655.58 660.794 655.315 660.66 655.02C653.53 654.17 646.21 653.46 639 655.02C632.863 656.305 627.051 658.826 621.92 662.43C616.38 666.35 613.06 670.49 610.81 676.24C608.56 681.99 608.64 687.54 611.04 691.89C614.43 698.06 619.52 701.48 624.92 701.48C626.341 701.478 627.752 701.248 629.1 700.8C633.24 699.45 638.58 695.58 641.35 692.63C642.252 691.678 643.1 690.677 643.89 689.63C646.106 691.323 648.802 692.269 651.59 692.33C652.405 692.338 653.217 692.227 654 692C657.91 690.82 661.42 686.63 662.08 682.4L664.23 675.4C664.5 674.519 664.262 673.562 663.61 672.91L662.66 671.9Z" fill="#FBD2AE"/><path id="Path_3" d="M647.19 691.2C646.239 691.208 645.368 690.674 644.943 689.824C644.518 688.974 644.613 687.956 645.19 687.2C647.5 684.01 648.48 681.04 648.12 678.35C647.932 677.258 647.651 676.184 647.28 675.14C646.942 674.157 646.658 673.155 646.43 672.14C646.19 671.243 646.468 670.287 647.15 669.658C647.833 669.028 648.808 668.829 649.683 669.14C650.558 669.451 651.188 670.221 651.32 671.14C651.517 671.986 651.757 672.82 652.04 673.64C652.492 674.968 652.827 676.334 653.04 677.72C653.57 681.72 652.28 685.91 649.2 690.17C648.732 690.814 647.986 691.197 647.19 691.2Z" fill="#1B1812"/><path id="Path_4" d="M672.439 678.05C672.125 678.053 671.812 677.995 671.519 677.88C670.24 677.37 669.611 675.924 670.109 674.64C672.109 669.64 672.209 660.39 669.469 655.46C669.035 654.68 669.051 653.727 669.51 652.96C669.969 652.194 670.802 651.731 671.695 651.745C672.588 651.76 673.405 652.25 673.839 653.03C677.509 659.62 677.179 670.33 674.769 676.46C674.394 677.42 673.469 678.051 672.439 678.05V678.05Z" fill="#05A8FF"/><path id="Path_5" d="M700.68 691.38C700.361 691.378 700.046 691.317 699.75 691.2C699.134 690.951 698.642 690.468 698.383 689.856C698.124 689.245 698.12 688.555 698.37 687.94C702.608 677.467 708.334 667.66 715.37 658.82C716.229 657.738 717.802 657.556 718.885 658.415C719.967 659.274 720.149 660.848 719.29 661.93C712.547 670.395 707.061 679.789 703 689.82C702.617 690.764 701.699 691.381 700.68 691.38Z" fill="#05A8FF"/><path id="9:12956" d="M802.001 577.24V577.24C800.204 575.908 798.07 575.104 795.841 574.92C794.901 574.8 793.951 574.73 792.991 574.69L793.081 574.25C793.531 571.96 794.461 567.19 791.301 564.12C789.481 562.36 787.071 561.95 784.941 561.7C773.801 560.355 762.54 560.355 751.401 561.7C748.281 562.1 744.741 562.87 742.211 565.58C739.451 568.58 738.451 572.58 737.571 576.15C737.441 576.69 737.311 577.22 737.171 577.73C735.479 584.128 734.144 590.615 733.171 597.16C732.611 601.01 732.441 605.35 735.441 608.37C737.901 610.84 741.291 611.18 744.541 611.31L773.151 612.48C773.801 612.48 774.501 612.48 775.241 612.48C777.773 612.611 780.288 611.992 782.471 610.7C786.391 608.11 787.371 603.11 787.951 600.12L788.111 599.34C790.482 599.579 792.877 599.271 795.111 598.44C799.504 596.763 802.928 593.226 804.461 588.78C805.801 585.1 805.511 580.1 802.001 577.24Z" fill="#FBD2AE"/><path id="Path_6" d="M756.61 601.61C754.387 601.614 752.198 601.064 750.24 600.01C749.066 599.332 748.646 597.841 749.295 596.65C749.943 595.459 751.423 595.002 752.63 595.62C754.771 596.786 757.317 596.951 759.59 596.071C761.863 595.19 763.634 593.354 764.43 591.05C764.728 590.182 765.478 589.548 766.383 589.4C767.288 589.252 768.202 589.613 768.76 590.34L769.38 591.13C769.788 591.654 769.97 592.318 769.888 592.976C769.805 593.635 769.465 594.233 768.94 594.64C768.67 594.849 768.361 595.002 768.03 595.09C766.505 597.656 764.169 599.64 761.39 600.73C759.865 601.316 758.244 601.614 756.61 601.61V601.61Z" fill="#1B1812"/><path id="Shape" fill-rule="evenodd" clip-rule="evenodd" d="M676.92 679C679.813 683.636 681.959 688.698 683.28 694C684.461 699.314 684.896 704.767 684.57 710.2V711.66C684.632 713.308 684.491 714.957 684.15 716.57C683.435 719.425 682.458 722.206 681.23 724.88C679.079 729.909 675.979 734.475 672.1 738.33C666.72 743.54 658.55 745.33 651.55 745.33C649.79 745.332 648.033 745.215 646.29 744.98C634 743.27 624.13 733.37 619.13 717.82C614.11 702.1 615.75 685.75 623.4 675.1C632.99 661.66 651.31 657.99 664.99 666.66C665.54 666.94 666.03 667.29 666.54 667.66C670.688 670.747 674.211 674.595 676.92 679ZM646.14 727.9C653.71 731.21 661.34 729.42 664.71 723.42V723.46C668.47 716.84 670.32 706.29 668.92 699.4C667.74 693.8 666.08 689.52 663.74 686.33C660.389 681.64 655.022 678.805 649.26 678.68C647.515 678.672 645.782 678.97 644.14 679.56C636.14 682.47 630.5 692.5 631.14 702.9C631.79 713.9 638.14 724.39 646.14 727.9Z" fill="#1B1812"/><path id="9:12961" d="M647.001 672.64C646.718 671.82 646.478 670.985 646.281 670.14C645.871 668.23 646.341 663.14 647.181 662.21C648.741 660.77 649.421 659.29 649.181 657.78C648.895 656.248 647.829 654.978 646.371 654.43C645.99 654.242 645.565 654.159 645.141 654.19C643.07 654.302 641.01 654.573 638.981 655C632.843 656.284 627.032 658.806 621.901 662.41C616.361 666.33 613.041 670.47 610.791 676.22C608.541 681.97 608.621 687.52 611.021 691.87C614.411 698.04 619.501 701.46 624.901 701.46C626.321 701.457 627.733 701.228 629.081 700.78C633.221 699.43 638.561 695.56 641.331 692.61C646.461 687.15 648.711 681.8 648.031 676.72C647.808 675.332 647.464 673.967 647.001 672.64Z" fill="#FBD2AE"/><path id="Path_7" d="M640.55 692.26C640.009 692.261 639.482 692.086 639.05 691.76C632.62 686.93 626.55 677.88 627.47 668.57C627.605 667.189 628.834 666.18 630.215 666.315C631.595 666.45 632.605 667.679 632.47 669.06C631.74 676.44 636.77 683.77 642.07 687.76C642.931 688.406 643.282 689.53 642.941 690.55C642.601 691.571 641.646 692.26 640.57 692.26H640.55Z" fill="#1B1812"/><path id="Path_8" d="M631.361 699.52C630.944 699.519 630.535 699.413 630.171 699.21C623.171 695.41 618.861 686.3 618.241 679.27C618.116 677.89 619.135 676.67 620.516 676.545C621.896 676.421 623.116 677.44 623.241 678.82C623.731 684.39 627.171 691.89 632.581 694.82C633.59 695.365 634.099 696.527 633.816 697.639C633.532 698.75 632.528 699.526 631.381 699.52H631.361Z" fill="#1B1812"/><path id="Path_9" d="M692.769 722.1C686.209 711.18 675.029 703.17 661.299 699.54C651.199 696.87 640.779 696.92 630.709 696.96C628.709 696.96 626.779 696.96 624.819 696.96C578.209 696.71 552.069 697.29 551.819 697.3C550.468 697.338 549.389 698.438 549.379 699.79L549.289 724.01C549.284 724.676 549.545 725.316 550.015 725.787C550.485 726.259 551.124 726.523 551.789 726.52V726.52L690.639 725.88C691.54 725.874 692.368 725.385 692.809 724.6C693.248 723.82 693.232 722.865 692.769 722.1Z" fill="#1B1812"/><path id="Path_10" d="M784.23 680.89C783.959 680.285 783.459 679.814 782.84 679.579C782.221 679.345 781.533 679.367 780.93 679.64C779.668 680.208 778.372 680.699 777.05 681.11C777.445 676.578 777.585 672.027 777.47 667.48C777.431 666.099 776.281 665.011 774.9 665.05C773.519 665.088 772.431 666.239 772.47 667.62C772.602 672.53 772.418 677.443 771.92 682.33C764.09 683.7 755.59 683.15 747.28 682.59C744.08 682.38 740.77 682.16 737.57 682.06C734.91 681.98 730.57 681.9 727.2 681.83H724.46H724.41C723.029 681.83 721.91 682.949 721.91 684.33C721.91 685.711 723.029 686.83 724.41 686.83H727.16C730.5 686.89 734.66 686.97 737.32 687.06C745.26 695.42 749.5 708.54 747.64 719.06C747.403 720.411 748.293 721.702 749.64 721.96C749.786 721.974 749.934 721.974 750.08 721.96C751.291 721.959 752.327 721.092 752.54 719.9C754.43 709.23 751.08 696.74 744.1 687.36L746.98 687.54C751.58 687.85 756.24 688.16 760.85 688.16C768.52 688.16 776.07 687.3 783.02 684.16C784.242 683.577 784.779 682.128 784.23 680.89V680.89Z" fill="#05A8FF"/><path id="9:12966" d="M736.94 719.07C738.8 708.5 735.03 697.84 726.33 689.07L723.93 686.66L721.01 686.53C712.01 686.12 702.74 685.69 693.86 688.68C676.68 694.44 666.22 705.29 664.41 719.22C664.302 719.942 664.522 720.676 665.01 721.22C665.485 721.76 666.17 722.07 666.89 722.07H739.41C738.67 722.072 737.968 721.746 737.491 721.181C737.015 720.616 736.813 719.868 736.94 719.14V719.07Z" fill="#FBD2AE"/><path id="Path_11" d="M677.759 722V722C677.095 721.992 676.46 721.72 675.997 721.243C675.533 720.766 675.279 720.125 675.289 719.46C675.508 710.173 680.432 701.633 688.359 696.79C689.554 696.111 691.073 696.523 691.76 697.713C692.447 698.903 692.045 700.425 690.859 701.12C684.433 705.063 680.451 712.002 680.289 719.54C680.267 720.917 679.136 722.017 677.759 722Z" fill="#1B1812"/><path id="Path_12" d="M689.691 722C689.567 722.01 689.444 722.01 689.321 722C688.665 721.906 688.073 721.554 687.677 721.023C687.281 720.492 687.113 719.825 687.211 719.17C688.471 710.63 694.471 702.67 703.211 697.88C703.995 697.451 704.948 697.473 705.711 697.938C706.475 698.403 706.932 699.24 706.911 700.133C706.891 701.027 706.395 701.841 705.611 702.27C698.181 706.27 693.141 712.9 692.111 719.89C691.922 721.087 690.902 721.976 689.691 722Z" fill="#1B1812"/><path id="Path_13" d="M789 830.28C788.64 829.629 788.01 829.171 787.28 829.03C779.925 827.832 772.482 827.26 765.03 827.32C757.49 827.243 749.966 828.041 742.61 829.7C741.909 829.878 741.322 830.352 741 831C740.681 831.652 740.659 832.41 740.94 833.08C745.047 842.856 754.68 849.159 765.283 849.007C775.886 848.855 785.334 842.28 789.16 832.39C789.422 831.697 789.363 830.925 789 830.28Z" fill="#ADACD1"/><path id="Path_14" d="M1033.77 754.36C1033.37 753.442 1032.47 752.848 1031.47 752.85H497.619C496.624 752.851 495.724 753.443 495.328 754.358C494.933 755.272 495.118 756.333 495.799 757.06C520.429 783.3 560.849 805.87 603.919 817.41C666.319 834.14 722.539 836.28 764.549 836.28C830.149 836.28 882.709 830.1 925.239 817.39C971.339 803.61 1009.71 782.19 1033.24 757.06C1033.94 756.348 1034.15 755.284 1033.77 754.36Z" fill="#5E5D8A"/><path id="Path_15" d="M1175.88 711.31C1175.44 711.215 1174.99 711.215 1174.55 711.31C1173.97 710.341 1173.44 709.339 1172.98 708.31C1172.76 707.523 1172.43 706.774 1171.98 706.09C1167.31 699.09 1149.23 689.24 1125.92 680.92C1104.86 673.4 1069.92 663.66 1023.2 659.92C1022.35 659.85 1021.53 660.214 1021.01 660.887C1020.5 661.56 1020.36 662.45 1020.64 663.25C1023.34 670.87 1025.88 678.34 1028.18 685.46C1028.04 685.598 1027.86 685.692 1027.67 685.73C946.24 705.12 855.09 715.54 764.07 715.87C670.55 716.17 579.69 705.81 501.28 685.77C501.1 685.732 500.934 685.645 500.8 685.52C503.13 678.28 505.65 670.79 508.29 663.25C508.57 662.451 508.428 661.565 507.911 660.895C507.394 660.225 506.573 659.861 505.73 659.93C422.42 666.59 361.68 696.42 356.2 710.51C355.384 712.61 354.284 714.588 352.93 716.39C351.724 716.631 350.855 717.69 350.855 718.92C350.855 720.15 351.724 721.209 352.93 721.45H353.06C354.392 723.246 355.457 725.227 356.22 727.33C361.62 741.65 424.67 757.04 481.87 766.67C530.7 774.89 632.36 788.67 764.55 788.67C859.21 788.67 958.22 779.86 1043.34 763.87C1113.59 750.67 1164.1 734.5 1172.03 722.66C1172.45 722.042 1172.79 721.369 1173.03 720.66C1173.51 719.629 1174.05 718.627 1174.64 717.66C1175.06 717.739 1175.48 717.739 1175.9 717.66C1177.39 717.329 1178.44 716.002 1178.42 714.48C1178.45 712.949 1177.38 711.617 1175.88 711.31Z" fill="#404069"/><path id="Path_16" d="M1030.56 684.73C1010.25 621.9 973.411 534.87 924.441 470.36C918.231 462.17 858.621 443.64 773.541 443.64C688.461 443.64 614.731 457.42 604.541 470.36C554.281 533.9 518.681 621.92 498.411 684.78C497.951 686.21 498.951 687.69 500.681 688.13C557.121 702.55 618.211 711.65 680.761 715.76C691.761 639.84 701.961 556.66 727.101 485.21C753.461 486.16 780.101 485.95 806.551 484.81C816.33 561.741 821.951 639.143 823.391 716.68C894.391 713.03 964.221 703.35 1028.27 688.1C1030 687.68 1031 686.18 1030.56 684.73Z" fill="white"/><path id="Path_17" d="M926.13 468.48C921.63 463.28 902.86 456.54 878.31 451.32C856.48 446.68 820.57 441.14 773.54 441.14C692.71 441.14 614.39 453.81 602.54 468.8L602.21 469.24C601.732 469.843 601.559 470.633 601.741 471.382C601.922 472.13 602.438 472.752 603.14 473.07L603.36 473.17C603.523 473.246 603.694 473.303 603.87 473.34C641.14 481.29 682.58 486.12 727.04 487.71C730.13 487.83 733.23 487.92 736.33 488H737.95C740.57 488.07 743.2 488.12 745.82 488.16H747.82C750.41 488.16 753.01 488.22 755.6 488.23H761.13H766.41H766.82C770.11 488.23 773.41 488.23 776.67 488.13H776.77C779.85 488.08 782.92 488.02 786 487.94L788.34 487.88C790.68 487.82 793.03 487.75 795.34 487.67L798.18 487.57C800.43 487.5 802.67 487.41 804.92 487.32C825.41 486.47 846.6 485.03 867.92 483.05C883.38 481.61 901.18 479.7 916.65 475.22C919.57 474.38 922.41 473.42 925.11 472.39C925.879 472.098 926.457 471.449 926.656 470.651C926.855 469.853 926.651 469.009 926.11 468.39L926.13 468.48Z" fill="#8A89B6"/><path id="Path_18" d="M764.469 759.29C655.469 759.29 552.949 755.2 475.839 747.76C438.279 744.14 408.759 739.91 388.119 735.21C364.609 729.85 354.119 724.37 354.119 717.46C354.119 716.079 355.238 714.96 356.619 714.96C358 714.96 359.119 716.079 359.119 717.46C359.119 718.89 362.409 731.8 476.319 742.78C553.269 750.2 655.609 754.29 764.469 754.29C873.329 754.29 975.669 750.2 1052.63 742.78C1166.54 731.78 1169.83 718.89 1169.83 717.46C1169.83 716.079 1170.95 714.96 1172.33 714.96C1173.71 714.96 1174.83 716.079 1174.83 717.46C1174.83 724.37 1164.34 729.85 1140.83 735.21C1120.18 739.91 1090.67 744.14 1053.11 747.76C975.999 755.2 873.489 759.29 764.469 759.29Z" fill="#323257"/><path id="Path_19" d="M591.251 574.38C579.971 583.713 569.061 593.453 558.521 603.6C548.101 613.693 538.101 624.213 528.521 635.16C520.354 644.547 512.577 654.257 505.191 664.29C502.731 671.35 500.441 678.21 498.321 684.78C497.861 686.21 498.861 687.69 500.591 688.13C517.861 692.55 535.591 696.45 553.591 699.88C595.911 658.919 643.141 623.355 694.201 594C696.201 592.87 698.201 591.73 700.121 590.55C706.731 555.22 714.901 520.49 726.121 488.09C679.941 511.42 635.601 538.54 595.411 571.09C594.004 572.157 592.617 573.253 591.251 574.38Z" fill="#DEDAF1"/><path id="Path_20" d="M631.001 475.91C625.321 479.96 619.851 484.35 614.501 488.8L611.171 491.6C602.204 499.2 593.481 507.043 585.001 515.13C576.521 523.217 568.278 531.55 560.271 540.13C559.391 541.07 558.531 542.03 557.651 542.98C546.381 563.98 536.281 585.55 527.381 606.59C575.682 561.134 627.544 519.618 682.471 482.44C665.061 480.87 647.861 478.72 631.001 475.91Z" fill="#DEDAF1"/><path id="Path_21" d="M878.001 543.46C898.421 524.3 918.231 502.8 930.001 477.79C928.181 475.29 926.351 472.79 924.491 470.36C924.431 470.28 924.351 470.2 924.281 470.12C921.631 471.12 918.861 472.06 916.031 472.88C905.501 475.88 894.031 477.76 882.371 479.12C871.371 492.4 858.571 504.18 845.111 514.97C836.531 521.86 827.651 528.37 818.661 534.72C816.661 536.113 814.681 537.5 812.721 538.88C814.874 560 816.707 581.153 818.221 602.34C824.662 594.534 831.515 587.077 838.751 580C851.471 567.41 865.001 555.68 878.001 543.46Z" fill="#DEDAF1"/><path id="Path_22" d="M946.52 502.11C939 523 925.5 541.74 910.21 558C890 579.51 866.43 597.59 845.33 618.23C838.093 625.243 831.271 632.673 824.9 640.48C823.52 642.194 822.167 643.924 820.84 645.67C822.073 669.317 822.907 692.984 823.34 716.67C849.66 715.32 875.8 713.13 901.56 710.15C905.74 689.82 917.46 671.83 930.37 655.55C943.37 639.08 957.98 623.68 968.88 605.71C975.591 594.617 980.819 582.692 984.43 570.24C973.105 546.825 960.448 524.077 946.52 502.11Z" fill="#DEDAF1"/><path id="Path_23" d="M862.33 910.28H656.51C655.129 910.28 654.01 909.161 654.01 907.78C654.01 906.4 655.129 905.28 656.51 905.28H862.33C863.71 905.28 864.83 906.4 864.83 907.78C864.83 909.161 863.71 910.28 862.33 910.28V910.28Z" fill="#1B1812"/><path id="Path_24" d="M761.491 477.52C707.971 477.52 659.741 473.93 615.591 466.69C614.676 466.585 613.892 465.986 613.552 465.13C613.212 464.273 613.37 463.3 613.963 462.595C614.557 461.891 615.49 461.57 616.391 461.76C685.561 473.09 764.921 475.45 859.001 469C873.001 468 889.131 466.75 903.001 463.78C906.231 463.08 909.331 462.29 912.201 461.42C913.063 461.129 914.015 461.331 914.687 461.945C915.358 462.56 915.642 463.49 915.429 464.375C915.216 465.26 914.538 465.959 913.661 466.2C910.661 467.11 907.421 467.94 904.041 468.67C889.851 471.67 873.531 473.01 859.341 473.99C824.831 476.33 792.281 477.52 761.491 477.52Z" fill="#5E5D8A"/><path id="Shape_2" fill-rule="evenodd" clip-rule="evenodd" d="M926.63 469.15C984.62 545.66 1020.29 644.86 1032.94 684C1033.34 685.28 1033.19 686.67 1032.51 687.83C1031.69 689.215 1030.34 690.2 1028.77 690.55C1017.16 693.31 1005.36 695.89 993.36 698.29C993.317 698.295 993.273 698.295 993.23 698.29H993.17C937.166 709.343 880.434 716.314 823.42 719.15H823.32C803.62 720.16 783.82 720.71 764.03 720.78H759.55C732.99 720.78 706.66 719.91 680.77 718.21H680.69H680.33H680.26C648.74 716.13 617.89 712.8 588.11 708.27H587.76L587.4 708.18C567.7 705.17 548.46 701.65 529.81 697.6C529.663 697.61 529.516 697.61 529.37 697.6C529.162 697.559 528.961 697.492 528.77 697.4C519.017 695.273 509.43 693.01 500.01 690.61C498.472 690.236 497.153 689.25 496.36 687.88C495.705 686.715 495.567 685.33 495.98 684.06C512.35 633.29 547.91 537.92 602.19 469.29C602.883 468.424 604.064 468.119 605.09 468.54C642.16 476.43 682.86 481.17 726.86 482.77C727.033 482.75 727.207 482.75 727.38 482.77C770.94 484.33 817.73 482.8 867.48 478.17C882.71 476.75 900.28 474.88 915.28 470.52C918.11 469.7 920.86 468.79 923.44 467.79C924.696 467.306 926.109 467.909 926.63 469.15ZM990.03 693.85C977.888 617.263 952.005 543.501 913.63 476.12C898.89 480 882.4 481.77 867.94 483.15H867.53C897.837 553.586 915.423 628.836 919.47 705.41C943.47 702.25 967.03 698.39 990.03 693.85ZM862.29 483.61C892.814 554.055 910.495 629.39 914.5 706.06C885.4 709.77 855.71 712.44 825.8 714.06C824.279 638.204 818.782 562.48 809.33 487.2C826.583 486.4 844.237 485.203 862.29 483.61ZM590.94 703.63C619.31 707.88 648.58 711.07 678.58 713.07C679.607 705.976 680.63 698.83 681.65 691.63C691.52 622.51 701.73 551.08 723.58 487.58C701.827 486.72 680.907 485.09 660.82 482.69C610.94 594.1 596.94 661.91 590.94 703.63ZM532.71 693.07C546.461 616.281 573.683 542.528 613.12 475.22C626.82 477.886 640.99 480.156 655.63 482.03C606 593.16 592 661 586 702.88C567.8 700.07 550 696.79 532.71 693.08V693.07ZM605.13 473.59C551.93 541.45 516.95 635.3 500.77 685.45V685.46C500.906 685.578 501.072 685.658 501.25 685.69C509.963 687.896 518.82 690 527.82 692C541.586 615.263 568.707 541.535 607.95 474.17L605.13 473.59ZM764 715.81C736.88 715.9 710 715.08 683.54 713.4C684.547 706.433 685.547 699.413 686.54 692.34C696.45 622.93 706.7 551.19 728.73 487.79C739.237 488.15 749.93 488.326 760.81 488.32C774.977 488.32 789.46 488.013 804.26 487.4C813.73 562.692 819.231 638.43 820.74 714.3C801.907 715.233 782.993 715.736 764 715.81ZM994.89 692.86C1005.96 690.613 1016.86 688.216 1027.6 685.67H1027.64C1027.82 685.625 1027.98 685.531 1028.11 685.4C1015.56 646.61 980.34 548.81 923.34 473.1C921.894 473.665 920.405 474.128 918.889 474.598L918.53 474.71C956.845 542.265 982.71 616.156 994.89 692.86Z" fill="#5E5D8A"/><path id="Path_25" d="M788.43 448.7C784.321 438.924 774.686 432.623 764.083 432.777C753.48 432.931 744.033 439.509 740.21 449.4C739.937 450.093 739.989 450.871 740.351 451.521C740.713 452.172 741.347 452.626 742.08 452.76C749.434 453.964 756.878 454.539 764.33 454.48C771.87 454.556 779.394 453.754 786.75 452.09C787.455 451.912 788.047 451.434 788.37 450.782C788.693 450.13 788.715 449.369 788.43 448.7V448.7Z" fill="#ADACD1"/><path id="Path_26" d="M790.411 749.83V749.83C788.333 747.49 785.125 746.503 782.091 747.27C778.768 748.174 776.164 750.755 775.231 754.07C774.642 756.65 775.243 759.358 776.866 761.449C778.489 763.539 780.965 764.791 783.611 764.86C786.031 764.826 788.34 763.841 790.041 762.12C791.735 760.548 792.729 758.362 792.798 756.052C792.868 753.742 792.008 751.5 790.411 749.83V749.83Z" fill="#B5F7FD"/><path id="Path_27" d="M939.759 747.3V747.3C937.682 744.96 934.473 743.973 931.439 744.74C928.118 745.642 925.515 748.225 924.589 751.54C923.994 754.12 924.589 756.831 926.212 758.923C927.835 761.015 930.313 762.266 932.959 762.33C935.378 762.292 937.686 761.308 939.389 759.59C941.079 758.016 942.069 755.831 942.138 753.522C942.208 751.214 941.351 748.974 939.759 747.3V747.3Z" fill="#51D9FF"/><path id="Path_28" d="M1049.24 738.66V738.66C1047.83 736.498 1045.31 735.333 1042.75 735.66C1039.77 736.279 1037.35 738.429 1036.38 741.31C1035.11 744.545 1035.73 748.214 1037.98 750.86C1039.27 752.46 1041.2 753.411 1043.26 753.46C1044.86 753.436 1046.41 752.856 1047.63 751.82C1051.57 748.552 1052.27 742.781 1049.24 738.66Z" fill="#05A8FF"/><path id="Path_29" d="M1106.66 732.28V732.28C1105.25 730.122 1102.73 728.958 1100.17 729.28C1097.2 729.902 1094.77 732.051 1093.8 734.93C1092.53 738.165 1093.15 741.834 1095.4 744.48C1096.52 745.937 1098.18 746.871 1100.01 747.06C1101.84 747.25 1103.66 746.678 1105.05 745.48C1109 742.203 1109.71 736.41 1106.66 732.28Z" fill="#05A8FF"/><path id="Path_30" d="M1149.13 724.92V724.92C1147.07 721.92 1144.6 721.7 1143.32 721.82C1140.86 722.06 1138.57 723.95 1137.32 726.76C1135.82 730.11 1136.24 734.012 1138.43 736.96C1139.59 738.582 1141.44 739.575 1143.43 739.65C1144.72 739.634 1145.97 739.206 1147 738.43C1151.08 735.145 1152 729.301 1149.13 724.92Z" fill="#0085FA"/><path id="Path_31" d="M1177.56 710.34V710.34C1175.74 707.41 1173.49 707.07 1172.3 707.12C1170.11 707.23 1168.05 708.79 1166.79 711.32C1165.04 714.791 1165.28 718.93 1167.41 722.18C1168.44 723.849 1170.22 724.902 1172.18 724.99C1173.25 724.987 1174.3 724.663 1175.18 724.06C1178.67 721.71 1180.51 715.22 1177.56 710.34Z" fill="#0085FA"/><path id="Path_32" d="M636.81 746.86C633.272 743.742 627.922 743.905 624.58 747.231C621.238 750.558 621.05 755.907 624.15 759.46V759.46C625.749 761.23 628.014 762.253 630.4 762.28C631.101 762.281 631.8 762.194 632.48 762.02C635.8 761.114 638.4 758.533 639.33 755.22C640.111 752.181 639.14 748.96 636.81 746.86Z" fill="#51D9FF"/><path id="Path_33" d="M502.54 738.23C501.426 736.77 499.758 735.834 497.931 735.645C496.104 735.456 494.28 736.029 492.89 737.23C488.938 740.497 488.223 746.279 491.26 750.41V750.41C492.52 752.254 494.597 753.372 496.83 753.41C497.137 753.413 497.445 753.393 497.75 753.35C500.726 752.731 503.15 750.581 504.12 747.7C505.369 744.493 504.762 740.859 502.54 738.23Z" fill="#05A8FF"/><path id="Path_34" d="M432.569 733C431.457 731.537 429.789 730.6 427.961 730.41C426.133 730.221 424.308 730.797 422.919 732C418.973 735.27 418.258 741.048 421.289 745.18V745.18C422.55 747.024 424.626 748.142 426.859 748.18C427.167 748.181 427.475 748.157 427.779 748.11C430.755 747.492 433.18 745.341 434.149 742.46C435.399 739.256 434.792 735.625 432.569 733V733Z" fill="#05A8FF"/><path id="Path_35" d="M386.231 723.38C383.931 720.38 380.471 719.84 377.631 721.9C373.576 725.194 372.673 731.023 375.541 735.39V735.39C376.647 737.275 378.646 738.458 380.831 738.52C381.004 738.531 381.178 738.531 381.351 738.52C383.801 738.29 386.091 736.4 387.351 733.59C388.867 730.237 388.438 726.324 386.231 723.38V723.38Z" fill="#0085FA"/><path id="Path_36" d="M362.691 711.71C360.691 708.82 357.621 708.08 354.961 709.83C351.401 712.15 349.571 718.63 352.521 723.52V723.52C354.231 726.28 356.331 726.75 357.521 726.75H357.751C359.941 726.65 362.001 725.08 363.251 722.56C365.012 719.103 364.799 714.968 362.691 711.71V711.71Z" fill="#0085FA"/></g></g></g></svg>