<svg width="516.645px" height="576.6590389016018px" viewBox="152.19000000000005 123.74141876430213 516.645 576.6590389016018" fill="none" xmlns="http://www.w3.org/2000/svg"><g id="Hobbies Outlines/Dance"><g id="Outlines"><path id="41:16721" fill-rule="evenodd" clip-rule="evenodd" d="M446.604 179.212C437.991 179.212 430.112 182.351 424.048 187.546C417.416 193.228 412.954 201.37 412.074 210.558C412.073 210.557 412.071 210.557 412.07 210.557C393.279 207.751 397.815 234.54 413.557 224.498L413.559 224.488C418.034 238.473 431.134 248.6 446.604 248.6C449.276 248.6 451.877 248.298 454.375 247.727C469.795 244.198 481.298 230.396 481.298 213.906C481.298 194.745 465.764 179.212 446.604 179.212" fill="#FFDCDB"/><path id="Fill 3" fill-rule="evenodd" clip-rule="evenodd" d="M454.263 247.239C451.767 247.81 449.19 248.1 446.603 248.1C431.816 248.1 418.85 238.727 414.182 224.74C417.416 223.072 418.423 221.022 418.465 220.932L417.562 220.502C417.553 220.521 416.643 222.29 413.838 223.78L413.82 223.727L413.272 224.076C409.122 226.723 405.28 226.966 402.728 224.738C400.288 222.606 399.546 218.626 401.001 215.479C402.653 211.907 406.598 210.292 411.907 211.033L412.501 211.33L412.518 211.145C413.888 211.384 415.345 211.767 416.867 212.304L417.2 211.361C415.601 210.797 414.068 210.396 412.625 210.148C413.571 201.498 417.725 193.62 424.372 187.926C430.555 182.629 438.45 179.712 446.603 179.712C465.457 179.712 480.797 195.051 480.797 213.906C480.797 229.957 469.886 243.664 454.263 247.239M446.603 178.712C438.211 178.712 430.085 181.714 423.721 187.166C416.892 193.017 412.611 201.107 411.628 209.992C403.797 209.016 400.958 213.188 400.094 215.059C398.459 218.593 399.309 223.078 402.071 225.49C404.866 227.933 408.927 227.836 413.282 225.245C418.137 239.541 431.448 249.1 446.603 249.1C449.265 249.1 451.917 248.801 454.486 248.214C470.567 244.534 481.797 230.426 481.797 213.906C481.797 194.5 466.009 178.712 446.603 178.712" fill="#350E27"/><path id="Fill 5" fill-rule="evenodd" clip-rule="evenodd" d="M450.742 217.467L451.347 218.263L457.916 213.273L457.31 212.477L450.742 217.467Z" fill="#350E27"/><path id="Fill 7" fill-rule="evenodd" clip-rule="evenodd" d="M440.037 217.365L440.012 218.365C442.373 218.424 444.373 219.868 445.497 222.325C446.717 224.993 446.834 229.042 444.343 232.074L445.116 232.709C447.51 229.794 448.028 225.455 446.407 221.91C445.117 219.091 442.795 217.434 440.037 217.365" fill="#350E27"/><path id="Fill 9" fill-rule="evenodd" clip-rule="evenodd" d="M427.58 238.526C436.623 237.801 443.165 229.643 440.085 224.662C435.407 217.098 428.85 228.467 420.744 228.227C420.116 228.208 419.667 228.817 419.913 229.395L420.085 229.801C421.621 233.414 424.239 236.463 427.58 238.526" fill="#350E27"/><path id="Fill 11" fill-rule="evenodd" clip-rule="evenodd" d="M413.163 219.439C413.163 218.732 412.59 218.16 411.884 218.16C411.178 218.16 410.605 218.732 410.605 219.439C410.605 220.145 411.178 220.718 411.884 220.718C412.59 220.718 413.163 220.145 413.163 219.439" fill="#350E27"/><path id="Fill 13" fill-rule="evenodd" clip-rule="evenodd" d="M407.267 219.969C407.267 219.262 406.694 218.69 405.988 218.69C405.282 218.69 404.709 219.262 404.709 219.969C404.709 220.675 405.282 221.248 405.988 221.248C406.694 221.248 407.267 220.675 407.267 219.969" fill="#350E27"/><path id="Fill 15" fill-rule="evenodd" clip-rule="evenodd" d="M432.895 203.998C431.7 203.929 430.674 204.841 430.604 206.037C430.535 207.232 431.448 208.257 432.643 208.327C433.838 208.396 434.864 207.484 434.934 206.289C435.003 205.093 434.09 204.068 432.895 203.998" fill="#350E27"/><path id="Fill 17" fill-rule="evenodd" clip-rule="evenodd" d="M419.073 203.193C417.878 203.124 416.852 204.036 416.783 205.232C416.713 206.427 417.626 207.453 418.821 207.522C420.017 207.592 421.042 206.679 421.112 205.484C421.181 204.288 420.269 203.263 419.073 203.193" fill="#350E27"/><path id="41:16732" fill-rule="evenodd" clip-rule="evenodd" d="M424.047 187.546C430.592 181.938 439.252 178.727 448.666 179.272C465.775 180.261 479.795 193.928 481.179 211.01C482.619 228.758 470.689 243.993 454.375 247.726L451.952 222.462L457.811 221.075C461.404 220.225 463.663 216.665 462.902 213.053C461.928 208.427 456.65 206.179 452.641 208.683L450.744 209.868L449.172 193.485C448.712 188.69 443.572 185.987 439.271 188.157C430.025 192.822 424.047 187.546 424.047 187.546" fill="#6EB010"/><path id="Fill 21" fill-rule="evenodd" clip-rule="evenodd" d="M452.491 222.848L454.818 247.107C470.947 243.128 482.034 227.731 480.681 211.051C479.315 194.196 465.539 180.749 448.637 179.771C439.932 179.269 431.511 182.02 424.844 187.529C426.382 188.61 431.563 191.486 439.046 187.711C441.253 186.597 443.847 186.636 445.985 187.816C448.095 188.979 449.438 191.029 449.67 193.437L451.165 209.016L452.377 208.259C454.428 206.977 456.882 206.787 459.105 207.734C461.331 208.682 462.893 210.583 463.391 212.95C464.215 216.859 461.814 220.642 457.927 221.561L452.491 222.848ZM453.931 248.341L451.413 222.076L457.696 220.589C461.052 219.795 463.124 216.53 462.413 213.156C461.983 211.113 460.635 209.473 458.714 208.655C456.795 207.836 454.677 208.002 452.906 209.108L450.323 210.721L448.674 193.533C448.475 191.458 447.319 189.693 445.502 188.691C443.653 187.671 441.408 187.639 439.496 188.603C430.058 193.367 423.779 187.976 423.716 187.921L423.285 187.541L423.722 187.166C430.658 181.223 439.527 178.242 448.695 178.773C466.092 179.779 480.271 193.621 481.678 210.97C483.086 228.333 471.396 244.344 454.486 248.214L453.931 248.341Z" fill="#350E27"/><path id="Fill 23" fill-rule="evenodd" clip-rule="evenodd" d="M465.072 200.539C464.456 200.503 463.926 200.974 463.891 201.59C463.855 202.206 464.326 202.735 464.942 202.771C465.558 202.807 466.087 202.336 466.123 201.72C466.159 201.103 465.688 200.575 465.072 200.539" fill="#350E27"/><path id="Fill 25" fill-rule="evenodd" clip-rule="evenodd" d="M469.935 199.023C469.319 198.987 468.789 199.458 468.754 200.074C468.718 200.69 469.189 201.219 469.805 201.254C470.421 201.291 470.95 200.82 470.986 200.204C471.022 199.587 470.551 199.059 469.935 199.023" fill="#350E27"/><path id="Fill 27" fill-rule="evenodd" clip-rule="evenodd" d="M469.055 203.863C468.439 203.827 467.91 204.298 467.874 204.914C467.839 205.53 468.309 206.059 468.925 206.095C469.541 206.131 470.071 205.66 470.107 205.044C470.142 204.427 469.672 203.899 469.055 203.863" fill="#350E27"/><path id="Fill 29" fill-rule="evenodd" clip-rule="evenodd" d="M666.223 551.907C666.223 519.354 616.907 500.911 593.327 493.938C586.039 491.784 581.055 485.066 581.055 477.467C581.055 471.566 584.067 466.064 589.068 462.932C599.026 456.697 614.687 444.612 614.687 430.265C614.687 412.669 594.828 396.797 562.988 385.575C553.071 382.08 546.412 372.734 546.413 362.219C546.413 355.061 549.568 348.316 554.912 343.555C564.98 334.59 570.729 324.22 570.729 313.17C570.729 279.161 516.268 251.591 449.086 251.591H448.707C381.527 251.591 327.065 279.161 327.065 313.17C327.065 324.22 332.815 334.59 342.881 343.555C348.226 348.316 351.381 355.061 351.381 362.219C351.381 372.734 344.724 382.08 334.806 385.575C302.965 396.797 283.108 412.669 283.108 430.265C283.108 444.612 298.768 456.697 308.726 462.932C313.727 466.064 316.739 471.566 316.739 477.467C316.739 485.066 311.755 491.784 304.467 493.938C280.888 500.911 231.571 519.354 231.571 551.907C231.571 594.497 328.871 629.022 448.897 629.022C449.936 629.022 450.968 629.013 452.003 629.009C486.718 628.836 519.465 625.779 548.422 620.476C618.385 607.665 666.223 581.769 666.223 551.907" fill="#5FA200"/><path id="Fill 31" fill-rule="evenodd" clip-rule="evenodd" d="M327.366 563.75H328.366V485.053H327.366V563.75Z" fill="#350E27"/><path id="Fill 33" fill-rule="evenodd" clip-rule="evenodd" d="M375.03 603.504H376.03V485.053H375.03V603.504Z" fill="#350E27"/><path id="Fill 34" fill-rule="evenodd" clip-rule="evenodd" d="M423.837 468.053H424.837V283.801H423.837V468.053Z" fill="#350E27"/><path id="Fill 35" fill-rule="evenodd" clip-rule="evenodd" d="M423.837 625.42H424.837V485.053H423.837V625.42Z" fill="#350E27"/><path id="Fill 36" fill-rule="evenodd" clip-rule="evenodd" d="M471.913 315.957H472.913V283.374H471.913V315.957Z" fill="#350E27"/><path id="Fill 37" fill-rule="evenodd" clip-rule="evenodd" d="M471.913 468.053H472.913V378.55H471.913V468.053Z" fill="#350E27"/><path id="Fill 38" fill-rule="evenodd" clip-rule="evenodd" d="M520.208 468.053H521.208V432.139H520.208V468.053Z" fill="#350E27"/><path id="Fill 39" fill-rule="evenodd" clip-rule="evenodd" d="M567.197 468.053H568.197V442.419H567.197V468.053Z" fill="#350E27"/><path id="Fill 40" fill-rule="evenodd" clip-rule="evenodd" d="M615.562 600.934V502.3C631.744 509.002 649.876 519.001 659.282 532.562V570.508C651.366 581.737 636.374 592.121 615.562 600.934V600.934ZM548.333 619.984C539.498 621.602 530.445 622.986 521.208 624.146V485.053H520.208V624.275C504.923 626.164 489.123 627.423 472.913 628.049V485.053H471.913V628.089C465.339 628.332 458.702 628.475 452.001 628.508L451.045 628.513C450.331 628.518 449.616 628.522 448.897 628.522C329.339 628.522 232.071 594.153 232.071 551.907C232.071 528.65 258.003 512.559 280.757 502.918V528.335H281.757V502.498C290.455 498.87 298.622 496.188 304.609 494.417C312.045 492.219 317.239 485.248 317.239 477.466C317.239 471.334 314.156 465.743 308.992 462.508C299.512 456.573 283.608 444.49 283.608 430.265C283.608 415.005 299.444 400.155 327.366 388.918V468.053H328.366V388.518C330.502 387.673 332.7 386.848 334.973 386.047C345.086 382.482 351.881 372.907 351.881 362.219C351.881 355.026 348.722 348.088 343.214 343.182C332.977 334.064 327.565 323.686 327.565 313.17C327.565 293.455 346.191 275.896 375.03 264.721V468.053H376.03V264.334C396.29 256.651 421.461 252.091 448.708 252.091H449.086C475.64 252.091 500.221 256.424 520.208 263.757V371.16H521.208V264.125C550.933 275.266 570.229 293.102 570.229 313.17C570.229 323.687 564.818 334.065 554.58 343.182C549.073 348.087 545.914 355.026 545.914 362.219C545.913 372.906 552.708 382.482 562.822 386.047C595.465 397.551 614.187 413.668 614.187 430.265C614.187 444.489 598.283 456.572 588.802 462.508C583.638 465.743 580.555 471.334 580.555 477.466C580.555 485.248 585.749 492.219 593.185 494.417C598.833 496.087 606.419 498.568 614.562 501.889V601.355C601.311 606.884 585.752 611.784 568.197 615.869V485.053H567.197V616.099C561.138 617.493 554.848 618.79 548.333 619.984V619.984ZM665.723 551.907C665.723 557.754 663.86 563.492 660.282 569.034V534.079C663.695 539.473 665.723 545.41 665.723 551.907V551.907ZM660.282 570.765C664.51 564.689 666.723 558.366 666.723 551.907C666.723 544.687 664.299 538.153 660.282 532.278V532.178H660.215C645.715 511.096 610.677 498.547 593.468 493.458C586.454 491.385 581.555 484.809 581.555 477.466C581.555 471.681 584.462 466.406 589.333 463.356C598.989 457.31 615.187 444.971 615.187 430.265C615.187 412.968 596.708 396.929 563.154 385.103C553.439 381.68 546.913 372.483 546.914 362.219C546.914 355.311 549.951 348.644 555.246 343.929C565.702 334.617 571.229 323.98 571.229 313.17C571.229 278.939 516.436 251.091 449.086 251.091H448.708C381.358 251.091 326.565 278.939 326.565 313.17C326.565 323.979 332.092 334.616 342.549 343.929C347.844 348.645 350.881 355.311 350.881 362.219C350.881 372.483 344.354 381.68 334.641 385.103C301.087 396.929 282.608 412.967 282.608 430.265C282.608 444.972 298.806 457.31 308.461 463.356C313.332 466.406 316.239 471.681 316.239 477.466C316.239 484.809 311.34 491.385 304.326 493.458C282.3 499.972 231.071 518.705 231.071 551.907C231.071 572.733 253.795 592.265 295.057 606.907C336.157 621.491 390.791 629.522 448.897 629.522C449.618 629.522 450.334 629.518 451.051 629.513L452.006 629.508C486.022 629.339 518.491 626.465 548.512 620.968C604.91 610.64 644.776 592.468 659.948 571.233H660.282V570.765Z" fill="#350E27"/><path id="Fill 41" fill-rule="evenodd" clip-rule="evenodd" d="M581.056 477.466V477.466C581.056 474.07 582.059 470.809 583.859 468.053H313.937C315.738 470.809 316.74 474.07 316.74 477.466C316.74 480.162 316.102 482.742 314.967 485.053H582.829C581.694 482.742 581.056 480.162 581.056 477.466" fill="white"/><path id="41:16754" fill-rule="evenodd" clip-rule="evenodd" d="M415.858 485.053H444.942V468.053H415.858V485.053Z" fill="#E9553B"/><path id="Fill 43" fill-rule="evenodd" clip-rule="evenodd" d="M436.463 477.539C436.463 475.393 433.749 473.654 430.4 473.654C427.051 473.654 424.337 475.393 424.337 477.539C424.337 479.684 427.051 481.423 430.4 481.423C433.749 481.423 436.463 479.684 436.463 477.539" fill="#FDC227"/><path id="Fill 44" fill-rule="evenodd" clip-rule="evenodd" d="M580.556 477.466C580.556 479.92 581.057 482.3 582.045 484.553H445.443V468.553H582.962C581.385 471.259 580.556 474.321 580.556 477.466V477.466ZM416.359 484.553H444.443V468.553H416.359V484.553ZM315.751 484.553C316.74 482.299 317.24 479.919 317.24 477.466C317.24 474.32 316.41 471.258 314.833 468.553H415.359V484.553H315.751ZM584.783 467.553H445.443H415.359H313.013L313.518 468.326C315.299 471.051 316.24 474.212 316.24 477.466C316.24 480.028 315.661 482.506 314.518 484.832L314.164 485.553H415.359H445.443H583.632L583.278 484.832C582.135 482.508 581.556 480.029 581.556 477.466C581.556 474.213 582.497 471.052 584.278 468.326L584.783 467.553Z" fill="#350E27"/><path id="Fill 45" fill-rule="evenodd" clip-rule="evenodd" d="M430.4 480.922C427.384 480.922 424.837 479.372 424.837 477.538C424.837 475.703 427.384 474.153 430.4 474.153C433.416 474.153 435.963 475.703 435.963 477.538C435.963 479.372 433.416 480.922 430.4 480.922M430.4 473.153C426.719 473.153 423.837 475.079 423.837 477.538C423.837 479.996 426.719 481.922 430.4 481.922C434.08 481.922 436.963 479.996 436.963 477.538C436.963 475.079 434.08 473.153 430.4 473.153" fill="#350E27"/><path id="Fill 46" fill-rule="evenodd" clip-rule="evenodd" d="M247.522 521.872C238.092 530.103 231.57 540.071 231.57 551.906C231.57 594.496 328.871 629.021 448.896 629.021H448.942C346.711 622.728 316.131 516.105 247.522 521.872" fill="#350E27"/><path id="Fill 47" fill-rule="evenodd" clip-rule="evenodd" d="M570.164 646.632C562.284 650.112 558.495 658.359 556.853 663.414C556.208 665.405 557.829 667.397 559.91 667.18L589.742 664.077C595.878 663.44 600.496 658.096 600.101 651.94C599.575 643.789 600.471 637.018 601.37 632.609C603.403 622.643 590.961 616.195 584.135 623.735C582.899 625.099 581.83 626.82 581.026 628.936" fill="#5FA200"/><path id="Fill 48" fill-rule="evenodd" clip-rule="evenodd" d="M559.606 667.696C558.585 667.696 557.619 667.24 556.968 666.436C556.244 665.542 556.024 664.355 556.378 663.26C557.948 658.427 561.799 649.781 569.962 646.175L570.367 647.09C562.559 650.539 558.847 658.895 557.33 663.569C557.076 664.351 557.227 665.168 557.746 665.807C558.258 666.44 559.053 666.765 559.859 666.683L589.691 663.581C595.627 662.964 599.981 657.865 599.602 651.972C599.068 643.685 600.002 636.814 600.88 632.509C601.96 627.217 598.804 623.549 595.773 622.014C591.852 620.031 587.43 620.839 584.506 624.071C583.253 625.454 582.241 627.15 581.495 629.114L580.559 628.758C581.35 626.678 582.428 624.876 583.764 623.399C587.002 619.824 591.894 618.93 596.224 621.122C600.629 623.351 602.841 627.899 601.861 632.709C600.995 636.954 600.073 643.731 600.6 651.908C601.013 658.339 596.267 663.902 589.794 664.575L559.962 667.677C559.843 667.69 559.724 667.696 559.606 667.696" fill="#350E27"/><path id="Fill 49" fill-rule="evenodd" clip-rule="evenodd" d="M589.223 652.413C585.952 645.434 579.964 646.289 579.906 646.298L579.749 645.309C579.82 645.299 586.543 644.337 590.129 651.989L589.223 652.413Z" fill="#350E27"/><path id="41:16768" fill-rule="evenodd" clip-rule="evenodd" d="M451.994 629.014C475.306 657.244 511.356 651.495 585.191 645.354C588.979 645.038 591.969 641.987 592.192 638.192C592.406 634.551 590.016 631.268 586.486 630.352L548.426 620.478L548.423 620.476C519.466 625.779 486.719 628.835 452.004 629.008L451.994 629.014Z" fill="#E9553B"/><path id="Fill 51" fill-rule="evenodd" clip-rule="evenodd" d="M453.056 629.502C474.323 654.399 505.876 651.679 568.093 646.309C573.543 645.838 579.225 645.348 585.15 644.856C588.672 644.562 591.485 641.685 591.693 638.162C591.892 634.771 589.649 631.69 586.36 630.836L548.401 620.988C518.72 626.416 486.648 629.279 453.056 629.502M510.581 650.92C483.172 650.92 465.344 645.967 451.608 629.332L451.238 628.884L451.864 628.509L452 628.508C485.958 628.339 518.369 625.471 548.332 619.983L548.532 619.947L548.632 620.015L586.612 629.867C590.362 630.841 592.918 634.354 592.691 638.221C592.454 642.237 589.247 645.518 585.232 645.852C579.309 646.345 573.628 646.835 568.179 647.305C545.144 649.293 526.289 650.92 510.581 650.92" fill="#350E27"/><path id="Fill 52" fill-rule="evenodd" clip-rule="evenodd" d="M401.961 272.685C401.961 290.748 420.277 290.748 420.277 272.685C420.277 272.685 420.465 286.327 430.445 286.327C437.742 286.327 441.052 279.073 442.17 275.816C442.271 275.524 442.689 275.583 442.723 275.89C444.372 290.727 468.593 290.11 468.593 271.99C468.593 271.99 468.346 286.327 479.461 286.327C490.635 286.327 490.066 273.001 490.066 273.001C514.697 280.011 513.119 242.243 490.066 252.788C490.066 252.788 490.635 239.461 479.461 239.461C468.346 239.461 468.593 253.798 468.593 253.798C468.593 235.679 444.372 235.062 442.723 249.899C442.689 250.206 442.271 250.265 442.17 249.973C441.052 246.715 437.742 239.461 430.445 239.461C420.465 239.461 420.277 253.103 420.277 253.103C420.277 235.04 401.961 235.04 401.961 253.103C401.961 253.103 388.766 251.475 388.766 262.843C388.766 274.78 401.961 272.685 401.961 272.685" fill="white"/><path id="Fill 53" fill-rule="evenodd" clip-rule="evenodd" d="M442.432 275.126C442.46 275.126 442.49 275.127 442.518 275.131C442.89 275.172 443.178 275.461 443.22 275.835C444.032 283.139 450.292 286.143 455.752 285.836C461.859 285.498 468.021 281.135 468.092 272.15C468.092 272.062 468.093 272.004 468.093 271.982L469.093 271.991V272.084C469.097 272.912 469.249 279.525 472.912 283.249C474.596 284.96 476.799 285.828 479.461 285.828C482.28 285.828 484.562 284.938 486.243 283.183C489.799 279.472 489.57 273.087 489.567 273.023L489.537 272.331L490.203 272.521C497.102 274.484 502.722 272.983 505.628 268.403C508.347 264.119 508.014 258.154 504.852 254.528C503 252.405 498.642 249.415 490.275 253.243L489.534 253.582L489.567 252.767C489.57 252.703 489.792 246.307 486.24 242.603C484.559 240.851 482.278 239.962 479.461 239.962C476.798 239.962 474.594 240.831 472.911 242.543C469.254 246.263 469.097 252.839 469.093 253.697V253.799L468.093 253.808C468.093 253.785 468.092 253.728 468.092 253.639C468.021 244.655 461.859 240.292 455.752 239.954C450.314 239.661 444.032 242.65 443.22 249.955C443.178 250.329 442.89 250.618 442.518 250.659C442.15 250.696 441.817 250.484 441.698 250.136C440.647 247.077 437.448 239.962 430.445 239.962C421.077 239.962 420.785 252.574 420.777 253.111L419.777 253.104C419.777 249.029 418.823 245.62 417.017 243.246C415.453 241.189 413.359 240.057 411.119 240.057C406.949 240.057 402.461 244.14 402.461 253.104V253.669L401.9 253.6C401.838 253.593 395.597 252.871 391.935 256.111C390.164 257.679 389.266 259.944 389.266 262.844C389.266 265.981 390.215 268.383 392.088 269.982C395.764 273.12 401.823 272.202 401.883 272.192L402.461 272.1V272.686C402.461 281.65 406.949 285.733 411.119 285.733C415.289 285.733 419.777 281.65 419.777 272.686L420.777 272.678C420.785 273.215 421.077 285.828 430.445 285.828C437.448 285.828 440.647 278.713 441.698 275.654C441.807 275.334 442.102 275.126 442.432 275.126M454.998 286.857C449.502 286.857 443.543 283.784 442.346 276.796C440.975 280.355 437.508 286.828 430.445 286.828C423.892 286.828 421.362 281.222 420.386 277.07C419.121 283.678 414.997 286.733 411.119 286.733C408.56 286.733 406.183 285.46 404.425 283.149C402.572 280.711 401.554 277.298 401.467 273.25C399.784 273.415 394.807 273.619 391.439 270.743C389.333 268.945 388.266 266.288 388.266 262.844C388.266 259.644 389.279 257.126 391.277 255.359C394.648 252.378 399.776 252.445 401.467 252.558C401.652 243.287 406.557 239.057 411.119 239.057C414.997 239.057 419.121 242.112 420.386 248.719C421.362 244.568 423.892 238.962 430.445 238.962C437.509 238.962 440.975 245.435 442.346 248.994C443.602 241.661 450.105 238.645 455.808 238.955C461.317 239.26 466.868 242.595 468.567 249.334C469.068 246.909 470.095 243.981 472.197 241.842C474.076 239.931 476.52 238.962 479.461 238.962C482.563 238.962 485.087 239.955 486.965 241.915C490.079 245.165 490.519 250.107 490.568 252.022C496.815 249.386 502.268 250.044 505.606 253.871C509.047 257.817 509.419 264.295 506.473 268.939C503.405 273.774 497.629 275.476 490.57 273.656C490.536 275.483 490.142 280.56 486.965 283.875C485.087 285.834 482.563 286.828 479.461 286.828C476.52 286.828 474.076 285.858 472.197 283.947C470.095 281.809 469.068 278.88 468.567 276.455C466.868 283.194 461.317 286.529 455.808 286.834C455.539 286.849 455.27 286.857 454.998 286.857" fill="#350E27"/><path id="Fill 54" fill-rule="evenodd" clip-rule="evenodd" d="M414.079 260.96H413.079C413.079 257.551 415.852 254.778 419.261 254.778C421.141 254.778 422.897 255.622 424.078 257.094C425.169 255.472 427.019 254.501 428.993 254.501C432.313 254.501 435.015 257.203 435.015 260.523H434.015C434.015 257.754 431.762 255.501 428.993 255.501C427.348 255.501 425.804 256.311 424.864 257.668C424.688 257.922 424.409 258.075 424.099 258.086C423.784 258.109 423.491 257.96 423.298 257.72C422.308 256.486 420.837 255.778 419.261 255.778C416.404 255.778 414.079 258.103 414.079 260.96" fill="#350E27"/><path id="Fill 55" fill-rule="evenodd" clip-rule="evenodd" d="M470.37 260.009H469.37C469.37 257.6 471.33 255.641 473.738 255.641C474.976 255.641 476.161 256.172 476.989 257.098C477.814 256.053 479.04 255.452 480.362 255.452C482.711 255.452 484.621 257.363 484.621 259.712H483.621C483.621 257.914 482.159 256.452 480.362 256.452C479.35 256.452 478.413 256.912 477.79 257.714C477.605 257.951 477.329 258.093 477.032 258.103C476.738 258.115 476.446 257.99 476.244 257.764C475.605 257.05 474.692 256.641 473.738 256.641C471.881 256.641 470.37 258.152 470.37 260.009" fill="#350E27"/><path id="Fill 56" fill-rule="evenodd" clip-rule="evenodd" d="M458.784 268.575H457.784C457.784 265.757 455.491 263.464 452.673 263.464C449.854 263.464 447.561 265.757 447.561 268.575H446.561C446.561 265.205 449.303 262.464 452.673 262.464C456.043 262.464 458.784 265.205 458.784 268.575" fill="#350E27"/><path id="Fill 57" fill-rule="evenodd" clip-rule="evenodd" d="M251.524 660.073C238.343 670.447 231.605 681.922 228.174 690.55C226.188 695.543 231.513 700.284 236.223 697.695L280.003 673.626C287.953 669.256 285.757 657.178 276.758 656.03C276.564 656.006 276.455 655.998 276.455 655.998" fill="#5FA200"/><path id="Fill 58" fill-rule="evenodd" clip-rule="evenodd" d="M233.434 698.932C231.98 698.932 230.554 698.398 229.371 697.353C227.374 695.589 226.722 692.846 227.71 690.365C230.927 682.273 237.617 670.381 251.215 659.68L251.833 660.465C238.411 671.03 231.811 682.757 228.639 690.734C227.632 693.265 228.699 695.425 230.033 696.603C231.356 697.772 233.614 698.559 235.982 697.256L279.763 673.187C283.219 671.287 284.974 667.543 284.234 663.65C283.654 660.597 281.369 657.122 276.695 656.526C276.524 656.504 276.426 656.496 276.419 656.496L276.492 655.498C276.492 655.498 276.609 655.507 276.821 655.534C281.11 656.08 284.405 659.194 285.216 663.463C286.039 667.79 284.087 671.952 280.245 674.064L236.464 698.133C235.49 698.668 234.455 698.932 233.434 698.932" fill="#350E27"/><path id="41:16781" fill-rule="evenodd" clip-rule="evenodd" d="M328.663 564.486C302.552 540.31 279.051 519.222 247.522 521.873C238.092 530.104 231.571 540.072 231.571 551.907C231.571 553.698 231.749 555.474 232.088 557.235L232.081 557.232L250.834 657.695C251.969 663.774 257.275 668.18 263.458 668.18C269.506 668.18 274.735 663.961 276.011 658.049L291.404 586.77L297.312 559.41L297.516 558.466C308.067 561.424 318.824 563.305 328.666 564.492L328.663 564.486Z" fill="#E9553B"/><path id="Fill 60" fill-rule="evenodd" clip-rule="evenodd" d="M298.101 558.106L299.987 548.977L299.007 548.774L297.026 558.365H297.027L275.522 657.944C274.304 663.585 269.23 667.68 263.458 667.68C257.518 667.68 252.416 663.442 251.326 657.603L232.745 558.06L232.757 558.066L232.58 557.14C232.242 555.387 232.071 553.627 232.071 551.907C232.071 541.41 237.339 531.467 247.727 522.357C279.135 519.8 302.562 541.008 327.192 563.805C316.73 562.479 306.956 560.562 298.101 558.106V558.106ZM329.113 564.268L329.003 564.119C303.747 540.736 279.897 518.641 247.48 521.375L247.317 521.388L247.194 521.496C236.495 530.835 231.071 541.066 231.071 551.907C231.071 553.389 231.193 554.9 231.435 556.411L231.418 556.404L250.343 657.787C251.521 664.099 257.037 668.68 263.458 668.68C269.698 668.68 275.183 664.253 276.5 658.155L297.893 559.09C307.211 561.67 317.54 563.654 328.606 564.988L329.529 565.099L329.113 564.268Z" fill="#350E27"/><path id="Fill 61" fill-rule="evenodd" clip-rule="evenodd" d="M656.655 302.844C656.655 273.805 633.115 250.265 604.076 250.265C575.038 250.265 551.498 273.805 551.498 302.844C551.498 320.085 559.797 335.389 572.618 344.977C581.39 351.538 592.279 355.423 604.076 355.423C617.004 355.423 628.841 350.758 637.997 343.019C649.409 333.374 656.655 318.955 656.655 302.844" fill="white"/><path id="Fill 62" fill-rule="evenodd" clip-rule="evenodd" d="M604.076 250.765C575.36 250.765 551.998 274.128 551.998 302.844C551.998 319.424 559.623 334.635 572.918 344.577C581.968 351.345 592.742 354.923 604.076 354.923C616.368 354.923 628.301 350.56 637.675 342.638C649.419 332.711 656.155 318.207 656.155 302.844C656.155 274.128 632.793 250.765 604.076 250.765M604.076 355.923C592.524 355.923 581.543 352.276 572.318 345.378C558.769 335.245 550.998 319.742 550.998 302.844C550.998 273.576 574.808 249.765 604.076 249.765C633.344 249.765 657.155 273.576 657.155 302.844C657.155 318.502 650.29 333.285 638.319 343.401C628.765 351.476 616.604 355.923 604.076 355.923" fill="#350E27"/><path id="41:16789" fill-rule="evenodd" clip-rule="evenodd" d="M557.719 396.854L476.75 340.644L461.466 359.844C536.248 496.735 613.523 447.544 637.517 345.085L637.997 343.019C628.841 350.757 617.004 355.422 604.076 355.422C592.28 355.422 581.391 351.538 572.618 344.977L545.593 388.77" fill="#E9553B"/><path id="Fill 64" fill-rule="evenodd" clip-rule="evenodd" d="M637.029 344.972C623.934 400.89 595.487 438.386 562.789 442.826C546.93 444.984 530.59 439.618 514.232 426.89C496.319 412.952 478.768 390.413 462.063 359.896L466.258 354.626C498.68 400.925 526.51 423.546 551.141 423.546C552.696 423.546 554.242 423.455 555.771 423.276C578.453 420.604 598.526 397.526 615.433 354.687C623.341 352.954 630.798 349.431 637.176 344.34L637.029 344.972ZM476.849 341.322L555.216 395.725C552.655 397.113 550.022 398.048 547.313 398.534C526.571 402.262 502.626 380.269 473.062 346.079L476.849 341.322ZM572.758 345.703C576.454 348.41 580.428 350.59 584.601 352.237C576.143 374.738 566.78 388.91 556.175 395.175L546.411 388.396L572.758 345.703ZM614.261 354.923C597.55 397.002 577.835 419.671 555.654 422.283C530.255 425.271 501.218 402.873 466.907 353.811L472.429 346.874C499.935 378.67 522.671 399.942 542.683 399.942C544.302 399.942 545.905 399.802 547.49 399.518C550.459 398.985 553.333 397.927 556.122 396.354L557.433 397.265L558.004 396.444L557.075 395.799C567.724 389.291 577.1 375.027 585.532 352.604C591.401 354.793 597.65 355.923 604.076 355.923C607.515 355.923 610.925 355.576 614.261 354.923V354.923ZM637.675 342.638C628.3 350.56 616.368 354.923 604.076 354.923C592.742 354.923 581.967 351.345 572.918 344.577L572.479 344.249L545.589 387.825L476.65 339.966L460.868 359.792L461.027 360.084C477.845 390.87 495.54 413.613 513.618 427.68C527.809 438.722 542.008 444.29 555.925 444.29C558.266 444.29 560.6 444.133 562.924 443.817C579.602 441.552 595.427 430.931 608.687 413.101C621.496 395.88 631.633 372.4 638.004 345.199L638.825 341.665L637.675 342.638Z" fill="#350E27"/><path id="41:16796" fill-rule="evenodd" clip-rule="evenodd" d="M475.963 341.631C483.351 327.829 469.506 317.635 470.128 305.911C470.193 304.674 469.451 303.535 468.321 303.027C466.654 302.277 464.68 303.132 464.139 304.878C460.901 315.327 464.56 322.643 464.56 322.643L446.77 303.199C445.02 301.287 442 301.31 440.279 303.249C439.711 303.89 439.36 304.659 439.233 305.459L437.718 303.868C435.92 301.98 432.849 302.186 431.318 304.298C430.224 305.809 430.266 307.862 431.421 309.328L432.87 311.167L432.892 311.183C431.854 310.988 430.741 311.25 429.895 312.008C428.533 313.227 428.331 315.286 429.431 316.747L433.349 322.231C432.076 321.823 430.597 322.063 429.619 323.025C428.377 324.248 428.2 326.205 429.229 327.612C436.176 337.12 443.086 341.906 443.086 341.906C443.086 341.906 448.707 355.233 465.133 355.236L475.963 341.631Z" fill="#FFDCDB"/><path id="Fill 66" fill-rule="evenodd" clip-rule="evenodd" d="M475.544 341.355L464.894 354.735C449.191 354.602 443.603 341.841 443.547 341.711L443.491 341.578L443.372 341.495C443.304 341.449 436.556 336.717 429.801 327.546C429.081 326.568 428.906 325.327 429.344 324.308C429.874 323.076 431.008 322.541 432.127 322.541C432.453 322.541 432.776 322.593 433.085 322.68L447.581 338.357L445.73 340.645L446.507 341.273L459.392 325.357L458.614 324.729L458.462 324.917L439.784 305.311C439.961 304.509 440.369 303.794 440.995 303.24C442.561 301.856 445.041 302.049 446.523 303.67L463.823 322.579C464.018 322.79 464.336 322.832 464.578 322.678C464.818 322.525 464.914 322.224 464.807 321.96C464.082 320.184 461.927 313.712 464.617 305.026C464.831 304.334 465.34 303.768 466.013 303.473C466.704 303.169 467.489 303.183 468.17 303.506C469.086 303.943 469.671 304.951 469.624 306.012C469.412 310.761 471.523 315.322 473.565 319.734C476.649 326.399 479.839 333.291 475.544 341.355V341.355ZM429.831 316.446C428.88 315.183 429.051 313.435 430.229 312.38C430.892 311.786 431.773 311.535 432.665 311.664L452.666 332.077L448.217 337.572L433.739 321.914L429.831 316.446ZM431.814 309.018C430.574 307.445 430.819 305.196 432.372 303.9C433.836 302.678 436.073 302.865 437.465 304.326L439.568 306.535V306.534L457.827 325.701L453.3 331.294L434.352 311.957L433.22 310.802L431.814 309.018ZM474.473 319.314C472.39 314.813 470.422 310.562 470.623 306.056C470.688 304.599 469.874 303.211 468.6 302.604C467.658 302.155 466.567 302.137 465.611 302.557C464.673 302.968 463.962 303.76 463.662 304.73C461.48 311.777 462.384 317.443 463.243 320.462L447.262 302.995C445.413 300.974 442.305 300.747 440.333 302.491C439.722 303.031 439.258 303.713 438.98 304.467L438.698 304.171L438.19 303.637C438.189 303.636 438.188 303.635 438.187 303.634L438.081 303.523L438.071 303.533C436.31 301.796 433.559 301.605 431.731 303.132C429.76 304.778 429.451 307.635 431.029 309.637L431.819 310.64C430.986 310.723 430.2 311.064 429.562 311.635C427.994 313.039 427.766 315.366 429.025 317.037L432.243 321.542C430.754 321.504 429.156 322.213 428.425 323.913C427.848 325.257 428.066 326.876 428.996 328.139C435.37 336.793 441.758 341.564 442.688 342.235C443.351 343.655 449.463 355.732 465.134 355.736H465.375L476.356 341.942L476.404 341.867C480.966 333.345 477.665 326.212 474.473 319.314V319.314Z" fill="#350E27"/><path id="41:16802" fill-rule="evenodd" clip-rule="evenodd" d="M217.795 157.678C217.456 156.602 217.023 155.479 216.468 154.383C216.146 153.743 216.061 153.007 216.211 152.309C216.532 150.818 216.918 147.972 216.117 144.954C215.841 143.917 216.077 142.792 216.791 142.059C217.936 140.884 219.397 138.602 219.303 134.647C219.274 133.41 218.587 132.276 217.542 131.722C216.176 130.998 214.521 131.419 213.696 132.752C204.256 148.016 211.074 164.763 211.074 164.763C211.074 164.763 207.508 179.781 215.656 185.465L212.751 193.107L218.381 202.833L239.719 196.075C256.283 195.784 260.352 181.542 273.262 176.778C275.125 176.091 276.068 174.009 275.441 172.125C274.948 170.649 273.587 169.63 272.031 169.57C263.315 169.234 259.424 174.57 259.424 174.57C252.887 172.517 247.582 175.612 247.582 175.612C247.582 175.612 249.024 168.427 242.56 162.9C241.617 162.093 241.189 160.837 241.365 159.608C241.628 157.78 241.691 155.008 240.404 152.489C240.037 151.768 239.967 150.931 240.274 150.182C240.831 148.822 241.571 146.419 241.303 143.715C241.207 142.74 241.62 141.763 242.432 141.216C243.746 140.33 245.562 138.485 246.13 134.869C246.307 133.742 245.824 132.607 244.897 131.943C243.719 131.099 242.099 131.202 241.066 132.2C241.113 131.972 241.168 131.755 241.206 131.514C241.409 130.217 240.854 128.91 239.786 128.145C238.363 127.127 236.408 127.327 235.208 128.599C234.401 129.454 233.659 130.324 232.976 131.205C232.76 131.484 232.549 131.765 232.344 132.047L232.335 132.063C232.447 130.903 231.934 129.759 230.979 129.075C229.661 128.132 227.83 128.269 226.715 129.445C217.321 139.349 217.114 151.522 217.661 157.265" fill="#FFDCDB"/><path id="Fill 68" fill-rule="evenodd" clip-rule="evenodd" d="M273.088 176.308C267.713 178.292 263.82 181.912 260.055 185.412C254.527 190.552 249.306 195.406 239.709 195.575L218.611 202.235L213.301 193.062L216.261 185.277L215.941 185.054C208.169 179.632 211.525 165.025 211.559 164.878L211.596 164.723L211.536 164.575C211.469 164.41 204.921 147.891 214.12 133.015C214.795 131.924 216.163 131.558 217.307 132.163C218.191 132.632 218.777 133.611 218.802 134.658C218.89 138.386 217.562 140.55 216.432 141.71C215.61 142.553 215.304 143.845 215.632 145.082C216.412 148.019 216.023 150.805 215.721 152.204C215.545 153.021 215.651 153.875 216.021 154.608C216.518 155.59 216.954 156.674 217.317 157.828L218.271 157.527C218.232 157.404 218.192 157.282 218.152 157.16C217.578 151.026 217.988 139.37 227.077 129.789C228.008 128.807 229.56 128.675 230.687 129.482C231.491 130.057 231.932 131.028 231.837 132.015L231.763 132.716L231.729 132.709C231.645 133.136 231.543 133.537 231.427 133.914L231.63 133.976L231.576 134.488L231.822 134.036L232.383 134.208C232.511 133.79 232.621 133.351 232.71 132.904L232.466 132.855L232.747 132.341C232.949 132.063 233.157 131.786 233.37 131.511C234.054 130.628 234.795 129.764 235.57 128.942C236.598 127.853 238.283 127.684 239.494 128.552C240.405 129.204 240.883 130.337 240.711 131.436C240.686 131.592 240.654 131.737 240.622 131.883L240.458 132.674C240.156 133.869 239.7 134.951 239.101 135.887C238.829 136.311 238.524 136.712 238.193 137.078L238.936 137.748C239.303 137.342 239.642 136.897 239.943 136.426C240.603 135.394 241.104 134.209 241.432 132.904L241.133 132.829L241.413 132.559C242.273 131.729 243.614 131.639 244.605 132.349C245.377 132.902 245.781 133.86 245.635 134.791C245.103 138.177 243.447 139.928 242.152 140.801C241.203 141.441 240.687 142.576 240.805 143.764C241.068 146.425 240.295 148.808 239.81 149.993C239.459 150.85 239.513 151.843 239.958 152.716C241.177 155.102 241.127 157.742 240.869 159.537C240.663 160.973 241.173 162.372 242.234 163.279C248.386 168.539 247.105 175.445 247.091 175.514L246.877 176.599L247.833 176.044C247.884 176.014 253.036 173.088 259.273 175.047L259.615 175.154L259.827 174.864C259.864 174.813 263.664 169.751 272.011 170.069C273.354 170.121 274.541 171.011 274.965 172.283C275.511 173.919 274.669 175.725 273.088 176.308M275.914 171.967C275.359 170.302 273.806 169.138 272.049 169.07C264.245 168.767 260.208 172.856 259.244 173.994C254.195 172.523 249.949 173.966 248.191 174.751C248.358 172.553 248.163 167.032 242.884 162.519C242.097 161.847 241.705 160.758 241.859 159.678C242.137 157.741 242.188 154.881 240.849 152.261C240.536 151.648 240.495 150.959 240.735 150.371C241.37 148.82 242.071 146.397 241.8 143.665C241.718 142.844 242.067 142.064 242.711 141.63C244.171 140.646 246.035 138.687 246.623 134.946C246.828 133.645 246.264 132.307 245.187 131.536C244.153 130.796 242.842 130.681 241.742 131.157C241.798 129.83 241.172 128.524 240.076 127.738C238.463 126.583 236.213 126.806 234.843 128.256C234.094 129.049 233.377 129.881 232.71 130.732C232.481 129.912 231.979 129.177 231.269 128.668C229.739 127.573 227.624 127.759 226.351 129.1C218.295 137.594 216.858 147.654 216.99 154.31C216.965 154.259 216.94 154.208 216.914 154.157C216.647 153.628 216.57 153.009 216.699 152.414C217.019 150.928 217.432 147.965 216.599 144.826C216.36 143.927 216.571 143 217.148 142.408C218.412 141.111 219.899 138.71 219.802 134.635C219.769 133.21 218.992 131.925 217.775 131.28C216.162 130.425 214.225 130.944 213.27 132.489C204.283 147.02 209.903 163.073 210.551 164.8C210.177 166.479 207.463 179.936 215.051 185.644L212.198 193.151L218.149 203.431L239.8 196.574C249.734 196.374 255.327 191.174 260.736 186.144C264.429 182.711 268.247 179.161 273.434 177.246C275.516 176.478 276.629 174.11 275.914 171.967" fill="#350E27"/><path id="Fill 69" fill-rule="evenodd" clip-rule="evenodd" d="M361.062 307.58C361.062 278.541 337.521 255.001 308.483 255.001C285.475 255.001 265.918 269.78 258.788 290.362C256.919 295.757 255.904 301.55 255.904 307.58C255.904 326.652 266.059 343.353 281.257 352.57C281.811 352.906 282.372 353.232 282.94 353.549C290.502 357.76 299.213 360.159 308.483 360.159C337.521 360.159 361.062 336.619 361.062 307.58" fill="white"/><path id="Fill 70" fill-rule="evenodd" clip-rule="evenodd" d="M308.483 255.501C286.298 255.501 266.518 269.576 259.261 290.525C257.365 295.997 256.404 301.735 256.404 307.58C256.404 325.947 265.792 342.606 281.516 352.142C282.066 352.475 282.621 352.798 283.183 353.111C290.875 357.395 299.623 359.659 308.483 359.659C337.199 359.659 360.562 336.296 360.562 307.58C360.562 278.863 337.199 255.501 308.483 255.501M308.483 360.659C299.453 360.659 290.537 358.351 282.697 353.985C282.123 353.666 281.557 353.336 280.998 352.997C264.972 343.278 255.404 326.299 255.404 307.58C255.404 301.623 256.384 295.775 258.316 290.198C265.712 268.847 285.873 254.501 308.483 254.501C337.751 254.501 361.562 278.312 361.562 307.58C361.562 336.848 337.751 360.659 308.483 360.659" fill="#350E27"/><path id="41:16810" fill-rule="evenodd" clip-rule="evenodd" d="M204.855 289.296L239.718 196.075L215.655 185.464C110.129 288.536 150.93 358.129 279.824 352.633L281.257 352.569C266.059 343.353 255.904 326.652 255.904 307.58C255.904 301.549 256.919 295.756 258.788 290.362L209.071 277.548" fill="#E9553B"/><path id="Fill 72" fill-rule="evenodd" clip-rule="evenodd" d="M160.112 309.154C146.658 278.041 166.424 234.331 215.763 186.058L221.279 188.49C188.634 234.862 170.51 268.716 180.838 294.028C189.258 314.662 215.871 328.465 264.578 337.459C268.497 343.202 273.562 348.213 279.632 352.142C216.628 354.798 173.074 339.131 160.112 309.154V309.154ZM205.14 287.106C203.699 285.3 202.544 283.388 201.65 281.353C194.648 265.406 202.817 241.468 231.774 193.119L239.085 196.342L205.14 287.106ZM258.141 290.712C256.325 296.134 255.404 301.806 255.404 307.58C255.404 307.971 255.432 308.357 255.441 308.747C228.925 303.238 213.65 296.952 205.877 287.993L209.544 278.187L258.141 290.712ZM263.794 336.293C216.074 327.363 189.987 313.802 181.764 293.65C171.596 268.729 189.689 235.082 222.212 188.902L230.852 192.712C201.754 241.313 193.587 265.477 200.735 281.755C201.74 284.045 203.066 286.179 204.737 288.186L204.387 289.121L205.323 289.472L205.483 289.047C213.544 297.999 228.993 304.292 255.472 309.776C255.86 319.397 258.77 328.489 263.794 336.293V336.293ZM281.516 352.142C265.792 342.607 256.404 325.947 256.404 307.58C256.404 301.736 257.365 295.998 259.261 290.526L259.438 290.014L209.896 277.245L240.352 195.808L215.548 184.871L215.306 185.107C165.47 233.784 145.542 277.979 159.194 309.55C165.731 324.667 179.503 336.155 200.129 343.695C217.859 350.175 239.877 353.442 265.737 353.442C270.319 353.442 275.026 353.339 279.846 353.133L282.924 352.996L281.516 352.142Z" fill="#350E27"/><path id="Fill 73" fill-rule="evenodd" clip-rule="evenodd" d="M228.8 181.627L214.22 177.109C201.989 173.318 194.86 160.308 198.771 148.115C206.779 123.146 237.232 129.675 248.944 147.627C264.403 171.325 263.315 187.586 249.902 184.461L249.773 184.431C246.98 178.205 235.219 176.942 228.966 181.676L228.8 181.627Z" fill="#3F88EB"/><path id="Fill 74" fill-rule="evenodd" clip-rule="evenodd" d="M239.616 160.322L240.06 166.24C240.081 166.523 240.232 166.769 240.473 166.916C240.715 167.062 241.002 167.083 241.263 166.973L244.744 165.49C245.003 165.38 245.187 165.158 245.249 164.884C245.311 164.609 245.24 164.33 245.053 164.119L241.129 159.683C240.825 159.341 240.421 159.342 240.143 159.459C239.866 159.576 239.582 159.864 239.616 160.322ZM240.921 168.045C240.585 168.045 240.253 167.952 239.953 167.77C239.433 167.453 239.108 166.923 239.063 166.315L238.619 160.397C238.558 159.585 239.004 158.855 239.754 158.538C240.505 158.22 241.338 158.41 241.878 159.02L245.802 163.457C246.204 163.911 246.359 164.511 246.225 165.104C246.091 165.696 245.694 166.172 245.136 166.41L241.655 167.893C241.417 167.994 241.168 168.045 240.921 168.045V168.045Z" fill="#350E27"/><path id="Fill 75" fill-rule="evenodd" clip-rule="evenodd" d="M233.425 173.989L231.705 169.459C229.521 170.78 226.955 170.795 225.013 169.454C223.09 168.126 222.314 165.77 222.988 163.306L223.953 163.571C223.385 165.643 223.994 167.535 225.582 168.632C227.331 169.84 229.714 169.705 231.655 168.292L232.185 167.906L234.36 173.635L233.425 173.989Z" fill="#350E27"/><path id="Fill 76" fill-rule="evenodd" clip-rule="evenodd" d="M251.934 170.64L250.36 165.394L250.878 165.273C250.902 165.267 253.298 164.685 254.37 162.725C255.048 161.485 255.068 159.936 254.428 158.122L255.372 157.79C256.111 159.888 256.067 161.713 255.242 163.214C254.271 164.981 252.49 165.789 251.614 166.094L252.892 170.353L251.934 170.64Z" fill="#350E27"/><path id="Fill 77" fill-rule="evenodd" clip-rule="evenodd" d="M225.476 157.407L225.286 156.426L231.845 155.16L222.999 152.64L223.273 151.678L233.668 154.639C233.944 154.718 234.127 154.973 234.114 155.26C234.101 155.546 233.896 155.783 233.614 155.837L225.476 157.407Z" fill="#350E27"/><path id="Fill 78" fill-rule="evenodd" clip-rule="evenodd" d="M242.268 153.97L241.924 153.728C241.746 153.566 241.686 153.316 241.771 153.091L243.826 147.629L244.762 147.982L243.075 152.463L246.321 150.879L246.759 151.777L242.268 153.97Z" fill="#350E27"/><path id="Fill 79" fill-rule="evenodd" clip-rule="evenodd" d="M226.343 185.67L225.432 185.258C226.132 183.711 227.219 182.371 228.664 181.277C232.248 178.565 237.98 177.594 242.922 178.859C246.491 179.773 249.087 181.679 250.229 184.226C250.39 184.584 250.522 184.957 250.623 185.336L249.656 185.592C249.57 185.266 249.455 184.944 249.317 184.635C248.301 182.372 245.943 180.665 242.674 179.828C238.011 178.635 232.622 179.537 229.268 182.075C227.957 183.066 226.973 184.276 226.343 185.67" fill="#350E27"/></g></g></svg>