<svg width="532.6650000000001px" height="648.7414187643019px" viewBox="144.17999999999995 51.659038901601775 532.6650000000001 648.7414187643019" fill="none" xmlns="http://www.w3.org/2000/svg"><g id="Hobbies Outlines/Drawing"><g id="Outlines"><path id="Fill 1" fill-rule="evenodd" clip-rule="evenodd" d="M558.213 418.307C505.506 401.955 308.858 404.564 256.63 422.452C256.613 422.457 256.595 422.464 256.578 422.471C255.815 422.733 255.086 422.998 254.386 423.267C254.366 423.274 254.346 423.282 254.326 423.288C254.294 423.301 254.261 423.313 254.228 423.325C254.228 423.325 254.228 423.326 254.227 423.326C248.449 425.558 242.82 427.949 237.379 430.423C236.786 430.707 236.194 430.998 235.603 431.291C235.454 431.366 235.305 431.441 235.155 431.515C234.699 431.743 234.244 431.974 233.79 432.206C233.628 432.289 233.465 432.373 233.303 432.456C232.793 432.721 232.283 432.988 231.776 433.258C231.695 433.301 231.614 433.343 231.533 433.386C230.937 433.705 230.342 434.029 229.751 434.357C229.64 434.417 229.531 434.48 229.421 434.541C228.948 434.805 228.477 435.071 228.008 435.34C227.843 435.435 227.678 435.53 227.514 435.625C227.078 435.878 226.644 436.133 226.211 436.391C226.062 436.48 225.913 436.568 225.764 436.658C224.625 437.343 223.5 438.046 222.392 438.766C222.244 438.863 222.097 438.96 221.95 439.057C221.54 439.327 221.133 439.598 220.729 439.872C220.565 439.983 220.401 440.094 220.238 440.206C219.814 440.498 219.392 440.793 218.974 441.09C218.859 441.172 218.741 441.252 218.627 441.335C218.096 441.715 217.571 442.1 217.052 442.489C216.959 442.559 216.867 442.63 216.775 442.701C216.353 443.019 215.936 443.34 215.523 443.664C215.37 443.785 215.217 443.907 215.065 444.028C214.701 444.318 214.341 444.61 213.985 444.905C213.84 445.024 213.694 445.144 213.55 445.264C213.101 445.641 212.656 446.021 212.219 446.405C212.185 446.436 212.149 446.465 212.114 446.495C211.643 446.911 211.181 447.332 210.725 447.757C210.599 447.875 210.475 447.994 210.35 448.113C210.02 448.425 209.694 448.74 209.373 449.056C209.23 449.197 209.088 449.337 208.948 449.479C208.625 449.804 208.307 450.132 207.993 450.462C207.883 450.578 207.771 450.694 207.661 450.81C207.247 451.254 206.839 451.702 206.443 452.155C206.378 452.229 206.316 452.305 206.251 452.379C205.922 452.76 205.599 453.143 205.283 453.53C205.164 453.675 205.048 453.821 204.931 453.967C204.667 454.298 204.407 454.631 204.153 454.967C204.04 455.117 203.927 455.265 203.816 455.415C203.523 455.813 203.237 456.213 202.958 456.617C202.903 456.696 202.846 456.774 202.792 456.854C202.464 457.334 202.149 457.821 201.843 458.311C201.761 458.444 201.683 458.578 201.602 458.711C201.38 459.076 201.164 459.442 200.955 459.811C200.861 459.978 200.769 460.145 200.677 460.313C200.479 460.676 200.287 461.042 200.102 461.41C200.026 461.559 199.949 461.706 199.876 461.857C199.626 462.368 199.386 462.883 199.162 463.403C199.138 463.458 199.117 463.515 199.094 463.57C198.895 464.036 198.708 464.507 198.53 464.981C198.467 465.149 198.409 465.318 198.349 465.486C198.214 465.862 198.087 466.24 197.966 466.62C197.909 466.799 197.853 466.978 197.799 467.158C197.672 467.583 197.555 468.012 197.445 468.444C197.414 468.565 197.38 468.685 197.35 468.807C197.217 469.356 197.099 469.911 196.995 470.469C196.969 470.61 196.948 470.752 196.924 470.894C196.851 471.319 196.785 471.746 196.729 472.177C196.704 472.368 196.682 472.559 196.66 472.751C196.615 473.159 196.578 473.569 196.548 473.98C196.536 474.159 196.521 474.335 196.51 474.515C196.478 475.097 196.457 475.684 196.457 476.276C196.457 510.3 258.555 539.177 344.728 549.417C366.422 551.994 389.644 553.391 413.783 553.391C433.254 553.391 452.126 552.483 470.081 550.779C562.817 541.978 631.109 511.956 631.109 476.276C631.109 443.723 581.793 425.28 558.213 418.307" fill="#3F88EB"/><path id="Fill 3" fill-rule="evenodd" clip-rule="evenodd" d="M212.114 446.495L212.445 446.87C211.977 447.283 211.519 447.701 211.066 448.122L210.694 448.475C210.366 448.785 210.043 449.098 209.723 449.412L209.303 449.831C208.982 450.153 208.667 450.478 208.356 450.807L208.026 451.152C207.616 451.591 207.212 452.034 206.82 452.483L206.628 452.708C206.303 453.083 205.983 453.463 205.67 453.846L205.322 454.278C205.06 454.606 204.803 454.935 204.552 455.268L204.218 455.713C203.928 456.105 203.645 456.501 203.369 456.9L203.206 457.134C202.881 457.61 202.57 458.091 202.268 458.575L202.03 458.97C201.81 459.331 201.597 459.692 201.39 460.057L201.116 460.553C200.92 460.91 200.731 461.272 200.548 461.635L200.325 462.075C200.079 462.58 199.843 463.088 199.621 463.6L199.553 463.766C199.358 464.225 199.174 464.689 198.999 465.155L198.82 465.653C198.688 466.023 198.562 466.395 198.443 466.771C198.386 466.948 198.331 467.124 198.278 467.301C198.153 467.72 198.038 468.141 197.929 468.566L197.836 468.925C197.705 469.465 197.589 470.011 197.487 470.56L197.417 470.978C197.344 471.396 197.28 471.817 197.224 472.241C197.2 472.429 197.178 472.617 197.157 472.807C197.113 473.207 197.076 473.611 197.047 474.016L197.01 474.543C196.978 475.115 196.957 475.693 196.957 476.275C196.957 509.22 256.365 538.413 344.787 548.921C366.964 551.555 390.177 552.891 413.783 552.891C432.861 552.891 451.786 552.013 470.034 550.28C564.578 541.308 630.61 510.876 630.61 476.275C630.61 443.747 579.881 425.235 558.072 418.786L558.065 418.784C505.594 402.505 308.5 405.214 256.792 422.924C255.983 423.203 255.26 423.467 254.565 423.733L254.397 423.795C248.94 425.904 243.28 428.289 237.586 430.878C237.005 431.157 236.415 431.447 235.825 431.739L235.378 431.963C234.924 432.188 234.47 432.42 234.018 432.651L233.531 432.901C233.025 433.164 232.517 433.43 232.01 433.699L231.769 433.827C231.175 434.144 230.583 434.467 229.993 434.794L229.664 434.977C229.194 435.24 228.724 435.505 228.257 435.773L227.765 436.057C227.33 436.309 226.898 436.563 226.467 436.82L226.022 437.085C224.884 437.77 223.755 438.476 222.665 439.184L222.224 439.474C221.817 439.742 221.412 440.013 221.01 440.286L220.522 440.618C220.099 440.908 219.679 441.202 219.263 441.498L218.92 441.74C218.39 442.119 217.868 442.502 217.352 442.889L217.077 443.099C216.657 443.416 216.242 443.735 215.832 444.057L215.376 444.419C215.015 444.706 214.658 444.996 214.304 445.289L213.87 445.647C213.425 446.021 212.984 446.398 212.55 446.78L212.114 446.495ZM413.783 553.891C390.138 553.891 366.884 552.553 344.669 549.913C255.72 539.344 195.957 509.75 195.957 476.275C195.957 475.674 195.978 475.078 196.011 474.487L196.05 473.944C196.08 473.525 196.117 473.109 196.163 472.695C196.185 472.5 196.208 472.306 196.233 472.112C196.29 471.675 196.357 471.24 196.431 470.808L196.503 470.378C196.609 469.809 196.729 469.246 196.864 468.689L196.96 468.32C197.072 467.882 197.191 467.446 197.32 467.015C197.375 466.831 197.432 466.649 197.49 466.468C197.613 466.082 197.741 465.699 197.878 465.317L198.062 464.805C198.242 464.324 198.432 463.847 198.634 463.373L198.702 463.205C198.93 462.678 199.174 462.154 199.426 461.637L199.655 461.184C199.843 460.811 200.037 460.44 200.238 460.073L200.52 459.564C200.732 459.19 200.95 458.819 201.175 458.451L201.419 458.047C201.728 457.55 202.047 457.058 202.379 456.572L202.547 456.332C202.829 455.925 203.117 455.519 203.413 455.118L203.695 454.744C204.011 454.326 204.273 453.989 204.541 453.654L204.895 453.213C205.215 452.822 205.541 452.436 205.873 452.052L206.067 451.825C206.467 451.368 206.878 450.917 207.296 450.469L207.631 450.117C207.947 449.785 208.267 449.454 208.593 449.126L209.022 448.699C209.345 448.381 209.674 448.063 210.007 447.749L210.384 447.391C210.843 446.963 211.308 446.539 211.783 446.12L211.889 446.028C212.329 445.642 212.777 445.26 213.229 444.881L213.668 444.517C214.025 444.223 214.387 443.929 214.754 443.637L215.215 443.27C215.63 442.944 216.05 442.621 216.473 442.301L216.751 442.089C217.274 441.697 217.802 441.31 218.336 440.929L218.684 440.683C219.105 440.384 219.529 440.088 219.955 439.794L220.45 439.457C220.855 439.183 221.263 438.91 221.675 438.639L222.119 438.347C223.219 437.632 224.359 436.919 225.506 436.228L225.955 435.961C226.389 435.702 226.825 435.446 227.263 435.192L227.759 434.906C228.23 434.636 228.702 434.369 229.177 434.104L229.51 433.918C230.102 433.59 230.698 433.266 231.298 432.945L231.54 432.816C232.05 432.545 232.561 432.277 233.073 432.012L233.563 431.761C234.018 431.527 234.475 431.296 234.932 431.067L235.381 430.843C235.974 430.549 236.568 430.257 237.162 429.972C242.885 427.369 248.563 424.977 254.047 422.858L254.161 422.816C254.912 422.529 255.647 422.262 256.416 421.998C308.282 404.232 505.783 401.516 558.362 417.829C580.391 424.344 631.61 443.077 631.61 476.275C631.61 511.412 565.206 542.253 470.128 551.276C451.849 553.011 432.892 553.891 413.783 553.891V553.891Z" fill="#350E27"/><path id="Fill 5" fill-rule="evenodd" clip-rule="evenodd" d="M469.939 485.9L468.943 485.806C469.793 476.833 475.213 468.272 483.439 462.908C502.667 450.372 521.254 459.535 521.44 459.629L520.989 460.521C520.808 460.428 502.714 451.531 483.986 463.746C476.012 468.945 470.761 477.227 469.939 485.9" fill="#350E27"/><path id="Fill 7" fill-rule="evenodd" clip-rule="evenodd" d="M503.397 457.029L502.465 456.668C505.892 447.842 513.905 440.342 524.448 436.087C538.091 430.58 553.528 431.212 567.91 437.863L567.49 438.771C553.361 432.235 538.207 431.612 524.822 437.014C514.534 441.166 506.725 448.461 503.397 457.029" fill="#350E27"/><path id="Fill 9" fill-rule="evenodd" clip-rule="evenodd" d="M293.819 460.521L293.367 459.628C293.64 459.491 300.102 456.272 309.449 456.272H309.635L309.63 457.272H309.454C300.353 457.272 293.884 460.488 293.819 460.521" fill="#350E27"/><path id="Fill 11" fill-rule="evenodd" clip-rule="evenodd" d="M474.968 471.744L446.744 455.222L447.25 454.358L475.474 470.881L474.968 471.744Z" fill="#350E27"/><path id="Fill 13" fill-rule="evenodd" clip-rule="evenodd" d="M477.836 468.126L466.383 453.915L467.162 453.288L478.615 467.499L477.836 468.126Z" fill="#350E27"/><path id="Fill 15" fill-rule="evenodd" clip-rule="evenodd" d="M469.928 509.837L468.955 509.607C473.099 492.074 490.795 487.662 490.973 487.619L491.205 488.592C491.033 488.633 473.928 492.914 469.928 509.837" fill="#350E27"/><path id="Fill 17" fill-rule="evenodd" clip-rule="evenodd" d="M469.924 519.608L468.959 519.342C472.054 508.127 480.534 505.283 480.894 505.168L481.2 506.119C481.117 506.146 472.867 508.935 469.924 519.608" fill="#350E27"/><path id="Fill 19" fill-rule="evenodd" clip-rule="evenodd" d="M472.744 542.767C471.864 542.767 470.962 542.726 470.043 542.634L470.142 541.64C478.568 542.476 485.81 538.812 485.883 538.775L486.342 539.663C486.068 539.804 480.223 542.767 472.744 542.767" fill="#350E27"/><path id="Fill 21" fill-rule="evenodd" clip-rule="evenodd" d="M469.744 537.271C468.864 537.271 467.962 537.23 467.043 537.138L467.142 536.144C475.571 536.981 482.81 533.315 482.883 533.279L483.342 534.167C483.068 534.308 477.223 537.271 469.744 537.271" fill="#350E27"/><path id="Fill 23" fill-rule="evenodd" clip-rule="evenodd" d="M293.537 462.243C293.43 459.655 292.1 457.421 289.794 455.949C287.14 454.258 283.618 453.841 281.028 454.916L280.644 453.992C283.521 452.797 287.414 453.245 290.332 455.106C292.922 456.758 294.415 459.278 294.536 462.202L293.537 462.243Z" fill="#350E27"/><path id="Fill 25" fill-rule="evenodd" clip-rule="evenodd" d="M430.134 487.651C412.729 482.813 403.94 463.45 403.853 463.255L404.767 462.848C404.851 463.039 413.457 481.977 430.402 486.688L430.134 487.651Z" fill="#350E27"/><path id="Fill 27" fill-rule="evenodd" clip-rule="evenodd" d="M392.935 487.184L392.569 486.252C397.412 484.349 399.91 477.686 399.935 477.619L400.873 477.963C400.767 478.254 398.199 485.115 392.935 487.184" fill="#350E27"/><path id="Fill 29" fill-rule="evenodd" clip-rule="evenodd" d="M386.348 487.615L385.894 486.724C385.942 486.7 390.735 484.225 391.61 481.25L392.569 481.533C391.572 484.921 386.561 487.507 386.348 487.615" fill="#350E27"/><path id="Fill 31" fill-rule="evenodd" clip-rule="evenodd" d="M604.048 507.114C602.353 507.114 588.451 506.799 581.252 496.811L582.063 496.227C589.387 506.386 604.046 506.109 604.191 506.113L604.218 507.113C604.209 507.113 604.151 507.114 604.048 507.114" fill="#350E27"/><path id="Fill 33" fill-rule="evenodd" clip-rule="evenodd" d="M612.549 444.701C612.472 444.639 604.85 438.419 594.759 441.698L594.45 440.747C605.077 437.291 613.111 443.867 613.19 443.933L612.549 444.701Z" fill="#350E27"/><path id="Fill 35" fill-rule="evenodd" clip-rule="evenodd" d="M205.584 453.929L204.981 453.13C205.085 453.053 215.473 445.401 230.687 449.296L230.438 450.265C215.684 446.486 205.683 453.854 205.584 453.929" fill="#350E27"/><path id="Fill 37" fill-rule="evenodd" clip-rule="evenodd" d="M219.81 493.032C215.399 493.032 211.917 491.63 211.68 491.531L212.061 490.607C212.152 490.644 221.325 494.329 228.561 489.572L229.11 490.408C226.051 492.418 222.727 493.032 219.81 493.032" fill="#350E27"/><path id="41:16992" fill-rule="evenodd" clip-rule="evenodd" d="M256.578 422.47C256.596 422.463 256.613 422.456 256.63 422.45C308.858 404.563 505.506 401.954 558.213 418.306C550.926 416.152 545.942 409.434 545.942 401.834C545.942 395.934 548.953 390.432 553.954 387.3C563.912 381.065 579.574 368.979 579.574 354.633C579.574 337.037 559.715 321.165 527.874 309.943C517.957 306.448 511.299 297.102 511.3 286.587C511.3 279.429 514.454 272.683 519.799 267.923C529.867 258.958 535.616 248.588 535.616 237.538C535.616 203.529 481.155 175.959 413.973 175.959H413.594C346.413 175.959 291.952 203.529 291.952 237.538C291.952 248.588 297.702 258.958 307.768 267.923C313.113 272.683 316.268 279.429 316.268 286.587C316.268 297.102 309.611 306.448 299.693 309.943C267.852 321.165 247.995 337.037 247.995 354.633C247.995 368.979 263.655 381.065 273.613 387.3C278.614 390.432 281.626 395.934 281.626 401.834C281.626 409.434 276.642 416.152 269.354 418.306C265.051 419.578 259.888 421.236 254.327 423.287C254.346 423.281 254.366 423.273 254.386 423.266C255.086 422.997 255.815 422.732 256.578 422.47" fill="#E9553B"/><path id="Fill 41" fill-rule="evenodd" clip-rule="evenodd" d="M413.594 176.459C346.796 176.459 292.452 203.859 292.452 237.538C292.452 248.055 297.863 258.433 308.1 267.55C313.609 272.456 316.768 279.395 316.768 286.587C316.768 297.275 309.973 306.851 299.859 310.415C267.216 321.919 248.494 338.036 248.494 354.633C248.494 368.858 264.398 380.941 273.878 386.876C279.043 390.111 282.126 395.703 282.126 401.834C282.126 408.839 277.918 415.187 271.654 417.988C336.84 404.394 498.565 402.917 553.042 416.362C548.398 413.115 545.442 407.706 545.442 401.834C545.442 395.703 548.525 390.111 553.689 386.876C563.169 380.94 579.073 368.857 579.073 354.633C579.073 338.036 560.352 321.919 527.708 310.415C517.594 306.85 510.799 297.274 510.8 286.587C510.8 279.394 513.959 272.456 519.466 267.55C529.704 258.433 535.115 248.055 535.115 237.538C535.115 203.859 480.771 176.459 413.973 176.459H413.594ZM254.499 423.756L254.154 422.819C254.158 422.817 254.162 422.815 254.167 422.814C254.913 422.529 255.642 422.262 256.406 422.001L256.468 421.978C256.487 421.971 256.51 421.963 256.529 421.957C260.672 420.48 264.928 419.093 269.212 417.827C276.227 415.753 281.126 409.177 281.126 401.834C281.126 396.049 278.218 390.774 273.347 387.724C263.692 381.678 247.494 369.34 247.494 354.633C247.494 337.335 265.973 321.297 299.527 309.472C309.241 306.048 315.768 296.852 315.768 286.587C315.768 279.68 312.731 273.013 307.435 268.297C296.979 258.984 291.452 248.348 291.452 237.538C291.452 203.308 346.244 175.459 413.594 175.459H413.973C481.323 175.459 536.115 203.308 536.115 237.538C536.115 248.349 530.588 258.985 520.132 268.297C514.837 273.013 511.8 279.679 511.8 286.587C511.799 296.851 518.325 306.048 528.04 309.472C561.594 321.297 580.073 337.336 580.073 354.633C580.073 369.339 563.875 381.678 554.22 387.724C549.349 390.774 546.442 396.049 546.442 401.834C546.442 409.057 551.182 415.539 558.013 417.721C558.13 417.757 558.245 417.792 558.362 417.829L558.072 418.786C557.952 418.751 557.833 418.713 557.715 418.676C504.749 402.522 308.555 405.25 256.86 422.901C256.1 423.171 255.344 423.445 254.593 423.722C254.584 423.726 254.574 423.729 254.565 423.733V423.733C254.543 423.741 254.521 423.749 254.499 423.756V423.756Z" fill="#350E27"/><path id="Fill 43" fill-rule="evenodd" clip-rule="evenodd" d="M380.624 304.818C377.351 304.818 374.203 303.639 371.507 301.323C361.924 293.091 360.29 274.223 367.134 250.851L368.094 251.132C360.168 278.196 364.997 294.412 372.158 300.564C376.283 304.108 381.55 304.787 386.603 302.429C395.46 298.299 404.814 284.311 404.504 257.439L405.504 257.427C405.819 284.776 396.166 299.074 387.025 303.336C384.898 304.328 382.735 304.818 380.624 304.818" fill="#350E27"/><path id="Fill 45" fill-rule="evenodd" clip-rule="evenodd" d="M407.405 485.854V604.423C407.405 604.423 376.068 599.764 372.178 551.98L372.005 551.968C362.686 551.324 353.58 550.469 344.728 549.417V523.206V485.854H365.696H470.22L470.082 550.779C461.18 551.624 452.054 552.273 442.741 552.713L442.569 552.721C438.418 599.812 407.405 604.423 407.405 604.423V485.854" fill="#350E27"/><path id="Fill 47" fill-rule="evenodd" clip-rule="evenodd" d="M437.365 575.786L425.831 568.3L426.376 567.462L437.91 574.948L437.365 575.786Z" fill="white"/><path id="Fill 49" fill-rule="evenodd" clip-rule="evenodd" d="M387.6 567.381C387.6 566.325 388.455 565.47 389.511 565.47C390.566 565.47 391.421 566.325 391.421 567.381C391.421 568.436 390.566 569.291 389.511 569.291C388.455 569.291 387.6 568.436 387.6 567.381" fill="white"/><path id="Fill 51" fill-rule="evenodd" clip-rule="evenodd" d="M426.825 555.727C426.825 554.672 427.68 553.817 428.736 553.817C429.791 553.817 430.646 554.672 430.646 555.727C430.646 556.783 429.791 557.638 428.736 557.638C427.68 557.638 426.825 556.783 426.825 555.727" fill="white"/><path id="Fill 53" fill-rule="evenodd" clip-rule="evenodd" d="M440.739 564.012L429.206 556.525L429.751 555.688L441.284 563.174L440.739 564.012Z" fill="white"/><path id="Fill 55" fill-rule="evenodd" clip-rule="evenodd" d="M423.604 567.376C423.604 566.321 424.459 565.466 425.514 565.466C426.57 565.466 427.425 566.321 427.425 567.376C427.425 568.432 426.57 569.286 425.514 569.286C424.459 569.286 423.604 568.432 423.604 567.376" fill="white"/><path id="Fill 57" fill-rule="evenodd" clip-rule="evenodd" d="M443.066 552.765L442.07 552.677C442.376 549.21 442.529 545.541 442.525 541.772L443.525 541.77C443.529 545.57 443.375 549.269 443.066 552.765" fill="white"/><path id="Fill 59" fill-rule="evenodd" clip-rule="evenodd" d="M414.904 601.829L413.904 602.297V485.853H414.904V601.829Z" fill="white"/><path id="Fill 61" fill-rule="evenodd" clip-rule="evenodd" d="M383.779 555.727C383.779 554.672 384.634 553.817 385.69 553.817C386.745 553.817 387.6 554.672 387.6 555.727C387.6 556.783 386.745 557.638 385.69 557.638C384.634 557.638 383.779 556.783 383.779 555.727" fill="white"/><path id="Fill 63" fill-rule="evenodd" clip-rule="evenodd" d="M374.069 564.012L373.524 563.174L385.057 555.688L385.602 556.525L374.069 564.012Z" fill="white"/><path id="Fill 65" fill-rule="evenodd" clip-rule="evenodd" d="M377.443 575.786L376.898 574.948L388.432 567.462L388.977 568.3L377.443 575.786Z" fill="white"/><path id="Fill 67" fill-rule="evenodd" clip-rule="evenodd" d="M371.679 552.02C371.541 550.326 371.438 548.573 371.373 546.81C371.312 545.171 371.282 543.476 371.283 541.771H372.283C372.282 543.464 372.311 545.147 372.372 546.773C372.437 548.521 372.539 550.259 372.676 551.94L371.679 552.02Z" fill="white"/><path id="Fill 69" fill-rule="evenodd" clip-rule="evenodd" d="M399.904 602.067H400.904V485.853H399.904V602.067Z" fill="white"/><path id="Fill 71" fill-rule="evenodd" clip-rule="evenodd" d="M406.904 604.423H407.904V485.854H406.904V604.423Z" fill="white"/><path id="Fill 72" fill-rule="evenodd" clip-rule="evenodd" d="M312.167 620.833L188.622 553.67L146 632.07L269.545 699.233L312.167 620.833Z" fill="#FDC227"/><path id="Fill 73" fill-rule="evenodd" clip-rule="evenodd" d="M518.309 573.349L448.835 579.273L444.288 673.392L533.214 668.844L518.309 573.349Z" fill="#FDC227"/><path id="Fill 74" fill-rule="evenodd" clip-rule="evenodd" d="M411.446 619.833L355.614 614.603L351.32 672.128H411.446V619.833Z" fill="#FDC227"/><path id="Fill 75" fill-rule="evenodd" clip-rule="evenodd" d="M674.941 620.591L554.688 652.928L542.815 566.777L648.92 532.17L674.941 620.591Z" fill="#FDC227"/><path id="41:17016" fill-rule="evenodd" clip-rule="evenodd" d="M407.067 137.572C388.146 137.572 372.504 151.612 369.989 169.842C369.757 171.529 369.637 173.251 369.637 175.002C369.637 192.8 382.062 207.685 398.709 211.484L398.668 211.486L412.665 227.821C413.574 228.882 415.309 228.385 415.518 227.003L417.97 210.82C432.924 206.273 443.912 192.619 444.474 176.316C444.49 175.88 444.497 175.442 444.497 175.002C444.497 154.33 427.739 137.572 407.067 137.572" fill="#FFDCDB"/><path id="Fill 78" fill-rule="evenodd" clip-rule="evenodd" d="M407.067 138.072C388.715 138.072 372.988 151.76 370.484 169.91C370.254 171.585 370.137 173.299 370.137 175.002C370.137 192.341 381.869 207.128 398.668 210.962L398.957 211.054L413.045 227.495C413.341 227.841 413.78 227.972 414.216 227.847C414.654 227.721 414.956 227.378 415.024 226.928L417.523 210.433L417.825 210.341C432.921 205.751 443.43 192.071 443.974 176.299C443.99 175.868 443.997 175.436 443.997 175.002C443.997 154.639 427.43 138.072 407.067 138.072M413.893 228.893C413.283 228.893 412.7 228.63 412.285 228.146L398.381 211.92C381.18 207.988 369.137 192.804 369.137 175.002C369.137 173.253 369.257 171.494 369.494 169.773C372.065 151.131 388.218 137.072 407.067 137.072C427.981 137.072 444.997 154.088 444.997 175.002C444.997 175.448 444.99 175.892 444.974 176.334C444.419 192.427 433.76 206.401 418.418 211.205L416.012 227.078C415.886 227.913 415.303 228.575 414.492 228.808C414.293 228.865 414.091 228.893 413.893 228.893" fill="#350E27"/><path id="Fill 79" fill-rule="evenodd" clip-rule="evenodd" d="M412.465 172.245L406.643 162.898L407.491 162.37L413.314 171.717L412.465 172.245Z" fill="#350E27"/><path id="Fill 80" fill-rule="evenodd" clip-rule="evenodd" d="M423.652 195.596C420.85 195.596 418.23 194.092 416.815 191.67L417.678 191.165C418.916 193.282 421.205 194.596 423.652 194.596C427.464 194.596 430.565 191.495 430.565 187.683C430.565 186.499 430.261 185.332 429.685 184.306L430.558 183.817C431.216 184.992 431.565 186.328 431.565 187.683C431.565 192.046 428.015 195.596 423.652 195.596" fill="#350E27"/><path id="Fill 81" fill-rule="evenodd" clip-rule="evenodd" d="M427.653 205.847L426.77 205.378C426.77 205.378 429.353 200.355 426.45 194.574L427.344 194.125C430.486 200.384 427.653 205.847 427.653 205.847" fill="#350E27"/><path id="Fill 82" fill-rule="evenodd" clip-rule="evenodd" d="M406.743 204.101C406.743 202.825 405.709 201.791 404.433 201.791C403.158 201.791 402.123 202.825 402.123 204.101C402.123 205.376 403.158 206.411 404.433 206.411C405.709 206.411 406.743 205.376 406.743 204.101" fill="#350E27"/><path id="Stroke 83 (Stroke)" fill-rule="evenodd" clip-rule="evenodd" d="M467.208 289.801C469.807 281.013 469.731 268.145 464.79 251.272L465.749 250.991C470.724 267.976 470.838 281.052 468.167 290.084C465.496 299.116 460.008 304.166 453.784 304.874C447.572 305.581 440.854 301.935 435.771 294.071C430.684 286.201 427.189 274.056 427.379 257.568L428.379 257.58C428.191 273.933 431.66 285.868 436.611 293.529C441.567 301.195 447.962 304.53 453.671 303.881C459.368 303.232 464.609 298.588 467.208 289.801Z" fill="#350E27"/><g id="Group 90"><path id="41:17026" fill-rule="evenodd" clip-rule="evenodd" d="M571.338 56.5042C586.197 64.8342 591.548 83.5042 583.308 98.1842L573.838 115.054L519.157 86.4642L529.527 67.9942C537.768 53.3042 556.487 48.1642 571.338 56.5042" fill="#E9553B"/><path id="Fill 85" fill-rule="evenodd" clip-rule="evenodd" d="M573.838 115.054L564.288 132.074L564.237 132.044L509.608 103.484L519.157 86.4639L573.838 115.054Z" fill="white"/><path id="Fill 86" fill-rule="evenodd" clip-rule="evenodd" d="M564.289 132.074L554.768 149.024L500.158 120.464L500.099 120.424L509.608 103.484L564.238 132.044L564.289 132.074Z" fill="white"/><path id="Fill 87" fill-rule="evenodd" clip-rule="evenodd" d="M500.158 120.464L554.768 149.024L304.759 594.404L250.998 564.154L500.098 120.424L500.158 120.464Z" fill="#FDC227"/><path id="41:17030" fill-rule="evenodd" clip-rule="evenodd" d="M304.758 594.404L301.958 599.394L277.738 614.604L247.788 598.314L248.168 569.204L250.998 564.154L304.758 594.404Z" fill="#FFDCDB"/><path id="Fill 89" fill-rule="evenodd" clip-rule="evenodd" d="M277.738 614.604L247.318 633.704L247.788 598.314L277.738 614.604Z" fill="#350E27"/></g><path id="Fill 91" fill-rule="evenodd" clip-rule="evenodd" d="M248.67 569.339L247.828 632.796L301.585 599.042L582.876 97.9368C586.796 90.9528 587.73 82.8428 585.506 75.0998C583.282 67.3558 578.164 60.9048 571.096 56.9378C564.028 52.9688 555.855 51.9618 548.086 54.0948C540.318 56.2298 533.881 61.2508 529.961 68.2338L248.67 569.339ZM246.804 634.62L247.673 569.071L529.09 67.7448C533.141 60.5268 539.794 55.3368 547.821 53.1308C555.849 50.9248 564.286 51.9688 571.586 56.0658C578.885 60.1628 584.17 66.8248 586.467 74.8238C588.766 82.8258 587.8 91.2078 583.748 98.4258L302.332 599.753L302.224 599.821L246.804 634.62Z" fill="#350E27"/><path id="Fill 92" fill-rule="evenodd" clip-rule="evenodd" d="M573.612 115.493L518.923 86.909L519.385 86.022L574.075 114.606L573.612 115.493Z" fill="#350E27"/><path id="Fill 93" fill-rule="evenodd" clip-rule="evenodd" d="M554.612 149.493L499.923 120.909L500.385 120.022L555.075 148.606L554.612 149.493Z" fill="#350E27"/><path id="Fill 94" fill-rule="evenodd" clip-rule="evenodd" d="M564.012 132.485L509.324 103.901L509.786 103.014L564.475 131.598L564.012 132.485Z" fill="#350E27"/><path id="Fill 95" fill-rule="evenodd" clip-rule="evenodd" d="M277.505 615.042L247.552 598.758L248.03 597.879L277.983 614.163L277.505 615.042Z" fill="#350E27"/><path id="Fill 96" fill-rule="evenodd" clip-rule="evenodd" d="M304.545 594.86L250.76 564.592L251.251 563.721L305.035 593.989L304.545 594.86Z" fill="#350E27"/><path id="Fill 97" fill-rule="evenodd" clip-rule="evenodd" d="M492.927 181.706L492.058 181.21L518.719 134.51L519.588 135.006L492.927 181.706Z" fill="#350E27"/><path id="Fill 98" fill-rule="evenodd" clip-rule="evenodd" d="M409.626 327.612L408.758 327.116L484.368 194.679L485.237 195.175L409.626 327.612Z" fill="#350E27"/><path id="Fill 99" fill-rule="evenodd" clip-rule="evenodd" d="M363.758 407.954L362.89 407.458L375.148 385.987L376.016 386.483L363.758 407.954Z" fill="#350E27"/><path id="Fill 100" fill-rule="evenodd" clip-rule="evenodd" d="M292.476 532.807L291.608 532.311L323.587 476.298L324.455 476.794L292.476 532.807Z" fill="#350E27"/><path id="Fill 101" fill-rule="evenodd" clip-rule="evenodd" d="M282.533 550.223L281.665 549.727L286.751 540.819L287.619 541.315L282.533 550.223Z" fill="#350E27"/><path id="Fill 102" fill-rule="evenodd" clip-rule="evenodd" d="M305.228 557.454L304.353 556.97L310.772 545.348L311.647 545.832L305.228 557.454Z" fill="#350E27"/><path id="Fill 103" fill-rule="evenodd" clip-rule="evenodd" d="M319.519 531.579L318.644 531.095L342.521 487.863L343.396 488.348L319.519 531.579Z" fill="#350E27"/><path id="Fill 104" fill-rule="evenodd" clip-rule="evenodd" d="M373.068 434.623L372.193 434.139L391.079 399.945L391.954 400.43L373.068 434.623Z" fill="#350E27"/><path id="Fill 105" fill-rule="evenodd" clip-rule="evenodd" d="M422.961 344.287L422.086 343.804L431.744 326.317L432.619 326.8L422.961 344.287Z" fill="#350E27"/><path id="Fill 106" fill-rule="evenodd" clip-rule="evenodd" d="M442.481 308.944L441.606 308.461L482.522 234.38L483.397 234.863L442.481 308.944Z" fill="#350E27"/><path id="Fill 107" fill-rule="evenodd" clip-rule="evenodd" d="M509.992 186.711L509.117 186.228L527.06 153.739L527.935 154.222L509.992 186.711Z" fill="#350E27"/><path id="Fill 108" fill-rule="evenodd" clip-rule="evenodd" d="M555.162 149.37L554.291 148.881L573.356 114.917L574.227 115.407L555.162 149.37Z" fill="#350E27"/><path id="Fill 109" fill-rule="evenodd" clip-rule="evenodd" d="M500.474 120.786L499.603 120.297L518.667 86.3325L519.538 86.8215L500.474 120.786Z" fill="#350E27"/><path id="Fill 110" fill-rule="evenodd" clip-rule="evenodd" d="M573.56 115.605L518.871 87.0208L519.333 86.1338L574.023 114.718L573.56 115.605Z" fill="#350E27"/><path id="Fill 111" fill-rule="evenodd" clip-rule="evenodd" d="M554.56 149.605L499.871 121.021L500.333 120.134L555.023 148.718L554.56 149.605Z" fill="#350E27"/><path id="Fill 112" fill-rule="evenodd" clip-rule="evenodd" d="M563.961 132.597L509.273 104.013L509.735 103.126L564.424 131.71L563.961 132.597Z" fill="#350E27"/><path id="41:17056" fill-rule="evenodd" clip-rule="evenodd" d="M571.615 274.233C603.446 254.149 581.215 194.349 525.452 201.254C486.25 206.108 475.554 236.673 490.232 255.791C497.215 264.885 510.225 260.212 510.225 260.212C489.668 268.612 481.426 300.538 499.867 314.906C499.867 314.906 483.553 308.948 475.459 319.186C468.067 328.533 473.215 342.065 473.215 342.065C458.274 329.988 444.133 340.216 439.676 354.51C438.684 357.687 438.938 361.122 440.202 364.199L444.305 374.191L454.983 400.187L460.72 414.158C463.305 420.451 469.875 424.216 476.591 423.129C505.43 418.465 501.51 389.559 501.51 389.559C531.446 410.907 561.573 376.801 540.825 340.517C540.825 340.517 587.97 352.154 598.899 316.927C610.013 281.104 571.615 274.233 571.615 274.233" fill="#E9553B"/><path id="Fill 114" fill-rule="evenodd" clip-rule="evenodd" d="M459.807 337.222C458.231 337.222 456.667 337.453 455.129 337.92C448.483 339.935 442.745 346.349 440.154 354.66C439.227 357.629 439.409 360.95 440.665 364.01L461.184 413.969C463.712 420.123 470.018 423.682 476.511 422.637C504.528 418.106 501.171 390.787 501.015 389.627L500.861 388.483L501.8 389.153C513.967 397.829 527.499 397.817 537.115 389.118C546.931 380.238 552.144 361.319 540.392 340.766L539.812 339.753L540.946 340.033C541.411 340.147 587.759 351.146 598.422 316.78C601.58 306.602 600.985 297.827 596.653 290.701C588.918 277.978 571.701 274.757 571.528 274.726L570.259 274.498L571.349 273.811C584.45 265.545 589.145 249.65 583.311 233.317C576.718 214.859 556.282 197.937 525.514 201.751C506.389 204.119 492.26 213.026 486.751 226.187C482.638 236.014 484.088 246.967 490.629 255.487C497.305 264.182 509.931 259.786 510.057 259.742L510.415 260.675C499.99 264.935 492.15 275.698 490.441 288.095C488.951 298.903 492.498 308.532 500.175 314.513L502.68 316.465L499.696 315.377C499.537 315.319 483.625 309.665 475.852 319.496C468.726 328.508 473.632 341.755 473.683 341.888L474.338 343.616L472.901 342.454C468.614 338.989 464.161 337.222 459.807 337.222M474.245 423.82C468.19 423.82 462.648 420.165 460.258 414.349L439.74 364.39C438.395 361.115 438.203 357.554 439.199 354.362C441.887 345.74 447.88 339.073 454.839 336.963C460.534 335.238 466.53 336.53 472.26 340.701C471.167 336.829 469.065 326.466 475.067 318.876C481.463 310.787 492.913 312.558 497.767 313.774C491.049 307.526 488.031 298.254 489.451 287.958C490.994 276.754 497.427 266.841 506.264 261.625C501.733 262.277 494.473 262.135 489.836 256.096C483.074 247.288 481.576 235.963 485.828 225.801C491.48 212.3 505.9 203.172 525.391 200.759C556.725 196.882 577.526 214.147 584.253 232.981C590.1 249.351 585.63 265.31 572.882 274.001C576.983 274.99 590.732 279.043 597.503 290.176C601.994 297.559 602.624 306.61 599.377 317.076C589.372 349.329 549.002 342.701 541.803 341.242C553.118 361.898 547.733 380.861 537.786 389.86C528.035 398.682 514.443 398.924 502.101 390.579C502.446 395.942 502.448 419.455 476.671 423.623C475.858 423.755 475.046 423.82 474.245 423.82" fill="#350E27"/><path id="Fill 115" fill-rule="evenodd" clip-rule="evenodd" d="M498.067 409.885L497.196 409.393C502.378 400.228 501.028 389.732 501.014 389.627L500.859 388.482L501.799 389.153C513.966 397.829 527.499 397.817 537.114 389.118C546.93 380.238 552.143 361.319 540.391 340.766L539.811 339.753L540.945 340.032C541.122 340.076 558.844 344.345 574.796 339.632L575.079 340.591C561.166 344.703 545.96 342.096 541.804 341.244C553.118 361.9 547.732 380.861 537.785 389.86C528.035 398.682 514.443 398.925 502.103 390.581C502.304 393.569 502.421 402.183 498.067 409.885" fill="#350E27"/><path id="Fill 116" fill-rule="evenodd" clip-rule="evenodd" d="M457.807 407.552L457.477 406.609L477.543 399.61L477.873 400.553L457.807 407.552Z" fill="#350E27"/><path id="Fill 117" fill-rule="evenodd" clip-rule="evenodd" d="M450.501 387.864L450.171 386.921L470.238 379.922L470.568 380.865L450.501 387.864Z" fill="#350E27"/><path id="Fill 118" fill-rule="evenodd" clip-rule="evenodd" d="M442.601 370.965L442.271 370.021L462.337 363.023L462.667 363.967L442.601 370.965Z" fill="#350E27"/><path id="41:17064" fill-rule="evenodd" clip-rule="evenodd" d="M334.685 410.553C354.434 378.819 339.504 360.24 317.531 363.16C317.531 363.16 325.962 358.328 325.962 348.002C325.962 336.718 311.847 329.623 311.847 329.623C352.205 328.391 357.488 298.878 351.067 284.339C342.826 265.676 323.973 264.634 323.973 264.634C363.383 259.802 396.067 171.981 325.205 190.075C268.817 204.474 226.11 243.128 271.11 269.56C271.11 269.56 236.057 264.918 230.657 283.012C225.551 300.123 244.205 308.212 244.205 308.212C199.015 319.202 189.92 370.833 234.92 363.728C234.92 363.728 216.636 383.529 229.932 399.159C243.081 414.619 264.667 401.623 264.667 401.623C235.336 424.82 266.981 463.528 301.629 444.841C306.037 442.463 310.493 439.166 314.878 434.781C323.599 426.06 330.082 417.949 334.685 410.553" fill="#E9553B"/><path id="Fill 120" fill-rule="evenodd" clip-rule="evenodd" d="M264.41 401.194L264.978 402.015C250.542 413.431 252.02 427.516 257.673 436.109C265.364 447.798 282.85 454.402 301.392 444.4C305.945 441.944 310.363 438.589 314.525 434.426C322.807 426.143 329.448 418.022 334.261 410.288L334.685 410.552L334.261 410.288C343.798 394.963 345.973 381.068 340.228 372.168C335.942 365.524 327.479 362.341 317.597 363.655L315.088 363.988L317.282 362.726C317.364 362.679 325.463 357.903 325.463 348.001C325.463 337.151 311.761 330.138 311.622 330.069L309.859 329.183L311.832 329.122C333.558 328.46 343.587 319.641 348.175 312.361C354.153 302.87 353.706 291.549 350.61 284.54C342.585 266.367 324.131 265.142 323.945 265.132L323.912 264.137C341.219 262.015 356.691 243.803 363.029 226.909C368.072 213.468 367.444 201.834 361.307 194.988C354.808 187.74 342.367 186.209 325.328 190.559C285.514 200.726 255.769 221.528 252.994 241.146C251.504 251.679 257.684 261.093 271.364 269.128L273.493 270.379L271.045 270.055C270.698 270.01 236.352 265.676 231.137 283.155C226.214 299.65 244.222 307.673 244.404 307.753L245.77 308.345L244.323 308.697C218.23 315.043 203.317 335.801 206.252 350.462C208.352 360.954 219.04 365.726 234.843 363.234L236.264 363.009L235.288 364.067C235.108 364.262 217.461 383.725 230.313 398.835C243.031 413.787 264.197 401.321 264.41 401.194M283.101 450.301C271.689 450.301 262.074 444.618 256.837 436.658C251.371 428.349 249.636 415.122 261.41 403.797C254.649 406.75 239.621 411.323 229.551 399.483C217.862 385.741 230.175 368.723 233.681 364.415C218.012 366.53 207.43 361.441 205.271 350.658C202.297 335.8 216.949 314.904 242.782 308.057C238.66 305.838 225.79 297.574 230.179 282.869C234.898 267.053 261.022 268.123 268.945 268.826C256.395 260.9 250.546 251.315 252.004 241.006C254.835 220.997 284.885 199.855 325.081 189.59C342.504 185.142 355.287 186.778 362.051 194.32C368.446 201.453 369.143 213.459 363.965 227.26C357.891 243.45 343.517 260.836 327.062 264.597C332.826 265.793 345.267 269.964 351.525 284.136C354.728 291.388 355.196 303.092 349.02 312.893C344.431 320.178 334.581 328.958 313.632 330.049C317.373 332.293 326.463 338.702 326.463 348.001C326.463 355.679 321.862 360.441 319.358 362.464C328.827 361.729 336.846 365.081 341.069 371.625C347.032 380.865 344.86 395.149 335.11 410.817C330.257 418.615 323.569 426.797 315.232 435.133C311.001 439.364 306.505 442.778 301.867 445.281C295.371 448.784 288.995 450.301 283.101 450.301" fill="#350E27"/><path id="Fill 121" fill-rule="evenodd" clip-rule="evenodd" d="M334.704 410.618L319.275 396.004L319.962 395.277L335.391 409.891L334.704 410.618Z" fill="#350E27"/><path id="Fill 122" fill-rule="evenodd" clip-rule="evenodd" d="M323.142 426.086L307.713 411.472L308.4 410.745L323.829 425.359L323.142 426.086Z" fill="#350E27"/><path id="Fill 123" fill-rule="evenodd" clip-rule="evenodd" d="M308.533 440.7L293.103 426.086L293.791 425.359L309.22 439.973L308.533 440.7Z" fill="#350E27"/><path id="41:17071" fill-rule="evenodd" clip-rule="evenodd" d="M395.472 450.704C381.029 438.469 364.899 434.654 364.899 434.654C360.099 426.317 348.351 423.475 348.351 423.475C348.351 423.475 353.657 424.612 357.32 419.938C357.32 419.938 365.452 424.715 373.502 418.178C374.323 417.512 374.737 416.457 374.617 415.407C374.418 413.66 372.822 412.447 371.079 412.677C362.339 413.825 347.436 404.11 334.687 410.553H334.685C330.082 417.949 323.598 426.059 314.878 434.78C310.493 439.166 306.036 442.463 301.629 444.841V444.849C319.098 477.148 353.337 484.968 364.086 486.662C366.027 486.969 367.938 485.979 368.801 484.213C369.861 482.042 369.002 479.422 366.861 478.301L367.042 477.977L366.879 478.309L378.303 483.054C380.803 484.093 383.683 483.063 384.96 480.676C386.169 478.413 385.576 475.604 383.545 474.035C379.862 471.19 375.457 468.561 373.079 467.203L373.126 467.12L385.756 473.374C388.901 474.931 392.711 473.597 394.198 470.417C395.53 467.567 394.541 464.17 391.886 462.483C387.896 459.951 383.712 457.578 379.671 455.438H379.672C379.672 455.438 385.031 457.962 390.873 459.541C393.057 460.131 395.371 459.204 396.55 457.272C397.864 455.119 397.397 452.335 395.472 450.704" fill="#FFDCDB"/><path id="Fill 125" fill-rule="evenodd" clip-rule="evenodd" d="M302.304 445.042C319.806 476.907 354.049 484.573 364.164 486.168C365.901 486.447 367.583 485.568 368.352 483.993C369.295 482.063 368.552 479.771 366.661 478.761L366.195 478.566L366.215 478.526L366.174 478.505L366.607 477.733L367.027 477.954L367.071 477.848L378.495 482.592C380.768 483.538 383.358 482.612 384.519 480.44C385.62 478.381 385.082 475.854 383.24 474.431C379.571 471.598 375.144 468.958 372.831 467.638L372.399 467.391L372.877 466.545L373.348 466.672L385.978 472.926C387.378 473.619 388.961 473.716 390.434 473.199C391.908 472.684 393.084 471.62 393.745 470.205C394.968 467.59 394.053 464.452 391.618 462.905C387.989 460.602 383.89 458.238 379.438 455.88L377.659 454.938L379.887 454.987C380.107 455.09 385.349 457.53 391.004 459.059C392.962 459.589 395.066 458.746 396.123 457.012C397.312 455.063 396.903 452.571 395.149 451.086C380.971 439.074 364.945 435.179 364.784 435.141L364.575 435.091L364.467 434.903C359.827 426.846 348.35 423.989 348.234 423.962L348.456 422.986C348.661 423.03 353.51 423.99 356.927 419.63L357.196 419.287L357.574 419.507C357.893 419.692 365.512 424.021 373.187 417.79C373.865 417.24 374.222 416.349 374.121 415.464C374.041 414.765 373.693 414.143 373.14 413.711C372.575 413.269 371.865 413.074 371.145 413.173C367.791 413.613 363.551 412.5 359.059 411.32C351.454 409.325 342.84 407.066 335.037 410.937C330.187 418.701 323.524 426.842 315.232 435.134C311.135 439.231 306.787 442.563 302.304 445.042M364.8 487.219C364.538 487.219 364.274 487.198 364.008 487.156C353.733 485.536 318.837 477.716 301.189 445.087L301.129 444.976V444.55L301.392 444.4C305.944 441.944 310.363 438.589 314.525 434.427C322.807 426.144 329.448 418.022 334.261 410.288L334.335 410.17L334.46 410.106C342.634 405.978 351.494 408.302 359.313 410.354C363.707 411.506 367.854 412.595 371.014 412.181C372.003 412.054 372.976 412.314 373.756 412.923C374.521 413.521 375.004 414.383 375.114 415.351C375.254 416.571 374.757 417.804 373.818 418.565C366.592 424.434 359.197 421.421 357.452 420.569C355.567 422.802 353.337 423.666 351.544 423.964C355.382 425.388 361.837 428.507 365.225 434.221C367.181 434.726 382.317 438.904 395.796 450.322C397.928 452.129 398.425 455.161 396.977 457.533C395.689 459.643 393.126 460.667 390.743 460.023C389.378 459.654 388.034 459.232 386.778 458.803C388.663 459.897 390.459 460.985 392.154 462.062C395.012 463.876 396.086 467.56 394.651 470.629C393.875 472.289 392.495 473.537 390.765 474.144C389.035 474.75 387.178 474.635 385.534 473.822L381.06 471.606C382.008 472.262 382.951 472.944 383.851 473.64C386.081 475.362 386.733 478.421 385.401 480.911C383.997 483.539 380.862 484.657 378.111 483.516L369.1 479.773C369.897 481.152 370.007 482.885 369.251 484.433C368.406 486.163 366.679 487.219 364.8 487.219" fill="#350E27"/><path id="Fill 126" fill-rule="evenodd" clip-rule="evenodd" d="M366.629 478.744L346.604 468.256L347.067 467.369L367.093 477.857L366.629 478.744Z" fill="#350E27"/><path id="Fill 127" fill-rule="evenodd" clip-rule="evenodd" d="M381.537 457.006C369.378 450.569 356.31 445.086 356.18 445.031L356.566 444.11C356.697 444.164 369.807 449.663 382.005 456.123L381.537 457.006Z" fill="#350E27"/><path id="Fill 128" fill-rule="evenodd" clip-rule="evenodd" d="M361.399 461.871L352.235 457.334L352.679 456.437L361.842 460.975L361.399 461.871Z" fill="#350E27"/><path id="Fill 129" fill-rule="evenodd" clip-rule="evenodd" d="M374.302 468.261L361.399 461.871L361.842 460.975L374.745 467.365L374.302 468.261Z" fill="#350E27"/><path id="41:17079" fill-rule="evenodd" clip-rule="evenodd" d="M439.656 377.318C438.358 368.441 430.373 361.153 429.334 355.337C429.09 353.969 427.795 353.057 426.431 353.325C425.612 353.486 424.918 354.05 424.612 354.827C421.613 362.453 427.154 367.435 427.154 367.435C426.129 368.938 425.824 370.416 425.831 371.665L425.832 371.728C425.859 373.666 426.635 375.035 426.635 375.035C426.635 375.035 425.312 372.866 423.023 370.542L422.981 370.5C420.83 368.325 417.837 366.026 414.26 365.245C414.26 365.245 407.531 354.009 394.864 346.057C393.176 344.998 390.967 345.312 389.659 346.816C388.487 348.166 388.342 350.13 389.308 351.633C391.894 355.656 395.076 359.089 395.076 359.089L394.363 358.392C391.988 356.085 389.448 353.754 386.85 351.574C384.946 349.977 382.15 350.046 380.322 351.73C378.283 353.609 378.189 356.798 380.114 358.794L388.019 366.994L387.992 367.05C386.461 365.631 383.291 362.797 380.144 360.617C378.477 359.463 376.219 359.687 374.805 361.139C373.312 362.672 373.226 365.087 374.605 366.721L380.909 374.19L380.821 374.107C379.46 372.857 377.352 372.869 376.004 374.154C374.88 375.226 374.592 376.902 375.287 378.291C377.643 383.003 383.84 393.807 394.843 402.718C394.843 402.718 402.381 429.746 429.006 425.209C443.532 422.734 447.339 413.018 448.017 405.464C448.087 404.684 448.124 403.926 448.135 403.203L454.984 400.187L444.306 374.191L439.656 377.318Z" fill="#FFDCDB"/><path id="Fill 131" fill-rule="evenodd" clip-rule="evenodd" d="M378.44 373.682C377.686 373.682 376.932 373.96 376.348 374.517C375.38 375.441 375.133 376.868 375.734 378.068C377.89 382.379 384.099 393.374 395.158 402.33L395.282 402.431L395.325 402.584C395.399 402.85 403.049 429.132 428.921 424.716C443.077 422.305 446.848 412.892 447.519 405.42C447.585 404.689 447.624 403.94 447.635 403.196L447.64 402.875L454.336 399.927L444.077 374.949L439.276 378.177L439.161 377.391C438.448 372.514 435.628 368.056 433.139 364.122C431.172 361.012 429.315 358.075 428.841 355.426C428.746 354.888 428.448 354.424 428.003 354.12C427.568 353.822 427.043 353.715 426.528 353.816C425.872 353.945 425.316 354.403 425.077 355.011C422.238 362.23 427.435 367.016 427.488 367.064L427.813 367.356L427.567 367.717C426.739 368.931 426.323 370.259 426.331 371.662C426.357 373.496 427.063 374.778 427.07 374.79L426.208 375.296C426.195 375.275 424.884 373.145 422.667 370.894C419.889 368.086 417.039 366.365 414.153 365.734L413.942 365.688L413.831 365.503C413.764 365.391 407.009 354.273 394.598 346.481C393.104 345.544 391.186 345.823 390.037 347.145C389.015 348.321 388.888 350.056 389.729 351.364C392.259 355.3 395.411 358.715 395.442 358.749L394.726 359.447L394.013 358.75C391.433 356.245 388.915 353.959 386.528 351.958C384.823 350.528 382.301 350.588 380.661 352.098C379.774 352.915 379.267 354.029 379.232 355.234C379.196 356.439 379.637 357.58 380.474 358.448L388.621 366.898L388.175 367.821L387.652 367.418C386.07 365.953 382.955 363.174 379.859 361.029C378.39 360.011 376.415 360.205 375.163 361.489C373.843 362.843 373.768 364.954 374.987 366.4L381.292 373.869L380.567 374.555L380.479 374.472C379.905 373.946 379.173 373.682 378.44 373.682M423.204 426.219C402.104 426.22 395.041 405.058 394.409 403.01C383.274 393.95 377.017 382.87 374.839 378.515C374.041 376.92 374.37 375.022 375.658 373.793C376.583 372.911 377.832 372.556 379.018 372.725L374.223 367.044C372.67 365.204 372.766 362.515 374.447 360.791C376.04 359.155 378.554 358.909 380.428 360.207C380.808 360.47 381.188 360.742 381.565 361.02L379.754 359.142C378.729 358.079 378.189 356.681 378.232 355.204C378.275 353.728 378.898 352.364 379.983 351.363C381.991 349.512 385.081 349.439 387.171 351.192C388.15 352.013 389.151 352.881 390.169 353.793C389.736 353.185 389.304 352.552 388.888 351.905C387.808 350.225 387.97 347.998 389.282 346.489C390.755 344.792 393.215 344.432 395.129 345.635C406.866 353.002 413.628 363.304 414.574 364.805C417.58 365.512 420.527 367.309 423.336 370.149C424.137 370.961 424.819 371.748 425.372 372.435C425.349 372.211 425.336 371.978 425.332 371.736C425.323 370.197 425.721 368.791 426.516 367.5C425.366 366.269 421.479 361.428 424.147 354.644C424.509 353.723 425.348 353.029 426.335 352.835C427.118 352.682 427.911 352.845 428.567 353.294C429.235 353.751 429.682 354.446 429.826 355.25C430.264 357.706 432.072 360.563 433.985 363.587C436.396 367.4 439.114 371.696 440.02 376.471L444.536 373.435L455.631 400.449L448.628 403.533C448.611 404.195 448.573 404.858 448.515 405.509C447.812 413.331 443.872 423.184 429.089 425.703C427.017 426.055 425.055 426.218 423.204 426.219" fill="#350E27"/><path id="Fill 132" fill-rule="evenodd" clip-rule="evenodd" d="M448.635 403.211L447.635 403.195C447.7 399.166 446.969 396.152 446.961 396.122L447.932 395.882C447.963 396.009 448.702 399.044 448.635 403.211" fill="#350E27"/><path id="Fill 133" fill-rule="evenodd" clip-rule="evenodd" d="M393.254 387.131L380.468 374.463L381.172 373.752L393.958 386.42L393.254 387.131Z" fill="#350E27"/><path id="Fill 134" fill-rule="evenodd" clip-rule="evenodd" d="M408.442 374.353C408.38 374.276 402.109 366.611 394.014 358.75L394.711 358.033C402.849 365.936 409.154 373.644 409.217 373.72L408.442 374.353Z" fill="#350E27"/><path id="Fill 135" fill-rule="evenodd" clip-rule="evenodd" d="M400.131 380.277L387.659 367.341L388.379 366.647L400.851 379.584L400.131 380.277Z" fill="#350E27"/><path id="Fill 136" fill-rule="evenodd" clip-rule="evenodd" d="M440.945 382.316L439.959 382.156C440.222 380.524 439.984 379.059 439.21 377.545L440.1 377.09C440.976 378.802 441.245 380.463 440.945 382.316" fill="#350E27"/><path id="Fill 137" fill-rule="evenodd" clip-rule="evenodd" d="M429.611 380.232C428.966 378.532 427.304 376.03 426.053 374.878L426.731 374.142C428.097 375.401 429.845 378.027 430.547 379.878L429.611 380.232Z" fill="#350E27"/><path id="Fill 138" fill-rule="evenodd" clip-rule="evenodd" d="M427.562 367.724L426.746 367.146C426.775 367.105 427.465 366.147 428.971 365.524L429.354 366.448C428.131 366.954 427.567 367.717 427.562 367.724" fill="#350E27"/><path id="Fill 139" fill-rule="evenodd" clip-rule="evenodd" d="M382.62 203.348C374.683 196.496 369.654 186.367 369.636 175.062V175.003C368.373 153.602 377.72 140.692 390.65 131.93C390.69 131.903 390.729 131.876 390.769 131.849C391.994 97.1388 435.246 49.7848 475.109 97.0128C512.499 141.31 443.278 207.16 416.815 160.423C413.559 156.53 407.824 155.87 403.769 158.923C398.946 162.555 398.15 169.487 402.024 174.117L404.013 176.494L382.621 203.347" fill="#3F88EB"/><path id="Fill 140" fill-rule="evenodd" clip-rule="evenodd" d="M481.293 145.132C473.92 162.185 457.805 175.139 442.976 175.934C440.807 176.049 438.375 175.922 435.825 175.346C440.977 174.464 443.541 169.91 443.571 169.855L442.694 169.377C442.662 169.436 439.38 175.321 432.703 174.409L432.701 174.42C431.094 173.822 429.463 173.021 427.842 171.969C427.844 171.969 427.847 171.97 427.85 171.97C435.087 171.97 438.824 164.513 438.864 164.432L437.966 163.992C437.926 164.073 433.905 172.091 426.221 170.828C423.05 168.416 419.959 164.969 417.199 160.102C413.769 156.002 407.74 155.31 403.468 158.523C401.025 160.363 399.487 163.049 399.138 166.088C398.79 169.127 399.678 172.091 401.641 174.437L403.368 176.501L382.556 202.626C374.672 195.627 370.153 185.609 370.135 174.973C369.045 156.508 375.848 142.564 390.93 132.343L390.942 132.335L391.26 132.119L391.261 132.11C392.042 131.549 392.822 130.998 393.59 130.459C398.709 126.864 403.543 123.469 406.457 117.962L405.573 117.494C402.772 122.789 398.033 126.117 393.016 129.64C392.459 130.031 391.893 130.435 391.328 130.836C392.487 111.616 407.184 86.7811 427.851 79.6361C431.233 78.4661 435.156 77.6391 439.485 77.6391C449.591 77.6391 461.909 82.1481 474.728 97.3351C486.172 110.893 488.564 128.315 481.293 145.132M475.491 96.6901C456.815 74.5621 439.098 74.6881 427.524 78.6911C405.497 86.3071 391.086 112.007 390.28 131.576C374.943 142.007 368.027 156.222 369.136 175.063C369.153 186.076 373.949 196.523 382.293 203.726L382.622 203.346L383.013 203.657L404.659 176.485L402.408 173.796C400.623 171.662 399.814 168.965 400.132 166.202C400.449 163.439 401.848 160.995 404.07 159.322C407.916 156.428 413.345 157.053 416.38 160.669C424.416 174.86 435.313 177.348 443.029 176.933C458.217 176.119 474.695 162.911 482.211 145.529C489.639 128.35 487.189 110.549 475.491 96.6901" fill="#350E27"/></g></g></svg>