<svg width="560.7px" height="676.7734553775744px" viewBox="120.14999999999998 23.62700228832955 560.7 676.7734553775744" fill="none" xmlns="http://www.w3.org/2000/svg"><g id="Hobbies Outlines/Gym"><g id="Outlines"><path id="41:17821" fill-rule="evenodd" clip-rule="evenodd" d="M541.004 408.356C550.962 402.121 566.623 390.035 566.623 375.689C566.623 358.093 546.765 342.221 514.924 330.999C505.007 327.504 498.349 318.158 498.35 307.643C498.393 306.343 498.486 305.139 498.628 304.016C499.153 300.531 500.425 297.218 502.324 294.27C510.763 283.836 531.703 288.291 557.028 263.481C588.054 233.087 592.354 193.648 574.679 165.74C574.679 165.74 595.488 162.025 595.488 142.163C595.488 122.109 574.707 118.573 574.707 118.573C593.275 114.531 593.275 87.8785 577.359 84.0885L577.86 83.9065C584.279 81.5625 588.487 75.3835 588.317 68.5525C588.816 68.3935 589.292 68.1835 589.749 67.9285C594.605 65.2275 597.188 57.3835 596.947 50.1575C596.858 47.4735 596.382 44.8755 595.485 42.6575C591.76 33.4365 585.097 39.0885 585.097 39.0885C579.633 31.0365 573.443 36.8055 573.443 36.8055C564.317 27.7835 556.865 37.0995 556.865 37.0995C552.866 29.6845 533.121 28.2885 528.416 50.1575C527.771 53.1565 527.401 56.5815 527.401 60.4995C527.401 63.3355 527.696 65.7885 528.201 67.9285C532 84.0345 548.181 81.8155 548.181 81.8155C526.202 85.8575 524.939 109.983 549.57 116.678C549.57 116.678 527.401 114.215 523.146 131.669C519.267 147.579 537.696 157.983 537.696 157.983C502.142 142.46 493.404 192.118 496.85 220.661C474.584 206.267 439.939 197.015 401.023 197.015H400.644C361.717 197.015 327.063 206.272 304.797 220.674C308.247 192.132 299.512 142.458 263.953 157.983C263.953 157.983 282.382 147.579 278.503 131.669C274.247 114.215 252.079 116.678 252.079 116.678C276.711 109.983 275.447 85.8575 253.468 81.8155C253.468 81.8155 269.649 84.0345 273.448 67.9285C273.953 65.7885 274.247 63.3355 274.247 60.4995C274.247 56.5815 273.878 53.1565 273.233 50.1575C268.528 28.2885 248.783 29.6845 244.784 37.0995C244.784 37.0995 237.332 27.7835 228.205 36.8055C228.205 36.8055 222.016 31.0365 216.553 39.0885C216.553 39.0885 209.889 33.4365 206.163 42.6575C205.267 44.8755 204.79 47.4735 204.701 50.1575C204.462 57.3835 207.044 65.2275 211.9 67.9285C212.357 68.1835 212.834 68.3935 213.332 68.5525C213.162 75.3835 217.37 81.5625 223.789 83.9065L224.289 84.0885C208.374 87.8785 208.374 114.531 226.942 118.573C226.942 118.573 206.16 122.109 206.16 142.163C206.16 162.025 226.971 165.74 226.971 165.74C209.296 193.648 213.595 233.087 244.621 263.481C270.027 288.37 291.02 283.808 299.405 294.371C301.139 297.089 302.341 300.114 302.919 303.296C303.116 304.621 303.247 306.059 303.3 307.643V307.005C303.305 307.218 303.317 307.429 303.317 307.643C303.317 318.158 296.66 327.504 286.743 330.999C254.901 342.221 235.044 358.093 235.044 375.689C235.044 390.035 250.704 402.121 260.663 408.356C265.442 411.349 268.397 416.508 268.65 422.111H533.017C533.27 416.508 536.225 411.349 541.004 408.356" fill="#FFDCDB"/><path id="41:17822" fill-rule="evenodd" clip-rule="evenodd" d="M385.231 656.234C383.562 653.696 381.012 651.599 377.148 650.678V618.972H330.231L351.601 647.836C351.601 647.836 327.291 653.063 311.88 672.558C306.903 678.853 307.15 687.813 312.479 693.813C316.836 698.719 323.691 700.601 329.929 698.566C353.938 690.734 370.672 682.315 379.816 677.124C387.194 672.935 389.892 663.323 385.231 656.234" fill="#FFDCDB"/><path id="Fill 5" fill-rule="evenodd" clip-rule="evenodd" d="M364.67 651.108V630.152H363.67V651.108C363.67 651.41 363.806 651.689 364.043 651.874C364.288 652.065 364.604 652.131 364.909 652.056C368.235 651.221 370.537 653.137 371.346 655.399C372.213 657.823 371.524 661.01 368.029 662.668L368.458 663.572C372.496 661.656 373.274 657.818 372.288 655.062C371.357 652.463 368.575 650.113 364.67 651.108" fill="#350E27"/><path id="Fill 7" fill-rule="evenodd" clip-rule="evenodd" d="M386.639 667.306C385.687 671.259 383.11 674.68 379.569 676.69C369.827 682.221 353.28 690.423 329.774 698.091C324.608 699.776 319.009 698.691 314.844 695.361L335.298 681.79L334.745 680.956L314.054 694.684C313.638 694.304 313.233 693.91 312.853 693.482C310.571 690.912 309.251 687.789 308.9 684.577L326.316 673.023L325.764 672.189L308.819 683.43C308.681 679.723 309.822 675.969 312.272 672.869C326.46 654.92 348.539 649.089 351.397 648.398L356.141 654.797L356.945 654.202L349.954 644.771L331.223 619.473H376.648V651.074L377.033 651.165C380.389 651.965 383.007 653.763 384.813 656.509C386.903 659.687 387.551 663.522 386.639 667.306M385.649 655.96C383.767 653.1 381.077 651.194 377.648 650.289V618.473H329.239L349.076 645.266L349.135 645.346L350.751 647.529C346.525 648.608 325.32 654.75 311.488 672.248C306.349 678.748 306.609 687.957 312.105 694.146C315.398 697.854 320.058 699.877 324.836 699.877C326.59 699.877 328.36 699.605 330.084 699.042C353.669 691.348 370.281 683.113 380.063 677.559C383.843 675.413 386.595 671.761 387.611 667.54C388.589 663.484 387.891 659.371 385.649 655.96" fill="#350E27"/><path id="41:17827" fill-rule="evenodd" clip-rule="evenodd" d="M422.888 656.234C424.557 653.696 427.107 651.599 430.97 650.678V618.972H477.887L456.517 647.836C456.517 647.836 480.828 653.063 496.239 672.558C501.215 678.853 500.968 687.813 495.639 693.813C491.283 698.719 484.427 700.601 478.189 698.566C454.181 690.734 437.447 682.315 428.302 677.124C420.924 672.935 418.226 663.323 422.888 656.234" fill="#FFDCDB"/><path id="Fill 11" fill-rule="evenodd" clip-rule="evenodd" d="M443.453 651.086C439.542 650.109 436.762 652.465 435.832 655.063C434.846 657.818 435.624 661.657 439.662 663.572L440.09 662.668C436.596 661.011 435.906 657.823 436.773 655.399C437.583 653.139 439.885 651.229 443.212 652.057C443.52 652.133 443.833 652.066 444.076 651.875C444.313 651.69 444.449 651.41 444.449 651.108V630.152H443.449L443.453 651.086Z" fill="#350E27"/><g id="Group 15"><path id="Fill 13" fill-rule="evenodd" clip-rule="evenodd" d="M495.265 693.482C494.885 693.91 494.481 694.304 494.065 694.684L473.372 680.957L472.82 681.791L493.275 695.361C489.111 698.691 483.512 699.777 478.344 698.091C454.84 690.424 438.292 682.221 428.549 676.69C425.008 674.679 422.431 671.259 421.479 667.306C420.568 663.521 421.216 659.687 423.306 656.509C425.112 653.764 427.729 651.965 431.086 651.166L431.47 651.074V619.473H476.895L457.388 645.819L451.174 654.202L451.977 654.797L456.721 648.398C459.581 649.09 481.66 654.921 495.846 672.87C498.297 675.969 499.438 679.723 499.299 683.43L482.355 672.189L481.802 673.023L499.218 684.577C498.868 687.79 497.547 690.913 495.265 693.482M496.631 672.249C482.799 654.751 461.593 648.608 457.368 647.529L478.879 618.473H430.47V650.29C427.04 651.194 424.351 653.1 422.47 655.961C420.227 659.371 419.53 663.484 420.507 667.541C421.524 671.761 424.275 675.414 428.055 677.559C437.838 683.113 454.451 691.349 478.034 699.043C479.758 699.605 481.528 699.878 483.283 699.878C488.061 699.878 492.721 697.853 496.013 694.146C501.509 687.958 501.769 678.749 496.631 672.249" fill="#350E27"/></g><path id="Fill 16" fill-rule="evenodd" clip-rule="evenodd" d="M574.59 165.248L573.858 165.379L574.255 166.008C592.933 195.498 585.868 234.527 556.678 263.123C541.697 277.798 528.027 282.254 518.044 285.507C511.006 287.801 505.447 289.613 501.903 293.999C499.936 297.053 498.667 300.397 498.131 303.952C497.986 305.098 497.892 306.334 497.849 307.643C497.848 318.33 504.643 327.906 514.757 331.471C547.401 342.975 566.122 359.092 566.122 375.688C566.122 389.913 550.218 401.996 540.737 407.932C535.986 410.908 532.948 415.995 532.544 421.61H450.122V391.036C450.122 363.858 428.011 341.747 400.832 341.747C373.654 341.747 351.543 363.858 351.543 391.036V421.61H269.121C268.716 415.995 265.679 410.908 260.927 407.932C251.447 401.997 235.543 389.914 235.543 375.688C235.543 359.092 254.265 342.975 286.908 331.471C297.022 327.906 303.817 318.331 303.817 307.643C303.817 307.499 303.812 307.357 303.806 307.215L303.799 306.993H303.773C303.71 305.672 303.589 304.404 303.41 303.206C302.823 299.975 301.617 296.911 299.796 294.06C296.289 289.642 290.691 287.817 283.603 285.507C273.621 282.254 259.95 277.798 244.97 263.123C215.778 234.527 208.715 195.499 227.392 166.008L227.791 165.379L227.058 165.248C226.854 165.211 206.659 161.384 206.659 142.163C206.659 122.774 226.821 119.101 227.025 119.065L229.562 118.632L227.048 118.084C216.905 115.876 213.23 107.256 213.165 100.546C213.101 93.9433 216.551 86.4443 224.404 84.5753L226.023 84.1893L223.959 83.4363C217.937 81.2373 213.943 75.5673 213.84 69.2013C214.381 69.3363 214.908 69.4273 215.402 69.4273C216.476 69.4273 217.422 69.1113 218.166 68.4863C218.953 67.8263 219.429 66.8553 219.546 65.7613C221.305 67.4593 223.209 68.4343 224.977 68.4493C224.991 68.4493 225.004 68.4503 225.018 68.4503C226.236 68.4503 227.915 67.9713 229.325 65.9173C230.471 66.9913 231.698 67.7793 232.944 68.2073C230.874 71.0653 229.755 74.7913 229.884 78.7053L230.883 78.6723C230.724 73.8433 232.557 69.3193 235.786 66.5713C239.067 63.7793 243.647 62.8553 249.034 63.8943C251.302 65.8623 253.099 66.7563 253.14 66.7763L253.574 65.8743C253.481 65.8303 244.229 61.2613 241.409 49.4093C240.76 46.6853 242.333 43.9083 244.989 43.0873L245.294 42.9933C247.771 42.2273 250.45 43.4173 251.658 45.8253C253.623 49.7413 256.904 52.5633 259.544 54.5853L259.848 54.1883L260.328 54.3293L262.726 46.1453L261.766 45.8643L259.575 53.3393C257.134 51.4213 254.288 48.8363 252.552 45.3763C251.124 42.5303 247.946 41.1273 244.998 42.0383L244.694 42.1323C243.738 42.4273 242.903 42.9383 242.22 43.5933C242.875 41.6483 243.751 39.7713 244.843 37.9713L244.866 38.0003L245.223 37.3363C247.018 34.0083 252.031 32.1193 257.141 32.8483C260.818 33.3713 269.7 36.1153 272.743 50.2623C273.409 53.3563 273.746 56.8003 273.746 60.4993C273.746 63.1413 273.482 65.6023 272.96 67.8133C269.313 83.2793 254.181 81.4103 253.535 81.3193L253.377 82.3073C263.002 84.0773 269.424 90.1033 269.74 97.6593C270.084 105.888 263.099 113.164 251.946 116.195L252.133 117.175C252.348 117.15 273.915 114.968 278.016 131.788C281.76 147.14 263.887 157.445 263.706 157.547L264.152 158.441C273.766 154.244 281.994 154.611 288.609 159.533C302.359 169.765 306.956 198.64 304.3 220.614L304.172 221.673L305.068 221.094C328.235 206.109 363.07 197.515 400.643 197.515H401.022C438.582 197.515 473.411 206.104 496.577 221.081L497.473 221.66L497.345 220.601C494.694 198.63 499.292 169.76 513.04 159.532C519.653 154.611 527.882 154.244 537.495 158.441L537.942 157.547C537.76 157.445 519.885 147.151 523.63 131.788C527.733 114.968 549.296 117.15 549.515 117.175L549.7 116.195C538.548 113.164 531.564 105.888 531.907 97.6593C532.223 90.1033 538.646 84.0773 548.271 82.3073L548.112 81.3193C547.469 81.4093 532.335 83.2763 528.687 67.8133C528.165 65.6013 527.901 63.1403 527.901 60.4993C527.901 56.7993 528.238 53.3553 528.904 50.2623C531.947 36.1153 540.829 33.3713 544.507 32.8483C549.611 32.1213 554.63 34.0083 556.424 37.3363L556.782 37.9993L556.805 37.9713C557.897 39.7713 558.773 41.6493 559.427 43.5933C558.744 42.9383 557.909 42.4273 556.953 42.1323L556.649 42.0383C553.701 41.1283 550.523 42.5313 549.095 45.3763C547.36 48.8363 544.513 51.4213 542.071 53.3403L539.88 45.8643L538.921 46.1453L541.319 54.3293L541.799 54.1883L542.103 54.5853C544.742 52.5633 548.025 49.7403 549.989 45.8253C551.197 43.4183 553.873 42.2273 556.354 42.9933L556.658 43.0873C559.314 43.9083 560.886 46.6853 560.238 49.4093C557.423 61.2393 548.166 65.8303 548.073 65.8743L548.507 66.7763C548.549 66.7563 550.346 65.8623 552.613 63.8943C558.003 62.8563 562.581 63.7793 565.861 66.5713C569.09 69.3193 570.923 73.8433 570.764 78.6723L571.764 78.7053C571.893 74.7913 570.774 71.0653 568.703 68.2073C569.949 67.7793 571.176 66.9913 572.321 65.9173C573.733 67.9723 575.411 68.4503 576.629 68.4503C576.643 68.4503 576.656 68.4493 576.67 68.4493C578.438 68.4353 580.341 67.4593 582.102 65.7623C582.218 66.8553 582.694 67.8263 583.481 68.4863C584.226 69.1113 585.171 69.4273 586.245 69.4273C586.738 69.4273 587.267 69.3363 587.807 69.2013C587.704 75.5673 583.71 81.2373 577.689 83.4363L575.622 84.1893L577.242 84.5753C585.096 86.4443 588.546 93.9433 588.483 100.546C588.417 107.256 584.742 115.876 574.6 118.084L572.079 118.633L574.622 119.066C574.826 119.1 594.987 122.756 594.987 142.163C594.987 161.367 574.794 165.211 574.59 165.248V165.248ZM400.332 377.304H376.611V378.304H400.332V403.799H363.443V404.799H400.332V421.61H352.543V391.036C352.543 364.577 373.936 343.03 400.332 342.759V377.304ZM449.122 421.61H401.332V404.799H438.096V403.799H401.332V378.304H425.054V377.304H401.332V342.759C427.729 343.029 449.122 364.577 449.122 391.036V421.61ZM212.142 67.4913C207.298 64.7963 204.983 56.7393 205.2 50.1743C205.29 47.4643 205.783 44.9303 206.626 42.8443C207.743 40.0783 209.226 38.4493 211.031 38.0013C213.125 37.4813 215.146 38.6943 215.908 39.2303C211.436 47.1383 213.158 55.8903 216.321 61.5033C216.995 62.6993 217.743 63.7633 218.532 64.6843C218.696 65.9333 218.339 67.0363 217.524 67.7203C216.575 68.5153 215.147 68.6443 213.499 68.0813L213.483 68.0753C213.03 67.9313 212.579 67.7353 212.142 67.4913V67.4913ZM222.536 35.3403C224.8 35.0803 226.706 36.2803 227.485 36.8653C223.026 41.8523 221.688 49.2043 223.928 56.6693C224.955 60.0883 226.633 63.0723 228.611 65.1983C227.648 66.6863 226.443 67.4503 225.02 67.4503C225.008 67.4503 224.997 67.4493 224.986 67.4493C222.444 67.4283 219.384 64.9013 217.193 61.0123C214.115 55.5523 212.444 46.9983 216.975 39.3563C218.628 36.9243 220.499 35.5733 222.536 35.3403V35.3403ZM242.341 62.6803C241.101 58.6603 240.59 54.7253 240.805 50.9533C242.359 56.3153 245.171 60.1463 247.732 62.6843C245.823 62.4353 244.022 62.4393 242.341 62.6803V62.6803ZM244.167 37.1553C239.486 44.6793 238.514 53.5363 241.344 62.8313C238.984 63.3213 236.893 64.3163 235.138 65.8103C234.589 66.2773 234.092 66.8073 233.62 67.3633C230.062 66.3733 226.577 62.0153 224.886 56.3813C222.691 49.0673 224.065 41.8803 228.563 37.1543C231.259 34.4923 234.052 33.2203 236.881 33.3843C240.636 33.5993 243.393 36.3083 244.167 37.1553V37.1553ZM559.306 62.6803C557.625 62.4383 555.824 62.4353 553.915 62.6853C556.476 60.1463 559.288 56.3153 560.842 50.9533C561.057 54.7253 560.546 58.6603 559.306 62.6803V62.6803ZM564.767 33.3843C567.604 33.2203 570.388 34.4923 573.084 37.1543C577.582 41.8803 578.956 49.0673 576.761 56.3813C575.07 62.0153 571.586 66.3733 568.028 67.3633C567.556 66.8073 567.059 66.2773 566.509 65.8093C564.755 64.3163 562.664 63.3213 560.304 62.8313C563.133 53.5353 562.161 44.6783 557.481 37.1553C558.254 36.3093 561.01 33.5993 564.767 33.3843V33.3843ZM579.102 35.3393C581.144 35.5693 583.018 36.9223 584.674 39.3593C589.203 46.9993 587.531 55.5523 584.454 61.0123C582.263 64.9013 579.203 67.4283 576.661 67.4493C576.651 67.4493 576.639 67.4503 576.627 67.4503C575.204 67.4503 573.999 66.6863 573.036 65.1983C575.014 63.0723 576.693 60.0883 577.719 56.6693C579.959 49.2043 578.62 41.8523 574.162 36.8643C574.938 36.2803 576.838 35.0843 579.102 35.3393V35.3393ZM590.611 37.9993C592.418 38.4453 593.902 40.0753 595.021 42.8443C595.864 44.9303 596.357 47.4643 596.446 50.1743C596.665 56.7393 594.351 64.7953 589.505 67.4913C589.068 67.7353 588.616 67.9323 588.165 68.0753L588.154 68.0793C586.503 68.6443 585.072 68.5173 584.123 67.7203C583.309 67.0373 582.951 65.9333 583.114 64.6843C583.904 63.7633 584.652 62.6993 585.325 61.5033C588.489 55.8903 590.211 47.1383 585.739 39.2293C586.496 38.6933 588.504 37.4843 590.611 37.9993V37.9993ZM576.725 118.552C585.997 115.61 589.418 107.196 589.483 100.556C589.546 93.9733 586.289 86.5433 578.922 84.0203C584.932 81.4223 588.839 75.4913 588.821 68.9063C589.217 68.7593 589.61 68.5783 589.991 68.3653C595.429 65.3393 597.667 56.7973 597.446 50.1413C597.353 47.3153 596.834 44.6633 595.948 42.4693C594.702 39.3863 592.986 37.5563 590.85 37.0293C588.39 36.4193 586.131 37.7323 585.208 38.3773C583.448 35.9513 581.434 34.5953 579.214 34.3453C576.503 34.0393 574.308 35.4793 573.467 36.1333C570.654 33.4713 567.694 32.2173 564.699 32.3863C560.831 32.6113 558.011 35.1403 556.942 36.2623C554.712 32.9523 549.567 31.1153 544.365 31.8583C540.481 32.4113 531.103 35.2903 527.926 50.0523C527.245 53.2143 526.901 56.7293 526.901 60.4993C526.901 63.2173 527.174 65.7553 527.714 68.0433C530.37 79.3083 539.027 81.8343 544.214 82.3093C536.294 84.9263 531.199 90.6553 530.908 97.6183C530.58 105.46 536.441 112.458 546.089 116.082C539.545 116.228 525.919 118.181 522.659 131.55C519.817 143.21 528.761 152.024 533.974 156.035C525.669 153.365 518.441 154.267 512.443 158.73C498.612 169.019 493.817 197.561 496.232 219.674C472.912 204.946 438.293 196.515 401.022 196.515H400.643C363.36 196.515 328.734 204.951 305.414 219.686C307.833 197.57 303.039 169.024 289.206 158.731C283.208 154.268 275.98 153.367 267.673 156.035C272.886 152.024 281.831 143.21 278.988 131.55C275.728 118.18 262.102 116.228 255.559 116.082C265.207 112.458 271.067 105.46 270.739 97.6183C270.448 90.6553 265.353 84.9263 257.434 82.3093C262.621 81.8343 271.277 79.3073 273.934 68.0433C274.473 65.7573 274.746 63.2193 274.746 60.4993C274.746 56.7303 274.402 53.2153 273.721 50.0523C270.545 35.2903 261.167 32.4113 257.282 31.8583C252.082 31.1193 246.936 32.9533 244.706 36.2623C243.637 35.1403 240.816 32.6113 236.947 32.3863C233.945 32.2203 230.993 33.4723 228.179 36.1333C227.339 35.4793 225.142 34.0383 222.433 34.3453C220.214 34.5953 218.199 35.9513 216.44 38.3773C215.517 37.7333 213.258 36.4233 210.798 37.0293C208.66 37.5563 206.944 39.3863 205.699 42.4693C204.812 44.6633 204.294 47.3153 204.201 50.1413C203.98 56.7983 206.219 65.3403 211.655 68.3653C212.038 68.5783 212.43 68.7593 212.826 68.9063C212.808 75.4913 216.716 81.4223 222.725 84.0203C215.359 86.5433 212.101 93.9733 212.165 100.556C212.23 107.196 215.651 115.61 224.922 118.552C219.689 120.05 205.659 125.613 205.659 142.163C205.659 160.099 222.474 165.176 226.171 166.075C207.708 195.901 214.931 235.097 244.27 263.838C259.417 278.677 273.217 283.174 283.294 286.458C290.221 288.716 295.693 290.499 298.983 294.64C300.704 297.339 301.862 300.281 302.423 303.37C302.622 304.705 302.749 306.147 302.799 307.659H302.817C302.809 317.917 296.284 327.106 286.576 330.527C253.022 342.352 234.543 358.391 234.543 375.688C234.543 390.396 250.741 402.734 260.396 408.78C265.004 411.665 267.903 416.657 268.15 422.132L268.172 422.61H533.493L533.515 422.132C533.763 416.657 536.661 411.665 541.269 408.78C550.924 402.734 567.122 390.395 567.122 375.688C567.122 358.392 548.643 342.353 515.089 330.527C505.374 327.103 498.848 317.907 498.849 307.659C498.89 306.397 498.983 305.192 499.121 304.089C499.635 300.687 500.853 297.475 502.712 294.584C506.038 290.472 511.473 288.701 518.354 286.458C528.431 283.174 542.231 278.677 557.377 263.838C586.716 235.097 593.939 195.901 575.478 166.075C579.174 165.176 595.987 160.099 595.987 142.163C595.987 125.613 581.958 120.05 576.725 118.552V118.552Z" fill="#350E27"/><path id="Fill 18" fill-rule="evenodd" clip-rule="evenodd" d="M502.183 262.818L502.98 263.422L538.6 216.433L537.803 215.828L502.183 262.818Z" fill="#350E27"/><path id="Fill 20" fill-rule="evenodd" clip-rule="evenodd" d="M265.723 216.438L302.355 263.428L303.144 262.813L266.512 215.823L265.723 216.438Z" fill="#350E27"/><path id="Fill 22" fill-rule="evenodd" clip-rule="evenodd" d="M401.333 246.278H400.333V294.473H339.623V295.473H400.333V320.047H401.333V295.473H461.917V294.473H401.333V246.278Z" fill="#350E27"/><path id="Fill 24" fill-rule="evenodd" clip-rule="evenodd" d="M435.716 214.748L435.523 213.767L408.948 218.977L409.142 219.958L435.716 214.748Z" fill="#350E27"/><path id="Fill 26" fill-rule="evenodd" clip-rule="evenodd" d="M392.716 218.977L366.142 213.767L365.95 214.748L392.524 219.958L392.716 218.977Z" fill="#350E27"/><path id="Fill 28" fill-rule="evenodd" clip-rule="evenodd" d="M309.466 313.879L330.214 325.911L330.716 325.046L309.968 313.014L309.466 313.879Z" fill="#350E27"/><path id="Fill 30" fill-rule="evenodd" clip-rule="evenodd" d="M308.466 321.879L320.179 328.671L320.681 327.806L308.968 321.014L308.466 321.879Z" fill="#350E27"/><path id="Fill 32" fill-rule="evenodd" clip-rule="evenodd" d="M304.466 327.879L312.123 332.319L312.625 331.454L304.968 327.014L304.466 327.879Z" fill="#350E27"/><path id="Fill 34" fill-rule="evenodd" clip-rule="evenodd" d="M490.214 313.014L469.467 325.046L469.969 325.911L490.716 313.879L490.214 313.014Z" fill="#350E27"/><path id="Fill 36" fill-rule="evenodd" clip-rule="evenodd" d="M491.213 321.014L479.5 327.806L480.002 328.672L491.715 321.879L491.213 321.014Z" fill="#350E27"/><path id="Fill 38" fill-rule="evenodd" clip-rule="evenodd" d="M487.557 331.455L488.059 332.32L495.716 327.88L495.214 327.015L487.557 331.455Z" fill="#350E27"/><path id="Fill 40" fill-rule="evenodd" clip-rule="evenodd" d="M441.917 279.81C445.908 279.81 449.28 281.634 449.28 283.794C449.28 285.954 445.908 287.778 441.917 287.778C437.926 287.778 434.555 285.954 434.555 283.794C434.555 281.634 437.926 279.81 441.917 279.81M433.555 283.794C433.555 286.589 437.228 288.778 441.917 288.778C446.606 288.778 450.28 286.589 450.28 283.794C450.28 280.999 446.606 278.81 441.917 278.81C437.228 278.81 433.555 280.999 433.555 283.794" fill="#350E27"/><path id="Fill 42" fill-rule="evenodd" clip-rule="evenodd" d="M359.917 279.81C363.908 279.81 367.28 281.634 367.28 283.794C367.28 285.954 363.908 287.778 359.917 287.778C355.926 287.778 352.554 285.954 352.554 283.794C352.554 281.634 355.926 279.81 359.917 279.81M359.917 288.778C364.606 288.778 368.28 286.589 368.28 283.794C368.28 280.999 364.606 278.81 359.917 278.81C355.228 278.81 351.554 280.999 351.554 283.794C351.554 286.589 355.228 288.778 359.917 288.778" fill="#350E27"/><path id="Fill 44" fill-rule="evenodd" clip-rule="evenodd" d="M606.487 522.319C606.609 522.192 606.734 522.066 606.854 521.94C607.332 521.436 607.795 520.929 608.244 520.422C608.364 520.285 608.481 520.148 608.599 520.011C608.991 519.559 609.372 519.105 609.741 518.649C609.816 518.556 609.895 518.464 609.969 518.371C610.385 517.848 610.783 517.324 611.169 516.798C611.272 516.657 611.374 516.515 611.474 516.375C611.846 515.855 612.209 515.334 612.55 514.809C612.572 514.776 612.594 514.743 612.616 514.711C612.965 514.173 613.292 513.633 613.609 513.092C613.69 512.955 613.77 512.817 613.848 512.678C614.159 512.133 614.457 511.587 614.735 511.038C614.772 510.962 614.807 510.886 614.844 510.811C615.092 510.312 615.325 509.811 615.546 509.308C615.602 509.179 615.661 509.05 615.716 508.922C615.951 508.369 616.171 507.813 616.372 507.256C616.412 507.148 616.447 507.039 616.485 506.93C616.659 506.434 616.819 505.936 616.966 505.437C616.998 505.328 617.033 505.219 617.064 505.11C617.223 504.546 617.364 503.98 617.488 503.413C617.516 503.287 617.541 503.16 617.567 503.033C617.675 502.511 617.769 501.988 617.847 501.464C617.858 501.39 617.872 501.317 617.883 501.244C617.964 500.668 618.022 500.09 618.068 499.51C618.079 499.375 618.088 499.239 618.096 499.102C618.133 498.513 618.159 497.923 618.159 497.331C618.159 464.778 568.842 446.335 545.262 439.362C537.975 437.208 532.991 430.49 532.991 422.89C532.991 422.629 533.005 422.37 533.016 422.11H268.65C268.662 422.37 268.675 422.629 268.675 422.89C268.675 430.49 263.691 437.208 256.403 439.362C232.824 446.335 183.507 464.778 183.507 497.331C183.507 497.923 183.532 498.511 183.57 499.1C183.579 499.248 183.59 499.396 183.601 499.544C183.648 500.125 183.705 500.705 183.788 501.283C183.789 501.29 183.789 501.296 183.79 501.302C183.873 501.885 183.982 502.465 184.101 503.046C184.132 503.192 184.163 503.34 184.196 503.486C184.322 504.051 184.459 504.617 184.619 505.178C184.624 505.194 184.627 505.209 184.631 505.223C184.795 505.795 184.983 506.364 185.181 506.932C185.234 507.081 185.287 507.23 185.342 507.379C185.543 507.926 185.755 508.472 185.987 509.016C185.998 509.04 186.007 509.063 186.016 509.087C186.258 509.646 186.522 510.202 186.796 510.756C186.872 510.909 186.949 511.062 187.027 511.215C187.294 511.736 187.572 512.256 187.87 512.775C187.895 512.82 187.919 512.864 187.944 512.909C188.255 513.446 188.587 513.98 188.928 514.513C189.03 514.673 189.134 514.831 189.239 514.99C189.564 515.481 189.899 515.972 190.25 516.46C190.303 516.533 190.354 516.606 190.407 516.679C190.778 517.189 191.168 517.695 191.567 518.201C191.698 518.366 191.83 518.532 191.964 518.696C192.339 519.158 192.723 519.619 193.121 520.077C193.209 520.176 193.294 520.278 193.383 520.378C193.806 520.858 194.246 521.337 194.695 521.812C194.859 521.986 195.025 522.159 195.192 522.332C195.603 522.758 196.025 523.183 196.457 523.607C196.596 523.744 196.736 523.881 196.878 524.017C197.339 524.461 197.814 524.903 198.298 525.342C198.499 525.526 198.703 525.709 198.908 525.891C199.345 526.28 199.791 526.667 200.245 527.052C200.454 527.23 200.664 527.407 200.876 527.584C201.362 527.987 201.857 528.388 202.361 528.788C202.606 528.982 202.853 529.175 203.102 529.369C203.551 529.717 204.009 530.065 204.473 530.411C204.769 530.632 205.067 530.851 205.368 531.071C205.862 531.43 206.362 531.789 206.871 532.144C207.164 532.349 207.461 532.554 207.758 532.758C208.209 533.067 208.667 533.374 209.13 533.68C209.529 533.945 209.931 534.208 210.339 534.47C210.825 534.784 211.316 535.096 211.815 535.408C212.162 535.625 212.513 535.84 212.866 536.055C213.306 536.324 213.753 536.59 214.202 536.857C214.716 537.163 215.236 537.465 215.762 537.768C216.232 538.039 216.705 538.308 217.184 538.577C217.588 538.802 217.994 539.027 218.404 539.251C218.824 539.48 219.25 539.709 219.676 539.937C220.326 540.284 220.983 540.629 221.648 540.971C222.083 541.196 222.518 541.421 222.96 541.643C223.423 541.877 223.889 542.109 224.359 542.34C224.757 542.536 225.159 542.731 225.562 542.925C226.349 543.306 227.146 543.683 227.952 544.058C228.343 544.24 228.734 544.423 229.13 544.603C229.656 544.843 230.187 545.083 230.721 545.321C231.085 545.483 231.452 545.643 231.82 545.804C232.76 546.217 233.713 546.626 234.676 547.031C235.013 547.173 235.348 547.315 235.688 547.456C236.279 547.701 236.876 547.944 237.475 548.186C237.797 548.316 238.121 548.445 238.445 548.574C239.553 549.016 240.676 549.454 241.812 549.886C242.079 549.988 242.343 550.09 242.612 550.191C243.27 550.439 243.935 550.685 244.603 550.93C244.883 551.033 245.165 551.134 245.446 551.237C246.715 551.697 247.999 552.152 249.3 552.601C249.5 552.671 249.699 552.74 249.901 552.809C250.623 553.057 251.351 553.302 252.083 553.547C252.324 553.627 252.566 553.706 252.808 553.786C254.226 554.255 255.662 554.716 257.115 555.172C257.259 555.216 257.401 555.261 257.545 555.306C258.326 555.549 259.113 555.791 259.904 556.03C260.111 556.092 260.318 556.154 260.525 556.216C262.089 556.686 263.67 557.148 265.271 557.602C265.355 557.626 265.437 557.65 265.521 557.673C266.358 557.911 267.201 558.144 268.048 558.377C268.227 558.425 268.407 558.474 268.587 558.523C270.282 558.985 271.997 559.44 273.732 559.884C273.762 559.892 273.793 559.9 273.823 559.908C274.708 560.134 275.598 560.358 276.492 560.58C276.661 560.622 276.83 560.663 276.998 560.705C278.783 561.144 280.586 561.576 282.409 561.997C282.424 562.001 282.438 562.004 282.452 562.007C283.372 562.219 284.298 562.429 285.227 562.636C285.396 562.674 285.565 562.712 285.734 562.749C287.596 563.163 289.476 563.567 291.376 563.961C307.465 600.198 322.959 618.972 322.959 618.972H330.232H377.149V606.136V573.989C380.943 574.134 384.766 574.246 388.615 574.323C388.735 574.325 388.854 574.329 388.973 574.331C390.691 574.364 392.415 574.387 394.143 574.407C394.411 574.41 394.678 574.415 394.946 574.418C396.902 574.436 398.864 574.446 400.833 574.446C403.164 574.446 405.483 574.429 407.796 574.403C408.337 574.397 408.877 574.388 409.417 574.382C411.461 574.352 413.5 574.316 415.529 574.267C415.777 574.261 416.027 574.257 416.275 574.251C421.22 574.126 426.121 573.944 430.97 573.705V606.136V618.972H477.887H485.16C485.16 618.972 501.091 599.659 517.42 562.42C518.027 562.282 518.63 562.142 519.233 562.003C519.868 561.856 520.501 561.708 521.132 561.559C521.741 561.415 522.351 561.271 522.956 561.126C523.964 560.882 524.965 560.635 525.961 560.386C526.562 560.236 527.16 560.083 527.758 559.93C528.379 559.771 528.997 559.611 529.613 559.45C530.363 559.254 531.111 559.056 531.853 558.857C532.648 558.643 533.439 558.428 534.225 558.212C534.804 558.051 535.38 557.89 535.954 557.728C536.591 557.548 537.223 557.367 537.854 557.185C538.652 556.955 539.446 556.722 540.235 556.488C540.893 556.293 541.549 556.096 542.2 555.899C542.746 555.733 543.289 555.566 543.83 555.398C544.538 555.178 545.241 554.957 545.941 554.733C546.648 554.508 547.351 554.281 548.049 554.052C548.659 553.853 549.264 553.654 549.867 553.453C550.376 553.283 550.883 553.112 551.387 552.94C552.289 552.633 553.183 552.324 554.069 552.011C554.537 551.846 554.998 551.679 555.461 551.512C556.053 551.299 556.644 551.086 557.23 550.87C557.688 550.702 558.146 550.534 558.599 550.364C559.47 550.038 560.333 549.709 561.188 549.378C561.633 549.205 562.074 549.031 562.514 548.856C563.109 548.622 563.699 548.385 564.286 548.148C564.713 547.975 565.14 547.803 565.563 547.63C566.374 547.296 567.175 546.959 567.969 546.62C568.379 546.445 568.784 546.27 569.188 546.094C569.824 545.819 570.453 545.541 571.078 545.262C571.537 545.057 571.995 544.851 572.448 544.644C573.104 544.344 573.755 544.044 574.399 543.741C574.766 543.569 575.132 543.395 575.494 543.222C576.242 542.864 576.983 542.505 577.714 542.142C578.047 541.977 578.375 541.81 578.704 541.644C579.293 541.347 579.876 541.049 580.453 540.749C580.779 540.58 581.104 540.411 581.426 540.241C582.179 539.842 582.924 539.442 583.656 539.039C583.934 538.885 584.208 538.73 584.483 538.576C585.044 538.262 585.599 537.947 586.148 537.63C586.418 537.474 586.689 537.319 586.956 537.163C587.668 536.744 588.368 536.323 589.058 535.9C589.32 535.74 589.578 535.579 589.837 535.417C590.387 535.074 590.93 534.729 591.466 534.382C591.672 534.25 591.88 534.119 592.083 533.986C592.754 533.546 593.411 533.102 594.058 532.657C594.292 532.497 594.522 532.336 594.753 532.174C595.327 531.773 595.891 531.371 596.446 530.965C596.613 530.843 596.78 530.721 596.945 530.599C597.52 530.173 598.082 529.745 598.635 529.314C598.837 529.158 599.036 529.002 599.234 528.845C599.83 528.374 600.417 527.901 600.986 527.424C601.112 527.319 601.233 527.213 601.357 527.107C601.842 526.697 602.316 526.285 602.782 525.871C602.946 525.724 603.111 525.579 603.272 525.432C603.809 524.945 604.335 524.456 604.844 523.965C604.974 523.84 605.1 523.713 605.228 523.588C605.658 523.167 606.078 522.743 606.487 522.319" fill="#FDC227"/><path id="Fill 46" fill-rule="evenodd" clip-rule="evenodd" d="M531.937 459.912C527.255 461.314 525.964 467.313 529.719 470.442C530.964 471.479 532.565 471.981 534.178 471.828C541.356 471.148 561.37 467.49 569.159 447.843C564.216 445.759 559.392 443.965 554.959 442.45C549.134 452.735 539.631 457.607 531.937 459.912" fill="#3F88EB"/><path id="Fill 48" fill-rule="evenodd" clip-rule="evenodd" d="M267.97 471.828C269.584 471.981 271.185 471.479 272.43 470.442C276.184 467.313 274.893 461.314 270.212 459.912C262.483 457.598 252.925 452.695 247.107 442.314C242.687 443.815 237.866 445.598 232.917 447.671C240.657 467.472 260.771 471.146 267.97 471.828" fill="#3F88EB"/><path id="Fill 50" fill-rule="evenodd" clip-rule="evenodd" d="M617.597 499.07L617.57 499.471C617.524 500.04 617.467 500.608 617.387 501.172L617.353 501.39C617.276 501.905 617.183 502.42 617.077 502.931L616.999 503.306C616.877 503.864 616.739 504.42 616.583 504.972L616.486 505.297C616.341 505.787 616.184 506.277 616.013 506.764L615.901 507.087C615.703 507.634 615.487 508.181 615.255 508.726L615.087 509.107C614.869 509.603 614.641 510.096 614.396 510.59L614.288 510.811C614.014 511.353 613.72 511.893 613.412 512.433L613.177 512.84C612.864 513.374 612.54 513.908 612.197 514.438L612.616 514.711L612.131 514.536C611.793 515.054 611.435 515.57 611.068 516.084L610.765 516.502C610.383 517.023 609.99 517.542 609.578 518.058L609.352 518.335C608.987 518.786 608.609 519.236 608.221 519.684L607.868 520.091C607.423 520.593 606.964 521.096 606.492 521.595L606.127 521.971C605.721 522.392 605.304 522.813 604.878 523.23L604.497 523.604C603.991 524.092 603.469 524.578 602.936 525.062L602.45 525.497C601.987 525.909 601.516 526.318 601.033 526.726L600.664 527.041C600.099 527.514 599.516 527.985 598.924 528.453L598.328 528.92C597.778 529.347 597.219 529.774 596.648 530.197L596.151 530.562C595.599 530.965 595.037 531.365 594.466 531.764L593.775 532.245C593.13 532.688 592.476 533.13 591.809 533.567L591.195 533.963C590.66 534.307 590.12 534.651 589.571 534.993L588.797 535.473C588.109 535.895 587.411 536.314 586.702 536.731L585.898 537.197C585.351 537.513 584.797 537.827 584.239 538.139L583.414 538.601C582.685 539.003 581.943 539.402 581.193 539.799L580.221 540.305C579.646 540.605 579.065 540.902 578.478 541.198L577.491 541.694C576.763 542.055 576.024 542.414 575.279 542.771L574.186 543.289C573.543 543.591 572.895 543.89 572.24 544.189C571.788 544.396 571.331 544.601 570.874 544.805C570.25 545.084 569.623 545.361 568.989 545.635L567.773 546.16C566.981 546.498 566.181 546.834 565.372 547.167L564.098 547.684C563.512 547.922 562.924 548.157 562.329 548.391C561.89 548.566 561.451 548.739 561.007 548.911C560.154 549.242 559.293 549.57 558.423 549.896C557.971 550.065 557.515 550.233 557.057 550.401C556.472 550.616 555.883 550.83 555.29 551.042L553.903 551.54C553.018 551.852 552.125 552.161 551.226 552.466C550.723 552.638 550.216 552.809 549.708 552.978C549.107 553.179 548.502 553.379 547.894 553.577C547.197 553.805 546.495 554.032 545.788 554.257C545.09 554.48 544.388 554.701 543.681 554.921L542.055 555.421C541.405 555.618 540.749 555.813 540.092 556.008C539.304 556.243 538.512 556.474 537.715 556.705C537.085 556.886 536.453 557.068 535.818 557.247L534.092 557.729C533.307 557.946 532.517 558.161 531.723 558.374C530.982 558.573 530.235 558.77 529.486 558.966L525.839 559.901C524.844 560.15 523.844 560.396 522.838 560.639L517.063 561.988L516.961 562.218C501.679 597.072 486.566 616.416 484.92 618.472H431.47V574.179C450.235 573.285 456.624 565.15 456.889 564.8L456.093 564.196C456.03 564.278 449.573 572.451 430.95 573.205V573.206H430.946C426.138 573.443 421.198 573.626 416.263 573.751L415.517 573.767C413.489 573.816 411.451 573.852 409.41 573.882L407.789 573.903C403.527 573.951 399.217 573.958 394.951 573.918L394.149 573.907C392.422 573.887 390.699 573.864 388.981 573.831L388.624 573.823C384.796 573.746 380.943 573.633 377.173 573.489V573.488C358.551 572.734 352.094 564.561 352.031 564.479L351.234 565.084C351.499 565.433 357.888 573.566 376.648 574.462V618.472H323.198C321.576 616.447 306.877 597.644 291.832 563.758L291.728 563.523L291.477 563.471C289.579 563.078 287.701 562.674 285.764 562.244L285.336 562.148C284.408 561.942 283.483 561.732 282.521 561.509C280.701 561.09 278.9 560.658 277.119 560.219L276.612 560.094C275.72 559.873 274.83 559.65 273.855 559.4C272.123 558.957 270.411 558.502 268.717 558.041L268.18 557.894C267.334 557.663 266.493 557.429 265.655 557.192L265.407 557.121C263.808 556.668 262.23 556.207 260.669 555.738L260.048 555.551C259.259 555.312 258.473 555.072 257.694 554.829L257.264 554.694C255.813 554.24 254.38 553.779 252.965 553.311L252.241 553.072C251.511 552.829 250.784 552.584 250.063 552.337L249.462 552.129C248.164 551.68 246.882 551.226 245.617 550.767L244.775 550.461C244.108 550.216 243.445 549.97 242.788 549.723L241.99 549.42C240.856 548.987 239.736 548.55 238.548 548.077L237.662 547.722C237.064 547.481 236.469 547.238 235.879 546.994L234.869 546.57C233.909 546.166 232.959 545.758 232.02 545.346L230.924 544.864C230.391 544.627 229.862 544.388 229.337 544.148L228.163 543.605C227.359 543.231 226.564 542.855 225.779 542.475L224.58 541.892C224.112 541.661 223.646 541.429 223.185 541.197C222.744 540.975 222.31 540.751 221.876 540.527C221.214 540.185 220.559 539.841 219.912 539.497C219.487 539.268 219.062 539.041 218.643 538.812C218.235 538.589 217.83 538.365 217.428 538.14C216.951 537.873 216.479 537.604 216.011 537.335C215.487 537.033 214.97 536.732 214.457 536.427C214.009 536.162 213.565 535.896 213.125 535.629C212.774 535.415 212.425 535.2 212.079 534.984C211.583 534.674 211.094 534.362 210.609 534.05C210.204 533.789 209.803 533.527 209.406 533.263C208.945 532.959 208.489 532.653 208.041 532.346C207.744 532.143 207.45 531.939 207.157 531.734C206.651 531.381 206.153 531.024 205.662 530.667C205.362 530.448 205.066 530.229 204.771 530.009C204.31 529.666 203.855 529.32 203.409 528.974C203.161 528.782 202.915 528.59 202.671 528.396C202.17 527.999 201.678 527.6 201.196 527.199L200.569 526.672C200.118 526.288 199.675 525.904 199.24 525.517L198.633 524.972C198.153 524.536 197.682 524.097 197.224 523.657L196.806 523.25C196.378 522.83 195.96 522.408 195.551 521.984L195.058 521.468C194.613 520.998 194.177 520.523 193.756 520.046L193.498 519.749C193.104 519.296 192.723 518.839 192.351 518.38L191.959 517.891C191.564 517.39 191.178 516.89 190.811 516.385L190.656 516.168C190.308 515.685 189.977 515.2 189.639 514.689L189.349 514.244C189.012 513.716 188.683 513.189 188.376 512.659L187.944 512.909L188.303 512.526C188.01 512.014 187.735 511.501 187.472 510.988L187.244 510.535C186.973 509.988 186.713 509.44 186.447 508.819C186.218 508.284 186.009 507.746 185.811 507.206L185.653 506.767C185.457 506.208 185.272 505.648 185.1 505.042C184.942 504.489 184.807 503.933 184.683 503.377L184.591 502.945C184.473 502.375 184.367 501.804 184.283 501.213C184.201 500.644 184.145 500.075 184.099 499.504L184.068 499.069C184.032 498.49 184.006 497.912 184.006 497.331C184.006 474.084 209.915 457.998 232.662 448.355C240.534 467.701 259.905 471.566 267.923 472.326C268.133 472.345 268.343 472.355 268.552 472.355C270.082 472.355 271.553 471.824 272.75 470.826C274.64 469.251 275.475 466.877 274.984 464.474C274.485 462.036 272.754 460.151 270.355 459.433C263.308 457.323 253.752 452.68 247.86 442.594C251.062 441.511 254.001 440.593 256.544 439.841C263.981 437.643 269.175 430.673 269.175 422.89C269.175 422.798 269.173 422.706 269.17 422.61H532.494C532.493 422.703 532.491 422.797 532.491 422.89C532.491 430.673 537.684 437.643 545.12 439.841C547.769 440.625 550.845 441.587 554.203 442.729C548.302 452.727 538.795 457.335 531.793 459.433C529.394 460.151 527.664 462.036 527.165 464.474C526.673 466.877 527.508 469.251 529.399 470.826C530.596 471.824 532.067 472.355 533.596 472.355C533.805 472.355 534.015 472.345 534.225 472.326C542.203 471.57 561.489 467.728 569.41 448.529C592.058 458.19 617.659 474.222 617.659 497.331C617.659 497.913 617.633 498.492 617.597 499.07M246.881 442.927C252.928 453.423 262.805 458.216 270.068 460.39C272.109 461.002 273.58 462.603 274.004 464.674C274.42 466.71 273.712 468.722 272.11 470.058C270.955 471.019 269.502 471.475 268.017 471.33C260.179 470.588 241.237 466.825 233.576 447.97C238.247 446.018 242.766 444.339 246.881 442.927M568.497 448.141C560.785 466.849 541.93 470.591 534.131 471.33C532.644 471.477 531.194 471.019 530.039 470.058C528.437 468.722 527.728 466.71 528.145 464.674C528.569 462.603 530.039 461.002 532.08 460.39C539.298 458.229 549.124 453.469 555.182 443.065C559.311 444.489 563.831 446.178 568.497 448.141M569.789 447.61L569.804 447.572L569.353 447.382C564.855 445.485 560.067 443.667 555.121 441.977L554.729 441.842L554.724 441.851C551.275 440.674 548.117 439.685 545.404 438.882C538.389 436.809 533.491 430.233 533.491 422.89C533.491 422.67 533.5 422.451 533.516 422.132L533.539 421.61H268.65L268.13 421.689L268.154 422.213C268.164 422.438 268.175 422.663 268.175 422.89C268.175 430.233 263.276 436.809 256.261 438.882C253.655 439.653 250.636 440.597 247.345 441.715L247.34 441.707L246.947 441.841C242.018 443.514 237.233 445.321 232.724 447.21L232.274 447.398L232.288 447.434C209.282 457.197 183.006 473.552 183.006 497.331C183.006 497.933 183.033 498.532 183.07 499.133L183.102 499.584C183.15 500.174 183.208 500.765 183.294 501.374C183.379 501.966 183.49 502.556 183.611 503.147L183.707 503.594C183.836 504.17 183.975 504.745 184.15 505.361C184.316 505.941 184.507 506.52 184.709 507.098L184.872 507.55C185.076 508.107 185.291 508.661 185.557 509.285C185.802 509.852 186.069 510.416 186.348 510.979L186.581 511.443C186.852 511.971 187.135 512.499 187.436 513.024L187.511 513.159C187.825 513.703 188.161 514.244 188.507 514.783L188.822 515.265C189.15 515.762 189.489 516.259 189.844 516.752L190.002 516.973C190.377 517.488 190.771 518 191.175 518.512L191.576 519.01C191.953 519.477 192.342 519.942 192.745 520.407L193.007 520.709C193.435 521.193 193.879 521.675 194.331 522.155L194.831 522.678C195.246 523.109 195.671 523.537 196.166 524.023L196.531 524.378C196.995 524.825 197.473 525.27 197.961 525.713C198.164 525.897 198.369 526.081 198.576 526.265C199.015 526.656 199.464 527.046 199.921 527.433L200.556 527.968C201.045 528.374 201.543 528.778 202.05 529.179C202.296 529.375 202.545 529.569 202.795 529.763C203.247 530.115 203.707 530.465 204.174 530.811C204.471 531.034 204.77 531.255 205.074 531.475C205.57 531.837 206.073 532.197 206.584 532.553C206.879 532.759 207.176 532.966 207.475 533.171C207.929 533.481 208.389 533.789 208.853 534.097C209.254 534.363 209.658 534.627 210.068 534.89C210.556 535.206 211.049 535.519 211.55 535.832C211.898 536.049 212.251 536.266 212.605 536.482C213.047 536.752 213.495 537.019 213.946 537.287C214.463 537.593 214.984 537.898 215.512 538.202C215.984 538.473 216.458 538.744 216.94 539.013C217.345 539.24 217.752 539.466 218.163 539.689C218.585 539.92 219.012 540.149 219.441 540.379C220.092 540.726 220.751 541.072 221.418 541.416C221.854 541.641 222.291 541.866 222.735 542.09C223.198 542.324 223.666 542.557 224.139 542.79L225.344 543.376C226.134 543.758 226.932 544.135 227.742 544.511L228.922 545.058C229.45 545.299 229.981 545.539 230.517 545.778L231.618 546.262C232.561 546.676 233.516 547.086 234.482 547.492L235.496 547.918C236.089 548.164 236.687 548.407 237.287 548.65L238.259 549.039C239.37 549.482 240.495 549.921 241.634 550.353L242.435 550.659C243.095 550.908 243.761 551.154 244.43 551.4L245.275 551.707C246.546 552.168 247.833 552.624 249.136 553.074L249.738 553.282C250.462 553.531 251.191 553.776 251.925 554.021L252.651 554.26C254.072 554.73 255.51 555.193 256.966 555.649L257.396 555.784C258.179 556.027 258.967 556.269 259.759 556.508L260.381 556.695C261.947 557.166 263.531 557.629 265.136 558.084L265.385 558.155C266.222 558.392 267.067 558.626 267.916 558.859L268.455 559.006C270.153 559.468 271.87 559.924 273.699 560.392C274.584 560.619 275.476 560.843 276.371 561.065L276.878 561.19C278.666 561.631 280.471 562.062 282.34 562.495C283.261 562.707 284.188 562.917 285.117 563.124L285.625 563.237C287.407 563.633 289.206 564.02 291.023 564.398C306.918 600.131 322.418 619.103 322.573 619.291L322.723 619.472H377.648V574.508C381.261 574.643 384.944 574.75 388.606 574.823L388.963 574.831C390.682 574.864 392.408 574.887 394.138 574.907L394.941 574.918C399.218 574.958 403.533 574.952 407.801 574.903L409.423 574.882C411.469 574.852 413.51 574.816 415.54 574.767L416.287 574.751C421.052 574.631 425.82 574.455 430.47 574.23V619.472H485.395L485.545 619.291C485.704 619.097 501.641 599.579 517.776 562.85L523.074 561.612C524.082 561.367 525.084 561.121 526.081 560.872L529.74 559.933C530.491 559.737 531.24 559.54 531.983 559.34C532.779 559.126 533.571 558.911 534.358 558.693L536.089 558.21C536.727 558.029 537.361 557.847 537.993 557.666C538.791 557.435 539.587 557.202 540.377 556.967C541.036 556.772 541.692 556.575 542.345 556.378L543.978 555.876C544.687 555.656 545.391 555.433 546.092 555.21C546.8 554.985 547.505 554.757 548.204 554.528C548.815 554.328 549.421 554.129 550.025 553.927C550.534 553.757 551.043 553.586 551.548 553.414C552.451 553.106 553.348 552.796 554.235 552.483L555.629 551.983C556.223 551.769 556.816 551.555 557.402 551.34C557.861 551.171 558.321 551.003 558.775 550.832C559.647 550.506 560.511 550.175 561.368 549.843C561.815 549.671 562.257 549.496 562.698 549.321C563.293 549.087 563.885 548.849 564.473 548.612L565.753 548.091C566.566 547.758 567.369 547.42 568.165 547.08L569.387 546.553C570.024 546.277 570.655 545.998 571.282 545.718C571.742 545.513 572.201 545.306 572.656 545.099C573.313 544.799 573.965 544.497 574.611 544.194L575.709 543.674C576.459 543.314 577.202 542.954 577.935 542.591L578.928 542.091C579.52 541.793 580.105 541.494 580.682 541.193L581.659 540.683C582.415 540.283 583.162 539.882 583.897 539.476L584.727 539.012C585.289 538.698 585.847 538.381 586.398 538.063L587.209 537.593C587.923 537.174 588.626 536.751 589.319 536.327L590.101 535.841C590.654 535.497 591.2 535.151 591.738 534.802L592.357 534.404C593.031 533.962 593.691 533.516 594.341 533.069L595.038 532.585C595.616 532.181 596.183 531.777 596.741 531.369L597.243 531.002C597.821 530.573 598.385 530.142 598.942 529.709L599.544 529.237C600.144 528.762 600.734 528.288 601.307 527.808L601.679 527.489C602.168 527.076 602.645 526.661 603.115 526.244L603.608 525.802C604.149 525.312 604.678 524.819 605.191 524.325L605.577 523.945C606.011 523.52 606.434 523.093 606.846 522.667L607.217 522.284C607.699 521.776 608.165 521.265 608.619 520.752L608.977 520.339C609.372 519.882 609.756 519.424 610.129 518.964L610.361 518.682C610.781 518.155 611.182 517.625 611.571 517.094L611.88 516.666C612.257 516.14 612.623 515.613 612.969 515.083L613.035 514.983C613.388 514.439 613.719 513.893 614.039 513.346L614.283 512.926C614.597 512.374 614.899 511.82 615.184 511.257L615.291 511.034C615.543 510.528 615.78 510.019 616.003 509.509L616.175 509.118C616.414 508.556 616.637 507.992 616.84 507.429L616.956 507.095C617.133 506.591 617.296 506.086 617.445 505.579L617.545 505.246C617.707 504.672 617.85 504.096 617.976 503.522L618.056 503.133C618.165 502.603 618.262 502.071 618.342 501.536L618.377 501.313C618.459 500.727 618.52 500.139 618.566 499.549L618.595 499.133C618.633 498.534 618.659 497.934 618.659 497.331C618.659 473.694 592.696 457.392 569.789 447.61" fill="#350E27"/><path id="Fill 52" fill-rule="evenodd" clip-rule="evenodd" d="M261.03 50.1575L259.849 54.1885C265.928 58.8455 272.71 62.1605 272.906 67.9285H308.414V86.3735C308.414 90.5705 311.816 93.9725 316.013 93.9725H338.816V24.4995H316.013C311.816 24.4995 308.414 27.9015 308.414 32.0985V50.1575H261.03Z" fill="#3F88EB"/><path id="Fill 54" fill-rule="evenodd" clip-rule="evenodd" d="M175.551 24.4995C179.748 24.4995 183.151 27.9015 183.151 32.0985V50.1575H204.7C204.461 57.3835 207.043 65.2275 211.899 67.9285H183.151V86.3735C183.151 90.5705 179.748 93.9735 175.551 93.9735H153.815V24.4995H175.551Z" fill="#3F88EB"/><path id="Fill 56" fill-rule="evenodd" clip-rule="evenodd" d="M131.099 24.4995H153.815V93.9735H131.099C126.902 93.9735 123.5 90.5705 123.5 86.3735V32.0985C123.5 27.9015 126.902 24.4995 131.099 24.4995" fill="#3F88EB"/><path id="Fill 58" fill-rule="evenodd" clip-rule="evenodd" d="M360.465 24.4995C364.662 24.4995 368.065 27.9015 368.065 32.0985V86.3735C368.065 90.5705 364.662 93.9735 360.465 93.9735H338.815V24.4995H360.465Z" fill="#3F88EB"/><g id="Group 66"><path id="Fill 64" fill-rule="evenodd" clip-rule="evenodd" d="M182.651 67.428V86.373C182.651 90.288 179.466 93.473 175.551 93.473H154.315V24.999H175.551C179.466 24.999 182.651 28.184 182.651 32.098V50.657H204.189C204.106 56.63 205.964 63.931 210.276 67.428H182.651ZM153.315 93.473H131.099C127.184 93.473 124 90.288 124 86.373V32.098C124 28.184 127.184 24.999 131.099 24.999H153.315V93.473ZM212.142 67.491C207.297 64.796 204.983 56.74 205.2 50.174L205.218 49.657H183.651V32.098C183.651 27.633 180.018 23.999 175.551 23.999H154.315H153.315H131.099C126.633 23.999 123 27.633 123 32.098V86.373C123 90.84 126.633 94.473 131.099 94.473H153.315H154.315H175.551C180.018 94.473 183.651 90.84 183.651 86.373V68.428H213.826L212.142 67.491Z" fill="#350E27"/></g><g id="Group 69"><path id="Fill 67" fill-rule="evenodd" clip-rule="evenodd" d="M367.565 86.3735C367.565 90.2885 364.38 93.4735 360.465 93.4735H339.315V24.9995H360.465C364.38 24.9995 367.565 28.1845 367.565 32.0985V86.3735ZM338.315 93.4735H316.013C312.098 93.4735 308.913 90.2885 308.913 86.3735V67.4285H273.374C272.935 62.8675 268.549 59.7805 263.916 56.5185C262.767 55.7095 261.582 54.8755 260.425 53.9995L261.404 50.6575H308.913V32.0985C308.913 28.1845 312.098 24.9995 316.013 24.9995H338.315V93.4735ZM360.465 23.9995H339.315H338.315H316.013C311.546 23.9995 307.913 27.6325 307.913 32.0985V49.6575H260.655L259.272 54.3775L259.544 54.5855C260.803 55.5505 262.093 56.4575 263.34 57.3355C268.125 60.7045 272.258 63.6135 272.406 67.9455L272.422 68.4285H307.913V86.3735C307.913 90.8395 311.546 94.4735 316.013 94.4735H338.315H339.315H360.465C364.932 94.4735 368.565 90.8395 368.565 86.3735V32.0985C368.565 27.6325 364.932 23.9995 360.465 23.9995V23.9995Z" fill="#350E27"/></g><path id="Fill 70" fill-rule="evenodd" clip-rule="evenodd" d="M540.619 50.1575L541.8 54.1885C535.721 58.8455 528.939 62.1605 528.743 67.9285H493.235V86.3735C493.235 90.5705 489.833 93.9725 485.636 93.9725H462.833V24.4995H485.636C489.833 24.4995 493.235 27.9015 493.235 32.0985V50.1575H540.619Z" fill="#3F88EB"/><path id="Fill 72" fill-rule="evenodd" clip-rule="evenodd" d="M626.096 24.4995C621.899 24.4995 618.496 27.9015 618.496 32.0985V50.1575H596.947C597.187 57.3835 594.604 65.2275 589.748 67.9285H618.496V86.3735C618.496 90.5705 621.899 93.9735 626.096 93.9735H647.832V24.4995H626.096Z" fill="#3F88EB"/><path id="Fill 74" fill-rule="evenodd" clip-rule="evenodd" d="M670.549 24.4995H647.832V93.9735H670.549C674.746 93.9735 678.149 90.5705 678.149 86.3735V32.0985C678.149 27.9015 674.746 24.4995 670.549 24.4995" fill="#3F88EB"/><path id="Fill 76" fill-rule="evenodd" clip-rule="evenodd" d="M441.182 24.4995C436.986 24.4995 433.583 27.9015 433.583 32.0985V86.3735C433.583 90.5705 436.986 93.9735 441.182 93.9735H462.832V24.4995H441.182Z" fill="#3F88EB"/><g id="Group 84"><path id="Fill 82" fill-rule="evenodd" clip-rule="evenodd" d="M677.649 86.3735C677.649 90.2885 674.464 93.4735 670.549 93.4735H648.333V24.9995H670.549C674.464 24.9995 677.649 28.1845 677.649 32.0985V86.3735ZM647.333 93.4735H626.096C622.181 93.4735 618.997 90.2885 618.997 86.3735V67.4285H591.372C595.684 63.9315 597.543 56.6305 597.459 50.6575H618.997V32.0985C618.997 28.1845 622.181 24.9995 626.096 24.9995H647.333V93.4735ZM670.549 23.9995H648.333H647.333H626.096C621.63 23.9995 617.997 27.6325 617.997 32.0985V49.6575H596.43L596.447 50.1745C596.666 56.7395 594.351 64.7955 589.505 67.4915L587.822 68.4285H617.997V86.3735C617.997 90.8395 621.63 94.4735 626.096 94.4735H647.333H648.333H670.549C675.015 94.4735 678.649 90.8395 678.649 86.3735V32.0985C678.649 27.6325 675.015 23.9995 670.549 23.9995V23.9995Z" fill="#350E27"/></g><g id="Group 87"><path id="Fill 85" fill-rule="evenodd" clip-rule="evenodd" d="M537.733 56.518C533.098 59.78 528.712 62.867 528.274 67.428L492.735 67.429V86.373C492.735 90.288 489.55 93.473 485.635 93.473H463.333V24.999H485.635C489.55 24.999 492.735 28.184 492.735 32.099V50.658H540.244L541.223 53.999C540.066 54.875 538.881 55.709 537.733 56.518V56.518ZM462.333 93.473H441.182C437.268 93.473 434.084 90.288 434.084 86.373V32.099C434.084 28.184 437.268 24.999 441.182 24.999H462.333V93.473ZM540.994 49.658H493.735V32.099C493.735 27.633 490.101 23.999 485.635 23.999H463.333H462.333H441.182C436.716 23.999 433.084 27.633 433.084 32.099V86.373C433.084 90.84 436.716 94.473 441.182 94.473H462.333H463.333H485.635C490.101 94.473 493.735 90.84 493.735 86.373V68.429L529.226 68.428L529.243 67.945C529.39 63.614 533.523 60.705 538.308 57.335C539.555 56.458 540.844 55.55 542.103 54.586L542.376 54.377L540.994 49.658Z" fill="#350E27"/></g><path id="41:17903" fill-rule="evenodd" clip-rule="evenodd" d="M420.733 149.929L420.746 149.934L424.674 140.978C426.858 136 424.207 130.231 419.005 128.646L416.266 127.812C410.213 125.968 404.177 130.726 404.558 137.043L404.949 143.53L404.978 143.542C403.69 143.387 402.381 143.298 401.052 143.298C383.081 143.298 368.512 157.866 368.512 175.837C368.512 193.808 383.081 208.376 401.051 208.376C419.023 208.376 433.591 193.808 433.591 175.837C433.591 165.264 428.545 155.873 420.733 149.929" fill="#FFDCDB"/><path id="Fill 90" fill-rule="evenodd" clip-rule="evenodd" d="M411.429 170.415C408.859 173.28 408.507 177.503 410.567 180.753C413.291 185.053 419.134 186.051 423.142 182.913C427.126 179.793 430.639 176.25 433.46 173.068C432.865 166.017 430.025 159.611 425.651 154.561L411.429 170.415Z" fill="white"/><path id="Fill 92" fill-rule="evenodd" clip-rule="evenodd" d="M423.996 181.56L419.009 175.472L425.27 168.932L430.53 175.502C428.364 177.755 426.178 179.767 423.996 181.56V181.56ZM416.45 184.128C414.979 183.874 413.624 183.212 412.517 182.25L418.311 176.199L423.225 182.197C423.095 182.3 422.964 182.417 422.834 182.519C421.031 183.931 418.7 184.516 416.45 184.128V184.128ZM410.989 180.485C409.058 177.438 409.392 173.434 411.802 170.748L412.871 169.557L417.674 175.42L411.807 181.546C411.51 181.215 411.23 180.866 410.989 180.485V180.485ZM430.572 163.396C430.582 163.421 430.595 163.444 430.605 163.469C430.821 163.983 431.007 164.509 431.194 165.035C431.281 165.278 431.384 165.516 431.465 165.762C431.721 166.538 431.948 167.324 432.144 168.12C432.173 168.235 432.189 168.353 432.217 168.469C432.377 169.153 432.524 169.841 432.64 170.538C432.686 170.82 432.71 171.107 432.75 171.39C432.819 171.893 432.892 172.395 432.937 172.904C432.367 173.545 431.792 174.15 431.218 174.76L425.969 168.203L430.572 163.396ZM424.641 168.144L418.37 174.692L413.546 168.804L419.687 161.957L424.641 168.144ZM420.364 161.203L425.63 155.332C425.861 155.609 426.082 155.891 426.303 156.174C426.532 156.468 426.769 156.758 426.988 157.058C427.261 157.433 427.511 157.819 427.766 158.204C427.966 158.505 428.175 158.802 428.364 159.109C428.611 159.512 428.835 159.926 429.063 160.338C429.232 160.642 429.412 160.94 429.571 161.249C429.768 161.633 429.94 162.029 430.121 162.421L425.338 167.415L420.364 161.203ZM421.359 149.78L425.133 141.179C426.23 138.676 426.206 135.815 425.063 133.331C423.922 130.847 421.767 128.965 419.151 128.168L416.412 127.333C413.368 126.407 410.189 127.004 407.69 128.975C405.191 130.945 403.868 133.897 404.059 137.073L404.415 142.975C403.265 142.854 402.183 142.798 401.053 142.798C382.834 142.798 368.013 157.619 368.013 175.837C368.013 194.055 382.834 208.876 401.052 208.876C405.201 208.876 409.245 208.118 413.073 206.622L412.71 205.69C408.998 207.141 405.075 207.876 401.052 207.876C383.385 207.876 369.013 193.504 369.013 175.837C369.013 158.171 383.386 143.798 401.053 143.798C402.198 143.798 403.303 143.868 404.476 143.996L404.93 151.525L405.928 151.465L405.476 143.963L405.058 137.013C404.886 134.168 406.071 131.525 408.309 129.76C410.547 127.997 413.392 127.46 416.121 128.29L418.86 129.125C421.202 129.838 423.133 131.523 424.155 133.748C425.178 135.973 425.2 138.535 424.217 140.778L420.288 149.733L418.55 153.695L419.466 154.097L420.939 150.737C422.414 151.903 423.767 153.177 424.992 154.546L411.058 170.081C408.35 173.098 407.975 177.597 410.145 181.02C411.517 183.185 413.753 184.677 416.279 185.113C416.793 185.202 417.309 185.245 417.823 185.245C419.848 185.245 421.837 184.57 423.451 183.306C426.659 180.793 429.883 177.753 433.047 174.27C433.072 174.791 433.092 175.312 433.092 175.837C433.092 186.187 428.05 195.954 419.603 201.962C418.949 202.429 418.26 202.88 417.557 203.305L418.072 204.161C418.798 203.724 419.509 203.258 420.183 202.777C428.892 196.581 434.092 186.511 434.092 175.837C434.092 165.559 429.456 156.083 421.359 149.78V149.78Z" fill="#350E27"/><path id="Fill 94" fill-rule="evenodd" clip-rule="evenodd" d="M392.106 192.142L397.364 185.974L396.603 185.325L391.345 191.494L392.106 192.142Z" fill="#350E27"/><path id="Fill 96" fill-rule="evenodd" clip-rule="evenodd" d="M400.121 168.12L405.586 157.284C405.726 157.005 405.68 156.677 405.468 156.449C405.253 156.22 404.931 156.15 404.642 156.27L395.384 160.121L395.768 161.044L404.375 157.464L399.228 167.67L400.121 168.12Z" fill="#350E27"/><path id="Fill 98" fill-rule="evenodd" clip-rule="evenodd" d="M403.528 178.079L402.528 178.067C402.44 185.516 408.628 190.661 414.411 191.157L414.497 190.161C409.158 189.703 403.447 184.954 403.528 178.079" fill="#350E27"/><path id="Fill 100" fill-rule="evenodd" clip-rule="evenodd" d="M417.425 141.271C416.544 141.208 415.779 141.871 415.714 142.753C415.649 143.635 416.311 144.402 417.192 144.465C418.072 144.529 418.838 143.865 418.904 142.983C418.968 142.101 418.306 141.334 417.425 141.271" fill="#350E27"/><path id="Fill 102" fill-rule="evenodd" clip-rule="evenodd" d="M419.513 135.326C418.632 135.263 417.866 135.927 417.801 136.808C417.737 137.691 418.399 138.457 419.279 138.52C420.159 138.584 420.926 137.92 420.991 137.038C421.055 136.156 420.394 135.389 419.513 135.326" fill="#350E27"/><path id="41:17918" fill-rule="evenodd" clip-rule="evenodd" d="M400.378 190.702C399.916 191.31 399.387 191.889 398.74 192.389C395.441 194.932 391.059 194.778 388.949 192.044C386.84 189.31 387.804 185.032 391.103 182.488C391.668 182.052 392.27 181.724 392.882 181.446L388.003 175.422C382.042 168.062 382.019 157.434 388.167 150.229C390.375 147.642 392.588 145.555 394.466 143.966C379.652 147.011 368.512 160.123 368.512 175.838C368.512 193.808 383.081 208.377 401.051 208.377C405.229 208.377 409.218 207.581 412.887 206.147L400.378 190.702Z" fill="#6EB010"/><path id="Fill 106" fill-rule="evenodd" clip-rule="evenodd" d="M392.621 144.92C378.828 148.674 369.012 161.37 369.012 175.838C369.012 193.504 383.385 207.877 401.051 207.877C404.829 207.877 408.53 207.22 412.063 205.925L400.379 191.499C399.954 192 399.514 192.423 399.045 192.785C395.534 195.493 390.828 195.297 388.553 192.35C387.441 190.907 387.07 189.038 387.51 187.085C387.943 185.167 389.11 183.393 390.797 182.092C391.184 181.793 391.606 181.526 392.097 181.272L387.614 175.737C381.443 168.118 381.515 157.253 387.786 149.905C389.275 148.161 390.896 146.49 392.621 144.92M401.051 208.877C382.833 208.877 368.012 194.056 368.012 175.838C368.012 160.226 379.095 146.615 394.365 143.476L396.285 143.082L394.789 144.348C392.531 146.258 390.431 148.346 388.547 150.554C382.589 157.536 382.523 167.862 388.392 175.108L393.677 181.634L393.089 181.901C392.411 182.21 391.877 182.522 391.408 182.884C389.905 184.043 388.867 185.613 388.486 187.305C388.113 188.962 388.417 190.536 389.345 191.739C391.282 194.25 395.36 194.364 398.434 191.993C398.979 191.573 399.484 191.051 399.98 190.399L400.365 189.892L413.706 206.364L413.069 206.613C409.226 208.115 405.183 208.877 401.051 208.877" fill="#350E27"/><path id="Fill 108" fill-rule="evenodd" clip-rule="evenodd" d="M379.094 183.053C379.457 183.36 380.002 183.315 380.31 182.952C380.618 182.589 380.573 182.045 380.209 181.738C379.845 181.43 379.301 181.476 378.993 181.839C378.685 182.202 378.73 182.746 379.094 183.053" fill="#350E27"/><path id="Fill 110" fill-rule="evenodd" clip-rule="evenodd" d="M378.586 179.146C378.949 179.453 379.494 179.408 379.802 179.045C380.11 178.682 380.065 178.138 379.701 177.831C379.337 177.523 378.793 177.569 378.485 177.932C378.177 178.295 378.222 178.838 378.586 179.146" fill="#350E27"/><path id="Fill 112" fill-rule="evenodd" clip-rule="evenodd" d="M375.836 181.077C376.199 181.385 376.744 181.339 377.052 180.976C377.36 180.613 377.315 180.069 376.951 179.762C376.587 179.454 376.043 179.5 375.735 179.863C375.427 180.226 375.472 180.77 375.836 181.077" fill="#350E27"/></g></g></svg>