<svg width="504.63px" height="516.5903890160184px" viewBox="148.18499999999995 183.81006864988558 504.63 516.5903890160184" fill="none" xmlns="http://www.w3.org/2000/svg"><g id="Hobbies Outlines/Music"><g id="Outlines"><path id="41:18260" fill-rule="evenodd" clip-rule="evenodd" d="M578.562 563.85C571.275 561.696 566.291 554.978 566.291 547.378C566.291 541.478 569.302 535.976 574.303 532.844C584.261 526.609 599.922 514.523 599.922 500.177C599.922 482.581 580.064 466.709 548.223 455.487C538.306 451.992 531.648 442.646 531.649 432.131C531.649 424.973 534.803 418.227 540.148 413.467C550.215 404.502 555.964 394.132 555.964 383.082C555.964 349.073 501.503 321.503 434.322 321.503H433.943C366.762 321.503 312.301 349.073 312.301 383.082C312.301 394.132 318.05 404.502 328.117 413.467C332.431 417.309 335.316 422.446 336.269 428.048L243.731 437.064C239.902 437.434 238.775 442.482 242.083 444.446L284.481 469.441C191.487 515.464 159.671 635.533 272.826 673.496V673.495C312.598 689.117 370.132 698.934 434.132 698.934C554.159 698.934 651.458 664.409 651.458 621.819C651.458 589.266 602.142 570.823 578.562 563.85" fill="#FFDCDB"/><g id="Group 5"><path id="Fill 3" fill-rule="evenodd" clip-rule="evenodd" d="M434.132 698.434C372.839 698.434 314.112 689.174 273.008 673.029L272.478 672.823L272.472 672.85C229.009 658.113 203.705 629.746 201.2 592.93C198.042 546.504 232.198 496.055 284.302 470.096L292.733 475.102C294.961 476.425 297.406 477.077 299.84 477.077C303.034 477.077 306.206 475.954 308.833 473.752C313.416 469.912 314.968 464.084 312.882 458.544C311.526 454.942 309.002 452.324 306.451 451.874L306.277 452.858C308.487 453.248 310.712 455.619 311.946 458.897C314.255 465.03 311.52 470.196 308.191 472.986C303.892 476.588 298.025 477.081 293.243 474.243L285.362 469.563L285.531 469.48L242.338 444.016C240.738 443.066 240.452 441.456 240.718 440.267C240.984 439.077 241.927 437.741 243.779 437.561L336.852 428.494L336.761 427.964C335.796 422.289 332.844 417.008 328.449 413.094C318.212 403.976 312.8 393.599 312.8 383.082C312.8 349.403 367.145 322.003 433.943 322.003H434.321C501.119 322.003 555.464 349.403 555.464 383.082C555.464 393.599 550.053 403.977 539.815 413.094C534.308 417.999 531.149 424.938 531.149 432.131C531.148 442.818 537.943 452.394 548.057 455.959C580.7 467.463 599.422 483.58 599.422 500.177C599.422 514.402 583.518 526.484 574.037 532.42C568.873 535.655 565.79 541.247 565.79 547.378C565.79 555.161 570.984 562.131 578.42 564.33C600.23 570.779 650.958 589.29 650.958 621.819C650.958 664.065 553.691 698.434 434.132 698.434M578.703 563.371C571.689 561.297 566.79 554.72 566.79 547.378C566.79 541.593 569.697 536.318 574.569 533.268C584.224 527.222 600.422 514.883 600.422 500.177C600.422 482.88 581.943 466.841 548.389 455.016C538.674 451.592 532.148 442.395 532.149 432.131C532.149 425.223 535.186 418.557 540.481 413.841C550.937 404.529 556.464 393.892 556.464 383.082C556.464 348.851 501.671 321.003 434.321 321.003H433.943C366.593 321.003 311.8 348.851 311.8 383.082C311.8 393.892 317.327 404.528 327.784 413.841C331.873 417.482 334.663 422.352 335.68 427.603L243.682 436.566C241.719 436.756 240.172 438.123 239.742 440.049C239.313 441.974 240.131 443.869 241.828 444.876L283.434 469.404C231.216 495.601 197.026 546.305 200.202 592.997C202.746 630.389 228.481 659.146 272.666 673.97L272.691 673.979C313.903 690.157 372.741 699.434 434.132 699.434C492.237 699.434 546.872 691.403 587.972 676.819C629.235 662.177 651.958 642.645 651.958 621.819C651.958 588.617 600.729 569.883 578.703 563.371" fill="#350E27"/></g><path id="Fill 6" fill-rule="evenodd" clip-rule="evenodd" d="M252.09 577.007C252.09 591.544 256.25 605.646 264.12 617.789L264.959 617.246C257.194 605.265 253.09 591.35 253.09 577.007C253.09 536.156 286.324 502.922 327.175 502.922C335.406 502.922 343.491 504.262 351.206 506.906L351.53 505.96C343.711 503.28 335.517 501.922 327.175 501.922C285.773 501.922 252.09 535.605 252.09 577.007" fill="#350E27"/><path id="Fill 8" fill-rule="evenodd" clip-rule="evenodd" d="M242.045 543.966C238.955 546.184 236.242 546.865 234.6 545.833C232.959 544.804 232.392 542.065 233.044 538.318C233.731 534.364 235.653 529.729 238.455 525.263C241.257 520.797 244.596 517.05 247.857 514.712C250.002 513.173 251.966 512.374 253.515 512.374C254.197 512.374 254.799 512.529 255.301 512.844C256.942 513.874 257.509 516.613 256.858 520.361C256.17 524.314 254.249 528.949 251.447 533.415C248.645 537.88 245.306 541.627 242.045 543.966M257.843 520.531C258.578 516.303 257.864 513.272 255.833 511.997C253.802 510.721 250.762 511.398 247.274 513.899C243.91 516.312 240.477 520.158 237.608 524.732C234.738 529.304 232.768 534.069 232.058 538.147C231.323 542.375 232.037 545.406 234.068 546.681C234.739 547.102 235.521 547.31 236.392 547.31C238.157 547.31 240.292 546.453 242.628 544.778C245.991 542.366 249.424 538.52 252.294 533.946C255.163 529.374 257.134 524.61 257.843 520.531" fill="#350E27"/><path id="Fill 10" fill-rule="evenodd" clip-rule="evenodd" d="M252.209 542.072L252.973 542.718C254.451 540.97 255.84 539.065 257.101 537.055C258.105 535.457 259.019 533.803 259.818 532.141L258.917 531.708C258.133 533.337 257.238 534.957 256.254 536.524C255.018 538.494 253.657 540.361 252.209 542.072" fill="#350E27"/><path id="Fill 12" fill-rule="evenodd" clip-rule="evenodd" d="M244.072 550.543L243.555 549.688C238.865 552.521 234.667 553.066 231.734 551.225C228.855 549.419 227.512 545.498 227.952 540.186C228.402 534.756 230.658 528.564 234.305 522.751C241.775 510.848 252.773 504.254 258.827 508.05C262.295 510.226 263.523 515.62 262.113 522.478L263.093 522.679C264.273 516.938 263.649 512.136 261.456 509.177C264.106 510.117 266.721 510.479 269.175 510.479C277.199 510.479 283.489 506.624 283.576 506.568L283.046 505.721C282.927 505.794 271.026 513.075 259.318 507.18V507.18C252.794 503.142 241.205 509.875 233.459 522.22C229.727 528.165 227.418 534.517 226.955 540.103C226.529 545.258 227.734 549.208 230.338 551.411L230.329 551.422C242.513 561.52 237.036 580.464 236.98 580.653L237.938 580.94C237.992 580.758 242.885 563.839 233.376 553.004C234.103 553.195 234.871 553.295 235.677 553.295C238.188 553.295 241.047 552.37 244.072 550.543" fill="#350E27"/><path id="Fill 14" fill-rule="evenodd" clip-rule="evenodd" d="M234.723 500.246L227.857 472.456L226.887 472.697L233.752 500.486L234.723 500.246Z" fill="#350E27"/><path id="Fill 16" fill-rule="evenodd" clip-rule="evenodd" d="M212.708 525.966L184.09 525.342L184.068 526.342L212.687 526.966L212.708 525.966Z" fill="#350E27"/><path id="Fill 18" fill-rule="evenodd" clip-rule="evenodd" d="M223.89 510.551L202.416 497.288L201.891 498.138L223.365 511.402L223.89 510.551Z" fill="#350E27"/><path id="Fill 20" fill-rule="evenodd" clip-rule="evenodd" d="M359.226 450.774C355.277 451.262 351.751 449.724 349.791 446.656C346.765 441.916 347.86 434.656 352.798 426.736L351.949 426.207C346.8 434.467 345.706 442.116 348.948 447.194C350.856 450.182 354.089 451.864 357.789 451.864C358.301 451.864 358.822 451.832 359.349 451.767C366.584 450.87 372.866 444.448 376.153 434.587L375.205 434.271C372.042 443.757 366.069 449.926 359.226 450.774" fill="#350E27"/><path id="Fill 22" fill-rule="evenodd" clip-rule="evenodd" d="M300.986 660.413L300.5 661.286C315.229 669.486 328.666 670.304 333.433 670.304C334.59 670.304 335.236 670.256 335.268 670.253L335.186 669.257C335.025 669.267 319.024 670.455 300.986 660.413" fill="#350E27"/><path id="Fill 24" fill-rule="evenodd" clip-rule="evenodd" d="M289.412 456.408C289.412 454.342 287.737 452.666 285.67 452.666C283.603 452.666 281.928 454.342 281.928 456.408C281.928 458.475 283.603 460.15 285.67 460.15C287.737 460.15 289.412 458.475 289.412 456.408" fill="#350E27"/><path id="Fill 26" fill-rule="evenodd" clip-rule="evenodd" d="M272.826 446.933C272.826 444.866 271.151 443.191 269.084 443.191C267.017 443.191 265.342 444.866 265.342 446.933C265.342 448.999 267.017 450.675 269.084 450.675C271.151 450.675 272.826 448.999 272.826 446.933" fill="#350E27"/><path id="Fill 28" fill-rule="evenodd" clip-rule="evenodd" d="M251.87 533.681C257.733 524.337 259.389 514.819 255.567 512.421C251.745 510.023 243.894 515.653 238.031 524.997C232.168 534.341 230.513 543.86 234.334 546.257C238.156 548.656 246.007 543.025 251.87 533.681" fill="#350E27"/><path id="41:18279" fill-rule="evenodd" clip-rule="evenodd" d="M651.457 621.819C651.457 589.266 602.141 570.823 578.561 563.85C571.273 561.696 566.289 554.978 566.289 547.379C566.289 541.478 569.301 535.976 574.302 532.844C584.26 526.609 599.921 514.524 599.921 500.177C599.921 482.581 580.062 466.709 548.222 455.487C538.305 451.992 531.646 442.646 531.647 432.131C531.647 424.973 534.802 418.228 540.146 413.467C550.214 404.502 555.963 394.132 555.963 383.082C555.963 349.073 501.502 321.503 434.32 321.503H433.941C403.026 321.503 374.81 327.345 353.349 336.963C357.069 391.519 417.612 420.493 417.612 420.493L443.623 431.398C422.001 445.552 412.311 465.662 412.311 465.662C403.661 478.321 402.464 496.068 419.502 502.422C439.978 510.059 430.657 532.956 407.984 527.082C371.234 517.56 344.89 566.87 392.636 582.977C424.089 593.588 419.415 625.419 374.447 621.882C331.393 618.496 322.465 681.479 358.281 694.103C381.897 697.225 407.45 698.934 434.131 698.934C554.157 698.934 651.457 664.409 651.457 621.819" fill="#6EB010"/><g id="Group 34"><path id="Fill 32" fill-rule="evenodd" clip-rule="evenodd" d="M358.4 693.614C382.611 696.812 408.092 698.434 434.132 698.434C553.691 698.434 650.959 664.065 650.959 621.819C650.959 589.291 600.23 570.779 578.42 564.33C570.984 562.132 565.791 555.161 565.791 547.379C565.791 541.247 568.874 535.655 574.038 532.421C583.518 526.484 599.422 514.402 599.422 500.177C599.422 483.58 580.701 467.464 548.057 455.959C537.943 452.394 531.148 442.819 531.149 432.131C531.149 424.938 534.308 417.999 539.815 413.094C550.053 403.977 555.464 393.599 555.464 383.082C555.464 349.403 501.12 322.003 434.322 322.003H433.943C404.427 322.003 376.01 327.425 353.874 337.277C357.761 390.69 417.228 419.754 417.83 420.042L444.686 431.301L443.898 431.817C422.639 445.734 412.859 465.679 412.763 465.879C407.237 473.976 405.304 483.007 407.555 490.101C409.305 495.618 413.384 499.606 419.678 501.954C429.858 505.75 432.61 513.177 430.822 518.851C428.699 525.589 420.132 530.746 407.86 527.566C388.391 522.52 372.474 533.884 368.335 547.784C364.872 559.411 369.48 574.637 392.797 582.504C409.057 587.988 414.692 598.464 413.066 606.412C411.299 615.043 400.111 624.409 374.409 622.381C352.008 620.63 340.524 636.7 337.494 651.007C334.046 667.287 340.123 687.14 358.4 693.614M434.132 699.434C408.029 699.434 382.487 697.807 358.217 694.599L358.117 694.575C339.257 687.927 332.974 667.521 336.516 650.8C339.629 636.097 351.447 619.564 374.487 621.385C399.544 623.352 410.401 614.441 412.086 606.212C413.625 598.694 408.159 588.741 392.478 583.451C368.486 575.357 363.78 559.572 367.376 547.499C371.65 533.144 388.057 521.404 408.111 526.597C419.778 529.623 427.888 524.837 429.868 518.551C431.514 513.326 428.894 506.458 419.329 502.89C412.825 500.465 408.424 496.147 406.602 490.404C404.259 483.018 406.239 473.664 411.899 465.38C411.959 465.244 421.621 445.537 442.569 431.498L417.42 420.954C416.79 420.653 356.548 391.217 352.852 336.997L352.828 336.649L353.146 336.507C375.454 326.509 404.148 321.003 433.943 321.003H434.322C501.671 321.003 556.464 348.852 556.464 383.082C556.464 393.893 550.937 404.529 540.48 413.841C535.186 418.557 532.149 425.223 532.149 432.131C532.148 442.395 538.674 451.592 548.389 455.016C581.943 466.842 600.422 482.88 600.422 500.177C600.422 514.884 584.224 527.222 574.569 533.268C569.698 536.318 566.791 541.593 566.791 547.379C566.791 554.721 571.689 561.298 578.704 563.371C600.729 569.884 651.959 588.617 651.959 621.819C651.959 642.645 629.235 662.177 587.972 676.819C546.873 691.403 492.238 699.434 434.132 699.434" fill="#350E27"/></g><path id="Fill 35" fill-rule="evenodd" clip-rule="evenodd" d="M466.022 563.256C459.499 563.256 454.191 557.948 454.191 551.425V535.148H455.191V551.425C455.191 557.398 460.049 562.256 466.022 562.256C471.995 562.256 476.853 557.398 476.853 551.425V535.148H477.853V551.425C477.853 557.948 472.545 563.256 466.022 563.256" fill="#350E27"/><path id="Fill 37" fill-rule="evenodd" clip-rule="evenodd" d="M488.682 563.256C482.159 563.256 476.852 557.948 476.852 551.425V535.148H477.852V551.425C477.852 557.398 482.71 562.256 488.682 562.256C494.655 562.256 499.513 557.398 499.513 551.425V535.148H500.513V551.425C500.513 557.948 495.205 563.256 488.682 563.256" fill="#350E27"/><path id="Fill 39" fill-rule="evenodd" clip-rule="evenodd" d="M550.659 623.797C544.136 623.797 538.828 618.489 538.828 611.966V595.689H539.828V611.966C539.828 617.939 544.686 622.797 550.659 622.797C556.632 622.797 561.49 617.939 561.49 611.966V595.689H562.49V611.966C562.49 618.489 557.182 623.797 550.659 623.797" fill="#350E27"/><path id="Fill 41" fill-rule="evenodd" clip-rule="evenodd" d="M573.318 623.797C566.795 623.797 561.488 618.489 561.488 611.966V595.689H562.488V611.966C562.488 617.939 567.346 622.797 573.318 622.797C579.291 622.797 584.149 617.939 584.149 611.966V595.689H585.149V611.966C585.149 618.489 579.841 623.797 573.318 623.797" fill="#350E27"/><path id="Fill 43" fill-rule="evenodd" clip-rule="evenodd" d="M431.009 661.35C424.486 661.35 419.178 656.043 419.178 649.52V633.242H420.178V649.52C420.178 655.492 425.037 660.35 431.009 660.35C436.982 660.35 441.84 655.492 441.84 649.52V633.242H442.84V649.52C442.84 656.043 437.532 661.35 431.009 661.35" fill="#350E27"/><path id="Fill 45" fill-rule="evenodd" clip-rule="evenodd" d="M453.668 661.35C447.145 661.35 441.838 656.043 441.838 649.52V633.242H442.838V649.52C442.838 655.492 447.696 660.35 453.668 660.35C459.641 660.35 464.499 655.492 464.499 649.52V633.242H465.499V649.52C465.499 656.043 460.191 661.35 453.668 661.35" fill="#350E27"/><path id="Fill 47" fill-rule="evenodd" clip-rule="evenodd" d="M559.65 514.67C553.127 514.67 547.82 509.363 547.82 502.839V486.562H548.82V502.839C548.82 508.812 553.678 513.67 559.65 513.67C565.623 513.67 570.481 508.812 570.481 502.839V486.562H571.481V502.839C571.481 509.363 566.173 514.67 559.65 514.67" fill="#350E27"/><path id="Fill 49" fill-rule="evenodd" clip-rule="evenodd" d="M421.482 391.056C402.319 377.075 390.155 360.122 385.328 340.67L386.299 340.429C391.067 359.647 403.103 376.409 422.072 390.248L421.482 391.056Z" fill="#350E27"/><path id="Fill 51" fill-rule="evenodd" clip-rule="evenodd" d="M440.229 386.034C426.691 377.013 416.42 366.136 409.703 353.704L410.583 353.229C417.221 365.515 427.382 376.273 440.784 385.202L440.229 386.034Z" fill="#350E27"/><path id="Fill 53" fill-rule="evenodd" clip-rule="evenodd" d="M200.318 429.398C195.621 429.398 191.436 431.601 188.718 435.021L186.601 408.996L184.405 381.952L182.366 382.169C176.168 382.828 173.459 388.734 170.592 394.988C167.045 402.724 163.378 410.723 152.877 410.959C151.547 411 150.43 411.891 150.098 413.178C149.762 414.476 150.311 415.81 151.471 416.5C154.13 418.071 158.066 419.746 162.757 419.746C163.795 419.746 164.871 419.664 165.978 419.481C171.226 418.604 174.608 415.864 177.591 413.448C179.43 411.959 180.986 410.705 182.677 410.089L185.523 445.028L185.573 445.698L187.568 445.548L185.578 445.751C186.352 453.326 192.689 459.038 200.318 459.038C208.49 459.038 215.138 452.39 215.138 444.218C215.138 436.046 208.49 429.398 200.318 429.398" fill="#350E27"/><path id="Fill 55" fill-rule="evenodd" clip-rule="evenodd" d="M222.668 331.347V331.347L222.664 331.341L222.846 331.219L222.668 331.347ZM252.337 273.765L226.488 234.573L182.079 270.221L216.379 325.065C215.542 324.894 214.687 324.787 213.818 324.787C206.721 324.787 200.948 330.56 200.948 337.657C200.948 344.759 206.721 350.537 213.818 350.537C220.92 350.537 226.698 344.759 226.698 337.657C226.698 334.974 225.876 332.406 224.323 330.227L224.324 330.226L196.944 286.445L235.495 255.493L244.325 268.882C243.589 268.753 242.842 268.667 242.078 268.667C234.981 268.667 229.208 274.441 229.208 281.537C229.208 288.634 234.981 294.407 242.078 294.407C249.18 294.407 254.958 288.634 254.958 281.537C254.958 278.73 254.024 275.977 252.337 273.765V273.765Z" fill="#350E27"/><g id="Group 59"><path id="Fill 57" fill-rule="evenodd" clip-rule="evenodd" d="M285.209 218.814L301.008 206L318.751 191.613L283.454 185.05C282.104 184.805 280.807 185.475 280.222 186.714C279.638 187.955 279.949 189.382 280.996 190.266L297.19 203.946L276.597 220.645L276.566 220.67C276.133 220.976 275.729 221.305 275.359 221.652L275.314 221.689L275.315 221.691C275.286 221.719 275.251 221.745 275.222 221.774L276.145 222.722L276.567 223.248L275.177 221.809C272.939 223.971 271.707 226.876 271.707 229.988C271.707 236.263 276.812 241.368 283.087 241.368C289.362 241.368 294.467 236.263 294.467 229.988C294.467 224.439 290.472 219.812 285.209 218.814" fill="#350E27"/></g><path id="Fill 60" fill-rule="evenodd" clip-rule="evenodd" d="M422.19 321.79C422.434 321.778 422.679 321.768 422.923 321.757C422.679 321.768 422.434 321.778 422.19 321.79" fill="black"/><path id="Fill 62" fill-rule="evenodd" clip-rule="evenodd" d="M428.013 321.577C428.188 321.573 428.363 321.571 428.538 321.567C428.363 321.571 428.188 321.573 428.013 321.577" fill="black"/><path id="Fill 64" fill-rule="evenodd" clip-rule="evenodd" d="M433.943 321.503C432.131 321.503 430.331 321.527 428.539 321.567C428.364 321.571 428.189 321.573 428.014 321.577C426.307 321.618 424.611 321.681 422.924 321.757C422.68 321.768 422.435 321.778 422.191 321.79C422.189 321.79 422.188 321.79 422.186 321.791C424.469 324.027 449.547 349.895 442.324 400.179L442.339 400.189C448.222 397.875 454.623 396.59 461.327 396.59C466.921 396.59 472.303 397.486 477.352 399.123L477.356 399.116C484.158 351.246 467.084 326.864 464.423 323.405C454.797 322.164 444.713 321.503 434.322 321.503H433.943Z" fill="#350E27"/><path id="Fill 66" fill-rule="evenodd" clip-rule="evenodd" d="M477.351 399.123C472.302 397.486 466.919 396.59 461.326 396.59C454.622 396.59 448.221 397.875 442.338 400.189C423.061 407.771 409.41 426.538 409.41 448.506C409.41 477.179 432.653 500.422 461.326 500.422C489.997 500.422 513.242 477.179 513.242 448.506C513.242 425.428 498.178 405.877 477.351 399.123" fill="#350E27"/><path id="Fill 68" fill-rule="evenodd" clip-rule="evenodd" d="M482.674 448.506C482.674 436.716 473.116 427.158 461.326 427.158C449.536 427.158 439.979 436.716 439.979 448.506C439.979 460.296 449.536 469.853 461.326 469.853C473.116 469.853 482.674 460.296 482.674 448.506" fill="#FDC227"/><path id="Fill 70" fill-rule="evenodd" clip-rule="evenodd" d="M459.826 388.827L458.83 388.738C462.57 347.442 448.118 325.827 445.182 321.913L445.983 321.312C448.957 325.277 463.599 347.167 459.826 388.827" fill="white"/><path id="Fill 72" fill-rule="evenodd" clip-rule="evenodd" d="M442.521 400.654L442.156 399.723C448.285 397.313 454.735 396.09 461.326 396.09C466.83 396.09 472.273 396.95 477.505 398.647L477.197 399.598C472.064 397.934 466.724 397.09 461.326 397.09C454.86 397.09 448.534 398.289 442.521 400.654" fill="white"/></g></g></svg>