<svg width="608.7600000000001px" height="544.6224256292904px" viewBox="96.12 155.77803203661335 608.7600000000001 544.6224256292904" fill="none" xmlns="http://www.w3.org/2000/svg"><g id="Hobbies Outlines/Meditating"><g id="Outlines"><path id="Stroke 1 (Stroke)" fill-rule="evenodd" clip-rule="evenodd" d="M532.595 475.777C532.593 475.763 532.59 475.741 532.588 475.718L533.583 475.622C533.584 475.628 533.585 475.635 533.587 475.653L533.587 475.654C533.589 475.669 533.592 475.692 533.594 475.717L532.599 475.81C532.598 475.804 532.597 475.796 532.595 475.78" fill="black"/><path id="Stroke 3 (Stroke)" fill-rule="evenodd" clip-rule="evenodd" d="M269.095 475.799C269.093 475.808 269.093 475.813 269.091 475.826L268.096 475.733C268.099 475.701 268.106 475.647 268.108 475.629M269.095 475.799C269.096 475.789 269.098 475.775 269.102 475.744ZM269.102 475.744L268.109 475.623Z" fill="black"/><path id="Fill 5" fill-rule="evenodd" clip-rule="evenodd" d="M170.653 468.648L170.044 470.472C168.546 474.953 170.418 479.926 174.495 482.298C175.09 482.646 175.72 482.93 176.368 483.146L218.238 497.139C220.776 497.988 223.492 497.797 225.886 496.602C228.28 495.408 230.066 493.352 230.914 490.815L232.931 484.779C232.098 484.693 231.21 484.585 230.235 484.448C221.353 483.203 213.026 480.282 206.787 476.223V476.223C205.977 475.696 205.28 475.213 204.664 474.752C203.347 474.88 201.965 474.977 200.454 475.045C192.093 475.433 184.504 474.419 177.9 472.043C175.285 471.1 172.85 469.96 170.653 468.648M221.424 498.662C220.249 498.662 219.07 498.471 217.922 498.088L176.051 484.095C175.339 483.858 174.646 483.544 173.992 483.163C169.508 480.553 167.448 475.083 169.095 470.156L170.104 467.136L170.641 467.47C172.917 468.883 175.473 470.105 178.239 471.101C184.718 473.433 192.174 474.422 200.408 474.047C201.967 473.976 203.384 473.876 204.74 473.739L204.937 473.718L205.113 473.837C205.747 474.32 206.473 474.826 207.333 475.385H207.332C213.451 479.366 221.634 482.233 230.374 483.458C231.581 483.627 232.653 483.752 233.65 483.843L234.278 483.901L231.862 491.131C230.929 493.922 228.966 496.183 226.333 497.497C224.782 498.271 223.109 498.662 221.424 498.662" fill="#350E27"/><path id="Fill 7" fill-rule="evenodd" clip-rule="evenodd" d="M545.271 490.931C539.042 489.089 534.507 483.91 533.319 477.701L533.312 477.706C469.242 513.658 329.979 518.015 268.372 477.706L268.364 477.703V477.702C267.174 483.912 262.64 489.089 256.412 490.931C232.833 497.904 183.515 516.347 183.515 548.9C183.515 591.49 280.815 626.015 400.841 626.015C520.868 626.015 618.167 591.49 618.167 548.9C618.167 516.347 568.851 497.904 545.271 490.931" fill="#3F88EB"/><path id="Fill 9" fill-rule="evenodd" clip-rule="evenodd" d="M400.842 625.515C281.284 625.515 184.016 591.146 184.016 548.9C184.016 516.372 234.744 497.86 256.554 491.411C262.657 489.606 267.254 484.702 268.702 478.517C297.53 497.088 345.278 507.389 399.924 506.804C452.298 506.24 501.958 495.656 532.971 478.469C534.406 484.677 539.011 489.601 545.13 491.411C566.94 497.86 617.668 516.371 617.668 548.9C617.668 591.146 520.401 625.515 400.842 625.515M545.413 490.452C539.435 488.684 534.988 483.762 533.811 477.607L533.723 476.709L533.068 477.271C470.908 512.149 331.516 518.422 268.588 477.255L267.998 476.96L267.873 477.609C266.694 483.763 262.248 488.684 256.271 490.452C234.245 496.965 183.016 515.699 183.016 548.9C183.016 569.726 205.74 589.258 247.002 603.9C288.102 618.484 342.737 626.515 400.842 626.515C458.947 626.515 513.582 618.484 554.682 603.9C595.945 589.258 618.668 569.726 618.668 548.9C618.668 515.698 567.439 496.964 545.413 490.452" fill="#350E27"/><path id="Fill 11" fill-rule="evenodd" clip-rule="evenodd" d="M319.306 542.688C313.516 533.104 304.529 524.213 293.6 517.681C275.089 506.618 253.696 503.665 234.901 509.582L235.202 510.535C253.721 504.705 274.821 507.622 293.087 518.54C309.764 528.507 321.896 544 324.75 558.972L325.732 558.785C324.773 553.753 322.771 548.671 319.936 543.75C355.683 546.684 356.808 575.336 356.815 575.627L357.815 575.604C357.807 575.302 356.683 545.361 319.306 542.688" fill="#350E27"/><path id="Fill 13" fill-rule="evenodd" clip-rule="evenodd" d="M498.243 541.471C492.992 542.073 487.444 543.575 482.158 545.952C468.841 551.941 459.055 562.418 454.604 575.454L455.552 575.777C459.912 563.006 469.507 552.739 482.568 546.864C493.752 541.834 506.111 540.732 514.049 544.055L514.435 543.133C510.281 541.394 504.97 540.827 499.254 541.36C500.55 521.966 520.229 507.243 535.915 507.94L535.958 506.94C519.781 506.252 499.469 521.449 498.243 541.471" fill="#350E27"/><path id="Fill 15" fill-rule="evenodd" clip-rule="evenodd" d="M433.932 554.851L434.825 555.302C434.871 555.209 439.685 545.842 451.682 534.754L451.002 534.02C438.875 545.229 433.98 554.756 433.932 554.851" fill="#350E27"/><path id="Fill 17" fill-rule="evenodd" clip-rule="evenodd" d="M514.361 502.672L514.125 501.699C496.735 505.921 481.063 512.493 467.547 521.233L468.09 522.072C481.511 513.394 497.08 506.866 514.361 502.672" fill="#350E27"/><path id="Fill 19" fill-rule="evenodd" clip-rule="evenodd" d="M363.617 534.02L362.938 534.754C374.922 545.831 379.748 555.209 379.795 555.302L380.688 554.851C380.639 554.756 375.743 545.229 363.617 534.02" fill="#350E27"/><path id="Fill 21" fill-rule="evenodd" clip-rule="evenodd" d="M347.076 521.233C333.559 512.494 317.888 505.921 300.498 501.7L300.262 502.672C317.543 506.867 333.111 513.394 346.533 522.073L347.076 521.233Z" fill="#350E27"/><path id="Fill 23" fill-rule="evenodd" clip-rule="evenodd" d="M406.2 699.532V554.774C366.031 554.774 357.316 575.616 357.316 575.616V643.261C357.316 656.86 361.401 670.231 369.442 681.198C377.021 691.535 388.744 700.748 406.2 699.532" fill="#350E27"/><path id="Fill 25" fill-rule="evenodd" clip-rule="evenodd" d="M406.193 699.532V554.774C446.361 554.774 455.077 575.616 455.077 575.616V643.261C455.077 656.86 450.992 670.231 442.951 681.198C435.372 691.535 423.648 700.748 406.193 699.532" fill="#350E27"/><path id="Fill 27" fill-rule="evenodd" clip-rule="evenodd" d="M405.693 699.64H406.693V554.774H405.693V699.64Z" fill="white"/><path id="Fill 29" fill-rule="evenodd" clip-rule="evenodd" d="M414.855 699.432H415.855V555.077H414.855V699.432Z" fill="white"/><path id="Fill 30" fill-rule="evenodd" clip-rule="evenodd" d="M395.855 699.432H396.855V555.077H395.855V699.432Z" fill="white"/><path id="Fill 31" fill-rule="evenodd" clip-rule="evenodd" d="M438.919 633.898C438.936 633.798 438.95 633.699 438.95 633.594C438.95 632.535 438.091 631.676 437.031 631.676C435.972 631.676 435.113 632.535 435.113 633.594C435.113 634.654 435.972 635.513 437.031 635.513C437.628 635.513 438.153 635.236 438.506 634.809L454.872 642.198L455.284 641.286L438.919 633.898Z" fill="white"/><path id="Fill 32" fill-rule="evenodd" clip-rule="evenodd" d="M438.95 643.594C438.95 642.534 438.091 641.676 437.031 641.676C435.971 641.676 435.113 642.534 435.113 643.594C435.113 644.654 435.971 645.513 437.031 645.513C437.628 645.513 438.153 645.236 438.506 644.809L454.366 651.969L454.778 651.057L438.919 643.898C438.935 643.798 438.95 643.698 438.95 643.594" fill="white"/><path id="Fill 33" fill-rule="evenodd" clip-rule="evenodd" d="M438.95 653.594C438.95 652.534 438.091 651.676 437.031 651.676C435.971 651.676 435.113 652.534 435.113 653.594C435.113 654.654 435.971 655.513 437.031 655.513C437.628 655.513 438.153 655.236 438.506 654.809L452.563 661.156L452.975 660.243L438.919 653.898C438.935 653.798 438.95 653.698 438.95 653.594" fill="white"/><path id="Fill 34" fill-rule="evenodd" clip-rule="evenodd" d="M375.16 631.676C374.1 631.676 373.241 632.534 373.241 633.594C373.241 633.698 373.256 633.798 373.272 633.898L356.908 641.285L357.319 642.197L373.685 634.808C374.037 635.235 374.563 635.513 375.16 635.513C376.219 635.513 377.078 634.654 377.078 633.594C377.078 632.534 376.219 631.676 375.16 631.676" fill="white"/><path id="Fill 35" fill-rule="evenodd" clip-rule="evenodd" d="M375.16 641.676C374.1 641.676 373.241 642.534 373.241 643.594C373.241 643.698 373.256 643.798 373.272 643.898L357.414 651.057L357.825 651.969L373.685 644.808C374.037 645.235 374.563 645.513 375.16 645.513C376.219 645.513 377.078 644.654 377.078 643.594C377.078 642.534 376.219 641.676 375.16 641.676" fill="white"/><path id="Fill 36" fill-rule="evenodd" clip-rule="evenodd" d="M375.161 651.676C374.101 651.676 373.242 652.534 373.242 653.594C373.242 653.698 373.257 653.798 373.273 653.898L359.217 660.243L359.628 661.155L373.686 654.808C374.038 655.235 374.564 655.513 375.161 655.513C376.22 655.513 377.079 654.654 377.079 653.594C377.079 652.534 376.22 651.676 375.161 651.676" fill="white"/><path id="41:18094" fill-rule="evenodd" clip-rule="evenodd" d="M427.031 249.988L426.926 249.982C418.582 249.066 409.918 248.584 401.031 248.584H400.652C394.763 248.584 388.973 248.796 383.308 249.205L383.208 249.202C380.125 249.104 377.098 249.049 374.105 249.02C388.229 274.033 423.154 276.861 441.119 254.446L444.835 249.81C439.061 249.741 433.133 249.794 427.031 249.988" fill="#FFDCDB"/><path id="Fill 38" fill-rule="evenodd" clip-rule="evenodd" d="M374.976 249.53C381.609 260.705 393.22 267.969 406.21 269.021C419.488 270.094 432.394 264.532 440.727 254.134L443.8 250.3C438.244 250.247 432.614 250.311 427.045 250.488L427.024 250.489L426.897 250.482C418.435 249.554 409.742 249.084 401.03 249.084H400.651C394.86 249.084 389.037 249.293 383.343 249.704L383.192 249.702C380.601 249.62 377.906 249.563 374.976 249.53M409.463 270.153C408.356 270.153 407.245 270.108 406.13 270.018C392.518 268.915 380.383 261.158 373.668 249.266L373.242 248.512L374.108 248.521C377.389 248.552 380.37 248.612 383.223 248.703L383.321 248.705C388.988 248.294 394.836 248.084 400.651 248.084H401.03C409.778 248.084 418.508 248.556 426.979 249.486L427.034 249.488C432.955 249.3 438.949 249.24 444.839 249.31L445.865 249.322L441.508 254.759C433.666 264.543 421.875 270.152 409.463 270.153" fill="#350E27"/><path id="41:18098" fill-rule="evenodd" clip-rule="evenodd" d="M410.254 157.5C385.838 157.5 365.879 176.536 364.381 200.574L364.376 200.504C334.347 182.763 340.474 238.721 365.385 213.529L365.379 213.446C369.936 234.039 388.29 249.446 410.254 249.446C435.645 249.446 456.227 228.863 456.227 203.473C456.227 178.083 435.645 157.5 410.254 157.5" fill="#FFDCDB"/><path id="Fill 40" fill-rule="evenodd" clip-rule="evenodd" d="M353.985 212.68C353.985 211.405 352.951 210.371 351.676 210.371C350.401 210.371 349.367 211.405 349.367 212.68C349.367 213.955 350.401 214.989 351.676 214.989C352.951 214.989 353.985 213.955 353.985 212.68" fill="#350E27"/><path id="Fill 41" fill-rule="evenodd" clip-rule="evenodd" d="M361.636 210.371C361.636 209.096 360.602 208.061 359.327 208.061C358.052 208.061 357.018 209.096 357.018 210.371C357.018 211.646 358.052 212.68 359.327 212.68C360.602 212.68 361.636 211.646 361.636 210.371" fill="#350E27"/><path id="Stroke 42 (Stroke)" fill-rule="evenodd" clip-rule="evenodd" d="M364.443 200.177C366.377 176.288 386.365 157.5 410.753 157.5C436.421 157.5 457.226 178.307 457.226 203.973C457.226 229.639 436.421 250.446 410.753 250.446C388.889 250.446 370.564 235.343 365.611 215.003C359.609 220.821 354.57 222.078 350.811 220.592C346.959 219.069 344.736 214.77 344.28 210.362C343.824 205.95 345.111 201.193 348.568 198.692C351.957 196.241 357.215 196.1 364.443 200.177ZM364.814 201.108L364.621 201.434C357.189 197.044 352.178 197.315 349.155 199.502C346.093 201.717 344.839 206.048 345.275 210.259C345.711 214.474 347.814 218.332 351.178 219.662C354.505 220.977 359.352 219.924 365.529 213.677L365.778 213.924L366.367 213.838C370.874 234.207 389.029 249.446 410.753 249.446C435.868 249.446 456.226 229.087 456.226 203.973C456.226 178.859 435.868 158.5 410.753 158.5C386.603 158.5 366.861 177.329 365.379 201.105L364.814 201.108Z" fill="#350E27"/><path id="Fill 43" fill-rule="evenodd" clip-rule="evenodd" d="M415.307 209.025L408.471 218.341L409.278 218.933L416.114 209.617L415.307 209.025Z" fill="#350E27"/><path id="Fill 44" fill-rule="evenodd" clip-rule="evenodd" d="M399.342 236.598C393.363 236.598 388.499 231.734 388.499 225.755C388.499 220.697 392.079 216.243 397.011 215.162L396.798 214.186C391.41 215.366 387.499 220.231 387.499 225.755C387.499 226.668 387.613 227.555 387.81 228.41C384.7 231.485 378.071 232.562 373.71 230.648L373.309 231.564C374.892 232.259 376.756 232.585 378.661 232.585C382.185 232.585 385.83 231.457 388.109 229.481C389.675 234.189 394.114 237.598 399.342 237.598C400.879 237.598 402.375 237.307 403.789 236.734L403.414 235.807C402.12 236.332 400.75 236.598 399.342 236.598" fill="#350E27"/><path id="Fill 45" fill-rule="evenodd" clip-rule="evenodd" d="M378.119 207.858C381.79 207.858 384.777 204.871 384.777 201.2V198.374H383.777V201.2C383.777 204.32 381.239 206.858 378.119 206.858C374.999 206.858 372.461 204.32 372.461 201.2V198.374H371.461V201.2C371.461 204.871 374.448 207.858 378.119 207.858" fill="#350E27"/><path id="41:18105" fill-rule="evenodd" clip-rule="evenodd" d="M456.226 203.473C456.226 178.083 435.644 157.5 410.253 157.5C399.085 157.5 388.856 161.492 380.893 168.115L404.759 209.764L408.093 205.165C412.037 199.726 420.175 199.828 423.981 205.365C427.001 209.762 425.917 215.771 421.55 218.834L413.281 224.636L425.925 246.702C443.598 240.294 456.226 223.359 456.226 203.473" fill="#6EB010"/><path id="Fill 47" fill-rule="evenodd" clip-rule="evenodd" d="M413.943 224.783L426.15 246.087C443.86 239.479 455.727 222.408 455.727 203.473C455.727 178.399 435.328 158 410.255 158C399.808 158 389.628 161.631 381.538 168.232L404.809 208.844L407.689 204.871C409.666 202.146 412.727 200.588 416.095 200.649C419.463 200.691 422.487 202.307 424.394 205.082C427.556 209.684 426.41 216.037 421.839 219.243L413.943 224.783ZM425.702 247.316L412.621 224.488L421.264 218.425C425.388 215.532 426.422 209.801 423.57 205.648C421.849 203.145 419.121 201.687 416.084 201.649C416.043 201.649 416.002 201.648 415.962 201.648C412.972 201.648 410.258 203.032 408.5 205.458L404.712 210.684L380.252 167.999L380.574 167.73C388.895 160.811 399.435 157 410.255 157C435.88 157 456.727 177.848 456.727 203.473C456.727 222.967 444.418 240.529 426.097 247.173L425.702 247.316Z" fill="#350E27"/><path id="Fill 48" fill-rule="evenodd" clip-rule="evenodd" d="M607.735 405.098L607.783 405.087C658.412 390.859 645.093 332.34 579.447 338.887L579.391 338.855C604.89 295.428 547.874 246.133 427.031 249.988L426.925 249.982C418.582 249.066 409.918 248.584 401.031 248.584H400.652C394.763 248.584 388.973 248.796 383.308 249.205L383.208 249.202C262.334 245.349 210.102 295.364 236.375 338.89L236.293 338.878C170.768 332.396 157.456 390.781 207.933 405.056L208.091 405.098C152.841 407.134 142.896 450.836 170.378 467.895C178.584 472.989 190.119 475.713 204.791 474.236L204.811 474.235C212.098 479.785 222.81 483.358 233.605 484.341C247.543 485.611 261.618 482.563 268.64 473.874L268.673 473.834C268.68 474.042 268.684 474.25 268.684 474.459C268.684 475.003 268.654 475.542 268.601 476.076C268.598 476.108 268.592 476.139 268.589 476.171C268.535 476.687 268.461 477.199 268.364 477.702V477.703L268.372 477.706C329.979 518.015 469.242 513.658 533.312 477.706L533.319 477.701C533.222 477.196 533.148 476.684 533.093 476.168C533.09 476.137 533.086 476.106 533.083 476.075C533.029 475.542 533 475.003 533 474.459C533 470.576 534.304 466.865 536.622 463.889L536.703 463.923C540.464 465.097 543.125 465.317 543.125 465.317C545.524 476.502 555.901 482.384 568.295 484.08C582.99 486.092 600.523 482.216 611 474.245L611.014 474.234C619.343 475.075 626.655 474.554 632.93 473.024C674.746 462.828 670.126 407.397 607.735 405.098" fill="#FDC227"/><path id="Fill 49" fill-rule="evenodd" clip-rule="evenodd" d="M627.74 482.723C631.166 480.727 633.167 476.952 632.93 473.024C630.412 473.638 627.719 474.08 624.868 474.346C620.615 474.744 616.002 474.738 611.014 474.234L611 474.245C601.424 481.532 585.957 485.38 572.145 484.454C570.847 484.368 569.558 484.253 568.295 484.08L570.598 490.973C572.439 496.482 578.397 499.454 583.905 497.614L584.202 497.515L625.776 483.62C626.475 483.387 627.128 483.08 627.74 482.723" fill="#FDC227"/><path id="Fill 50" fill-rule="evenodd" clip-rule="evenodd" d="M207.061 475.804C206.284 475.298 205.526 474.779 204.811 474.235L204.792 474.236C203.304 474.386 201.856 474.482 200.433 474.546C191.757 474.945 184.288 473.81 178.071 471.572C175.251 470.556 172.68 469.324 170.379 467.895L169.571 470.314C167.963 475.124 170.028 480.277 174.245 482.731C174.857 483.087 175.513 483.388 176.211 483.62L217.785 497.515L218.082 497.614C223.59 499.454 229.548 496.482 231.389 490.973L233.605 484.341C232.503 484.241 231.403 484.106 230.306 483.952C221.714 482.748 213.401 479.929 207.061 475.804" fill="#FDC227"/><path id="Fill 51" fill-rule="evenodd" clip-rule="evenodd" d="M569.02 484.677L571.072 490.815C571.919 493.352 573.705 495.407 576.098 496.602C578.493 497.797 581.208 497.988 583.746 497.139L584.043 497.04L625.617 483.146C626.245 482.937 626.874 482.649 627.487 482.291C630.541 480.511 632.443 477.168 632.448 473.652C630.081 474.198 627.549 474.598 624.914 474.844C620.547 475.251 615.919 475.22 611.159 474.75C601.629 481.912 586.333 485.911 572.111 484.953C570.948 484.875 569.945 484.785 569.02 484.677M580.56 498.661C578.876 498.661 577.203 498.271 575.652 497.496C573.019 496.183 571.055 493.922 570.123 491.131L567.564 483.476L568.361 483.585C569.485 483.739 570.697 483.857 572.177 483.955C586.272 484.901 601.384 480.932 610.696 473.848L610.853 473.728L611.063 473.737C615.833 474.218 620.462 474.255 624.82 473.848C627.632 473.586 630.321 473.146 632.811 472.538L633.392 472.396L633.428 472.993C633.675 477.098 631.541 481.086 627.991 483.155C627.319 483.547 626.626 483.864 625.933 484.095L584.061 498.088C582.915 498.471 581.735 498.661 580.56 498.661" fill="#350E27"/><path id="Fill 52" fill-rule="evenodd" clip-rule="evenodd" d="M632.812 472.538C626.623 474.046 619.724 474.472 612.297 473.838C614.053 472.392 615.573 470.854 616.792 469.243L615.996 468.64C614.612 470.468 612.842 472.209 610.738 473.816L610.697 473.848C600.509 481.598 583.109 485.599 568.362 483.585C560.356 482.489 546.495 478.644 543.614 465.212L543.536 464.849L543.166 464.818C543.14 464.815 540.508 464.587 536.816 463.428L536.462 463.279L536.412 463.345C535.857 463.225 535.314 463.1 534.784 462.967L534.753 462.912C534.734 462.923 534.715 462.933 534.697 462.943C517.716 458.625 512.966 446.727 511.657 439.841C509.51 428.546 513.728 417.246 519.043 413.649C521.078 413.807 523.175 413.906 525.347 413.934L525.359 412.934C493.554 412.536 476.744 397.552 474.584 383.799C472.567 370.954 482.171 359.328 499.648 353.457L499.415 352.489C499.113 352.533 469.652 356.657 462.646 329.742L461.679 329.994C467.422 352.058 487.747 353.918 496.022 353.724C480.161 360.073 471.631 371.438 473.596 383.955C475.633 396.926 490.209 410.951 517.555 413.518C512.434 417.857 508.51 428.645 510.674 440.028C512.002 447.014 516.743 458.983 533.434 463.644C526.326 467.574 520.74 470.405 520.695 470.429C468.395 494.709 423.949 479.772 413.762 464.59L412.932 465.146C416.431 470.361 423.89 475.553 434.262 479.202C404.824 494.446 360.256 495.548 333.791 481.669C339.704 478.469 344.184 473.58 346.921 467.245L346.003 466.849C342.392 475.205 335.65 480.973 326.508 483.525C312.391 487.469 293.569 483.475 279.676 473.591C277.536 472.068 275.078 470.264 272.379 468.237C272.668 467.437 272.916 466.617 273.111 465.773C275.914 465.422 293.86 462.512 301.071 445.26C309.075 426.115 296.986 416.701 292.303 413.901C320.221 413.084 337.791 401.026 341.72 386.356C345.282 373.054 336.733 360.509 319.802 353.724C328.071 353.923 348.404 352.057 354.146 329.994L353.179 329.742C346.178 356.641 316.708 352.533 316.411 352.489L316.177 353.457C334.747 359.694 344.394 372.506 340.753 386.098C335.747 404.794 307.825 419.107 264.141 410.283L263.942 411.263C273.084 413.109 281.547 413.948 289.268 413.948C289.606 413.948 289.935 413.938 290.27 413.935C291.657 414.578 309.192 423.242 300.148 444.875C292.594 462.948 272.858 464.802 272.659 464.818L272.29 464.849L272.212 465.212C271.548 468.307 270.227 471.101 268.285 473.517L268.251 473.559C261.918 481.395 248.981 485.242 233.65 483.843C222.535 482.83 212.134 479.184 205.114 473.837C202.997 472.225 201.219 470.475 199.83 468.64L199.032 469.243C200.253 470.856 201.774 472.394 203.532 473.841C190.529 474.955 179.174 472.767 170.642 467.47C159.146 460.335 153.815 447.823 157.06 435.597C160.699 421.88 176.001 406.805 208.033 405.601C212.598 406.875 217.592 407.764 222.881 408.24L222.971 407.244C217.785 406.777 212.892 405.908 208.415 404.666L208.069 404.575C183.906 397.741 175.642 381.205 178.171 367.847C181.228 351.703 200.64 335.927 236.087 339.367C238.183 342.803 240.765 346.201 243.779 349.47L244.515 348.792C241.481 345.503 238.887 342.084 236.803 338.631C228.295 324.536 228 309.911 235.95 296.337C250.216 271.978 296.388 246.928 383.193 249.702L383.344 249.703C389.038 249.292 394.861 249.083 400.652 249.083H401.031C409.743 249.083 418.436 249.553 426.898 250.481L427.046 250.487C516.583 247.63 564.307 273.293 579.134 298.261C586.869 311.286 586.808 325.235 578.959 338.601L578.958 338.602C576.926 342.064 574.354 345.493 571.311 348.792L572.045 349.47C575.06 346.201 577.614 342.805 579.658 339.371C615.146 335.884 634.602 351.681 637.657 367.858C640.185 381.241 631.886 397.794 607.673 404.599L603.86 405.455L604.239 405.469C600.653 406.288 596.84 406.885 592.855 407.244L592.945 408.24C598.233 407.764 603.227 406.875 607.792 405.601C641.275 406.86 657.925 423.781 659.572 440.005C661.113 455.185 650.359 468.26 632.812 472.538M532.584 476.121L532.596 476.221C532.639 476.63 532.695 477.037 532.763 477.439C512.529 488.717 484.202 496.98 453.023 501.598V483.468C457.056 483.953 461.306 484.223 465.754 484.223C476.008 484.223 487.287 482.814 499.226 479.466V490.981H500.226V479.172C507.009 477.214 513.997 474.64 521.131 471.328C521.193 471.297 527.276 468.214 534.828 464.014C535.133 464.089 535.454 464.155 535.767 464.225C533.664 467.198 532.499 470.797 532.499 474.459C532.499 475.002 532.528 475.562 532.584 476.121M452.023 483.344V501.747C437.356 503.878 422.072 505.199 406.713 505.65V489.672C417.107 487.556 427.007 484.216 435.578 479.653C440.48 481.278 445.996 482.557 452.023 483.344M356.895 503.922V490.369C364.128 491.719 371.799 492.393 379.587 492.393C388.306 492.393 397.166 491.55 405.713 489.88V505.682C389.291 506.124 372.799 505.559 356.895 503.922M332.697 482.231C339.416 485.852 347.334 488.489 355.895 490.171V503.818C338.777 502.004 322.359 498.936 307.476 494.506V485.514C309.971 485.845 312.45 486.022 314.878 486.022C319.048 486.022 323.071 485.522 326.777 484.488C328.878 483.901 330.849 483.141 332.697 482.231M269.099 476.124C269.155 475.555 269.184 474.994 269.184 474.459C269.184 474.305 269.179 474.151 269.175 473.998C270.337 472.526 271.284 470.924 272.005 469.206C274.62 471.168 277.01 472.921 279.096 474.405C287.186 480.161 296.925 483.938 306.476 485.37V494.199C292.293 489.897 279.526 484.354 268.915 477.468C268.986 477.054 269.045 476.621 269.099 476.124M660.567 439.904C658.923 423.711 642.847 406.846 610.633 404.745C633.383 397.314 641.155 380.987 638.639 367.672C635.523 351.172 615.948 335.042 580.285 338.304C587.866 324.85 587.77 310.847 579.994 297.751C565.021 272.537 516.984 246.613 427.058 249.489L426.98 249.485C418.509 248.555 409.779 248.083 401.031 248.083H400.652C394.837 248.083 388.989 248.293 383.322 248.705L383.224 248.702C345.179 247.488 311.158 251.672 284.835 260.797C260.841 269.115 243.638 281.23 235.087 295.831C227.101 309.467 227.23 324.131 235.442 338.295C199.86 335.077 180.307 351.189 177.188 367.661C174.669 380.969 182.432 397.307 205.192 404.744C174.52 406.724 159.715 421.687 156.093 435.34C152.733 448.002 158.237 460.947 170.114 468.319C173.558 470.457 177.449 472.097 181.707 473.234L179.255 484.697L180.233 484.906L182.677 473.478C187.603 474.69 193.002 475.239 198.77 475.105L194.682 489.821L195.645 490.089L199.815 475.08C201.406 475.02 203.022 474.913 204.665 474.751C207.602 476.962 211.109 478.878 214.99 480.447L210.577 495.122L211.535 495.409L215.922 480.82C221.279 482.875 227.31 484.269 233.559 484.839C248.544 486.203 261.329 482.621 268.165 475.187C268.15 475.476 268.126 475.783 268.092 476.118C268.039 476.62 267.967 477.118 267.873 477.609L267.801 478.026L268.145 478.155C296.138 496.448 342.364 506.828 395.494 506.827C396.964 506.827 398.442 506.819 399.923 506.804C452.629 506.235 502.585 495.52 533.557 478.142L533.865 477.891L533.81 477.606C533.716 477.115 533.644 476.617 533.58 476.024C533.527 475.495 533.499 474.969 533.499 474.459C533.499 470.871 534.67 467.34 536.802 464.476C539.686 465.356 541.876 465.677 542.714 465.776C545.075 475.975 554.118 482.644 568.227 484.575C574.05 485.374 580.285 485.232 586.345 484.31L590.723 495.364L591.653 494.995L587.356 484.145C592.333 483.313 597.162 481.952 601.523 480.13L604.996 490.564L605.945 490.248L602.448 479.739C605.677 478.319 608.632 476.648 611.16 474.75C613.62 474.993 616.017 475.106 618.36 475.118L621.333 485.088L622.291 484.803L619.406 475.123C624.238 475.078 628.806 474.543 633.048 473.509C651.102 469.107 662.161 455.602 660.567 439.904" fill="#350E27"/><path id="Fill 53" fill-rule="evenodd" clip-rule="evenodd" d="M453.414 249.837C452.192 252.93 450.671 255.831 448.901 258.524L440.057 255.433L439.726 256.378L448.33 259.384C445.828 263.016 442.851 266.236 439.505 268.985L432.665 262.277L431.964 262.991L438.723 269.62C434.386 273.03 429.458 275.655 424.147 277.361L420.712 268.044L419.774 268.389L423.191 277.658C418.866 278.946 414.303 279.634 409.603 279.634C409.205 279.634 408.81 279.621 408.413 279.61V269.621H407.413V279.577C401.592 279.303 395.971 277.946 390.788 275.675L394.945 267.036L394.044 266.603L389.876 275.263C386.072 273.499 382.52 271.239 379.315 268.549L386.235 262.555L385.581 261.799L378.542 267.897C375.432 265.172 372.67 262.035 370.351 258.551L378.197 255.209L377.806 254.289L369.805 257.697C368.057 254.944 366.576 251.99 365.418 248.856L364.48 249.203C371.422 268.003 389.556 280.634 409.603 280.634C429.482 280.634 447.044 268.69 454.344 250.204L453.414 249.837Z" fill="#350E27"/><path id="41:18124" fill-rule="evenodd" clip-rule="evenodd" d="M666.66 519.847C666.66 515.417 670.251 511.826 674.681 511.826C679.111 511.826 682.702 515.417 682.702 519.847C682.702 524.277 679.111 527.868 674.681 527.868C670.251 527.868 666.66 524.277 666.66 519.847M701.746 574.151C696.999 566.365 689.069 561.985 684.764 560.065L684.755 559.993C683.306 549.486 674.053 542.111 671.198 540.064C671.056 539.962 671.176 539.753 671.342 539.804C695.899 547.325 702.57 521.207 692.941 508.668C681.446 493.7 655.299 495.215 654.478 513.973C654.478 513.973 646.134 506.398 637.106 510.048L627.739 482.723C627.127 483.08 626.474 483.387 625.775 483.62L584.201 497.515L614.522 530.36C611.011 540.854 617.118 555.004 630.65 559.856L630.66 559.885C636.065 579.372 652.61 587.286 660.104 589.933C662.313 590.713 664.769 590.172 666.438 588.529C668.128 586.866 668.744 584.367 667.938 582.173L667.957 582.197C672.358 587.671 678.111 589.265 681.574 589.71C683.365 589.942 685.149 589.266 686.362 587.928C687.649 586.508 688.12 584.519 687.595 582.675C686.968 580.47 686.072 578.509 685.014 576.772L685.07 576.826C689.241 580.561 693.571 581.8 696.375 582.193C698.162 582.443 699.949 581.767 701.139 580.411C702.667 578.672 702.95 576.126 701.746 574.151" fill="#FFDCDB"/><path id="Fill 55" fill-rule="evenodd" clip-rule="evenodd" d="M682.204 519.847C682.204 523.994 678.83 527.368 674.683 527.368C670.536 527.368 667.162 523.994 667.162 519.847C667.162 515.7 670.536 512.326 674.683 512.326C678.83 512.326 682.204 515.7 682.204 519.847M700.766 580.081C699.679 581.32 698.06 581.923 696.446 581.698C693.65 581.306 689.475 580.082 685.392 576.437C680.618 568.66 672.79 565.359 670.756 564.607C670.202 559.088 667.447 554.643 663.041 552.472C663.427 549.339 662.493 546.622 662.435 546.459L661.492 546.793C661.511 546.846 663.338 552.149 660.692 556.198L661.53 556.744C662.215 555.697 662.625 554.586 662.862 553.496C668.183 556.285 670.802 562.789 669.556 570.387L670.542 570.549C670.816 568.88 670.905 567.262 670.834 565.715C673.277 566.7 680.317 570.021 684.589 577.032C685.688 578.836 686.538 580.781 687.116 582.812C687.59 584.475 687.159 586.306 685.994 587.592C684.884 588.818 683.259 589.424 681.64 589.214C678.569 588.819 672.775 587.347 668.379 581.917C668.323 581.775 668.264 581.632 668.197 581.493C665.045 574.81 658.91 571.05 654.809 569.182C654.668 560.918 649.592 557.38 647.114 556.149C647.042 553.878 646.371 552.105 646.325 551.988L645.393 552.349C645.409 552.391 647.004 556.6 645.403 560.158L646.315 560.568C646.808 559.472 647.027 558.339 647.094 557.266C649.45 558.557 653.5 561.788 653.792 568.738C652.071 568.021 650.878 567.689 650.725 567.648L650.466 568.615C650.587 568.647 662.6 571.97 667.293 581.918C667.348 582.036 667.399 582.155 667.444 582.276L667.471 582.346C668.203 584.338 667.661 586.625 666.09 588.172C664.549 589.692 662.319 590.183 660.272 589.461C653.424 587.042 637.084 579.429 631.407 560.628C632.103 560.851 632.808 561.058 633.522 561.228L633.753 560.255C632.771 560.022 631.797 559.733 630.857 559.398L630.821 559.385C617.211 554.505 611.651 540.521 614.999 530.519C616.052 527.372 617.899 524.765 620.49 522.77L619.881 521.977C617.385 523.9 615.489 526.465 614.342 529.424L585.095 497.744L625.935 484.095C626.447 483.924 626.958 483.707 627.461 483.448L636.489 509.784C633.28 511.204 630.363 513.859 627.821 517.708L628.655 518.259C631.199 514.409 634.105 511.802 637.296 510.512C645.918 507.027 654.063 514.271 654.144 514.343L654.933 515.058L654.98 513.994C655.279 507.16 659.193 502.06 665.721 500C673.009 497.702 683.462 499.422 690.609 506.764L681.349 514.554C679.787 512.59 677.382 511.326 674.683 511.326C669.984 511.326 666.162 515.148 666.162 519.847C666.162 524.546 669.984 528.368 674.683 528.368C679.382 528.368 683.204 524.546 683.204 519.847C683.204 518.206 682.73 516.679 681.925 515.377L691.303 507.489C691.73 507.964 692.148 508.453 692.547 508.973C697.809 515.826 698.085 526.742 693.173 533.822C690.577 537.562 684.309 543.25 671.49 539.326C671.175 539.232 670.848 539.372 670.705 539.662C670.564 539.945 670.65 540.284 670.909 540.47C673.6 542.4 682.286 549.334 684.104 559.235C682.78 558.679 681.956 558.414 681.916 558.402L681.613 559.355C681.625 559.359 682.769 559.725 684.521 560.503L684.562 560.522C688.815 562.418 696.646 566.744 701.321 574.411V574.41C702.389 576.162 702.16 578.493 700.766 580.081M702.175 573.891V573.89C697.451 566.143 689.634 561.722 685.223 559.722C683.869 550.558 676.714 543.763 672.967 540.777C685.215 543.853 691.367 538.178 693.994 534.392C699.14 526.975 698.852 515.542 693.34 508.364C685.984 498.785 673.727 496.424 665.42 499.047C658.781 501.141 654.681 506.189 654.047 512.979C651.786 511.25 644.851 506.707 637.413 509.396L628.016 481.984L627.489 482.291C626.877 482.649 626.247 482.937 625.619 483.146L583.311 497.285L613.958 530.484C610.677 540.852 616.384 555.129 630.242 560.239C635.823 579.964 652.856 587.903 659.939 590.405C660.673 590.663 661.427 590.789 662.171 590.789C663.872 590.789 665.527 590.129 666.791 588.885C668.159 587.538 668.863 585.711 668.787 583.896C673.203 588.497 678.559 589.826 681.512 590.206C683.46 590.454 685.405 589.731 686.734 588.264C688.131 586.724 688.645 584.53 688.077 582.538C687.706 581.233 687.227 579.962 686.645 578.738C690.256 581.355 693.807 582.337 696.308 582.688C698.252 582.962 700.206 582.234 701.517 580.742C703.197 578.828 703.468 576.011 702.175 573.891" fill="#350E27"/><path id="Fill 56" fill-rule="evenodd" clip-rule="evenodd" d="M650.23 535.627C644.134 534.304 638.853 530.098 635.739 524.085L634.85 524.546C636.976 528.648 640.078 531.94 643.753 534.12C643.786 535.291 643.777 540.216 641.513 542.637L642.244 543.32C644.502 540.905 644.761 536.546 644.762 534.683C646.421 535.551 648.183 536.205 650.018 536.604C651.382 536.899 652.749 537.045 654.094 537.045C658.037 537.045 661.806 535.797 664.83 533.425L664.212 532.638C660.391 535.638 655.295 536.727 650.23 535.627" fill="#350E27"/><path id="41:18132" fill-rule="evenodd" clip-rule="evenodd" d="M127.305 527.868C122.875 527.868 119.284 524.276 119.284 519.847C119.284 515.417 122.875 511.825 127.305 511.825C131.735 511.825 135.326 515.417 135.326 519.847C135.326 524.276 131.735 527.868 127.305 527.868V527.868ZM217.785 497.514L176.211 483.62C175.513 483.388 174.857 483.087 174.245 482.73L164.881 510.048C155.853 506.397 147.509 513.972 147.509 513.972C146.687 495.215 120.54 493.699 109.045 508.668C99.4157 521.207 106.088 547.324 130.644 539.804C130.811 539.753 130.93 539.962 130.788 540.063C127.933 542.11 118.68 549.485 117.232 559.993L117.222 560.064C112.917 561.984 104.988 566.364 100.241 574.15C99.0357 576.126 99.3197 578.672 100.847 580.411C102.037 581.766 103.825 582.442 105.611 582.192C108.415 581.8 112.745 580.56 116.916 576.825L116.972 576.771C115.914 578.509 115.019 580.47 114.391 582.675C113.867 584.518 114.337 586.508 115.625 587.928C116.837 589.265 118.622 589.941 120.412 589.71C123.875 589.264 129.628 587.671 134.03 582.196L134.048 582.173C133.242 584.366 133.859 586.865 135.548 588.528C137.217 590.172 139.673 590.713 141.882 589.932C149.377 587.286 165.921 579.372 171.326 559.885L171.336 559.855C184.868 555.004 190.976 540.853 187.464 530.359L217.785 497.514Z" fill="#FFDCDB"/><path id="Fill 58" fill-rule="evenodd" clip-rule="evenodd" d="M127.304 512.325C131.451 512.325 134.825 515.699 134.825 519.846C134.825 523.994 131.451 527.368 127.304 527.368C123.157 527.368 119.783 523.994 119.783 519.846C119.783 515.699 123.157 512.325 127.304 512.325V512.325ZM171.166 559.385L171.132 559.4L171.131 559.397C170.188 559.733 169.214 560.021 168.234 560.255L168.465 561.227C169.178 561.058 169.882 560.851 170.579 560.628C164.933 579.416 148.571 587.041 141.715 589.461C139.665 590.185 137.439 589.688 135.897 588.172C134.326 586.625 133.784 584.338 134.516 582.345L134.541 582.276H134.542C134.588 582.156 134.638 582.037 134.695 581.918C139.383 571.98 151.401 568.646 151.522 568.613L151.262 567.647C151.109 567.688 149.916 568.02 148.195 568.737C148.488 561.786 152.537 558.555 154.894 557.265C154.961 558.339 155.18 559.472 155.673 560.567L156.585 560.157C154.988 556.61 156.579 552.39 156.595 552.347L155.662 551.987C155.617 552.104 154.946 553.877 154.873 556.147C152.395 557.379 147.319 560.917 147.178 569.181C143.077 571.049 136.942 574.809 133.79 581.491C133.73 581.619 133.673 581.754 133.609 581.917C129.226 587.344 123.422 588.818 120.347 589.214C118.731 589.425 117.104 588.816 115.994 587.592C114.828 586.306 114.398 584.474 114.871 582.811C115.449 580.781 116.3 578.836 117.399 577.031L117.404 577.023C121.671 570.027 128.71 566.701 131.154 565.715C131.083 567.262 131.172 568.88 131.446 570.549L132.432 570.387C131.185 562.79 133.803 556.285 139.125 553.497C139.362 554.586 139.773 555.696 140.457 556.744L141.294 556.197C138.656 552.158 140.476 546.846 140.495 546.792L139.552 546.459C139.494 546.622 138.561 549.339 138.947 552.471C134.541 554.642 131.785 559.088 131.232 564.606C129.199 565.358 121.362 568.663 116.586 576.449L116.582 576.453C112.536 580.076 108.345 581.304 105.541 581.697C103.925 581.924 102.309 581.319 101.221 580.081C99.8273 578.493 99.5993 576.161 100.666 574.411C105.342 566.743 113.173 562.417 117.425 560.521L117.426 560.52C119.201 559.729 120.363 559.358 120.374 559.354L120.073 558.401C120.032 558.414 119.207 558.679 117.88 559.235C119.662 549.364 128.381 542.404 131.078 540.47C131.337 540.284 131.423 539.945 131.283 539.662C131.139 539.371 130.811 539.23 130.497 539.325C117.679 543.254 111.411 537.562 108.815 533.821C103.903 526.741 104.178 515.826 109.441 508.972C109.84 508.453 110.258 507.963 110.685 507.487L120.063 515.377C119.257 516.679 118.783 518.206 118.783 519.846C118.783 524.546 122.605 528.368 127.304 528.368C132.003 528.368 135.825 524.546 135.825 519.846C135.825 515.147 132.003 511.325 127.304 511.325C124.605 511.325 122.2 512.59 120.638 514.554L111.378 506.764C118.527 499.421 128.979 497.702 136.266 500C142.794 502.058 146.709 507.16 147.008 513.994L147.055 515.057L147.844 514.343C147.925 514.27 156.067 507.022 164.692 510.512C167.882 511.802 170.788 514.408 173.333 518.259L174.167 517.708C171.623 513.858 168.707 511.204 165.499 509.783L174.525 483.453C175.018 483.706 175.53 483.921 176.051 484.095L216.892 497.744L187.645 529.425C186.499 526.466 184.602 523.899 182.107 521.976L181.497 522.769C184.088 524.764 185.935 527.372 186.989 530.518C190.336 540.519 184.777 554.505 171.166 559.385V559.385ZM218.676 497.285L176.368 483.145C175.721 482.929 175.091 482.645 174.495 482.299L173.969 481.991L164.575 509.395C157.143 506.705 150.202 511.249 147.941 512.978C147.307 506.188 143.205 501.14 136.567 499.046C128.26 496.429 116.002 498.785 108.648 508.363C103.135 515.542 102.848 526.974 107.994 534.391C110.62 538.178 116.776 543.857 129.02 540.775C125.283 543.757 118.154 550.532 116.765 559.721C112.356 561.721 104.537 566.141 99.8133 573.889C98.5203 576.011 98.7903 578.828 100.471 580.741C101.781 582.233 103.726 582.962 105.679 582.687C108.172 582.339 111.709 581.361 115.348 578.723C114.764 579.951 114.283 581.227 113.909 582.538C113.343 584.53 113.858 586.724 115.253 588.263C116.583 589.73 118.534 590.454 120.475 590.206C123.424 589.827 128.769 588.5 133.201 583.89C133.123 585.707 133.827 587.537 135.196 588.885C136.46 590.129 138.115 590.789 139.817 590.789C140.561 590.789 141.315 590.663 142.048 590.404C149.13 587.903 166.158 579.968 171.746 560.237C185.606 555.128 191.311 540.851 188.029 530.483L218.676 497.285Z" fill="#350E27"/><path id="Fill 59" fill-rule="evenodd" clip-rule="evenodd" d="M151.756 535.627C146.689 536.726 141.594 535.637 137.774 532.638L137.156 533.425C140.18 535.798 143.949 537.045 147.891 537.045C149.237 537.045 150.604 536.899 151.968 536.604C153.803 536.205 155.564 535.551 157.224 534.683C157.225 536.546 157.484 540.905 159.742 543.32L160.473 542.637C158.209 540.216 158.2 535.291 158.232 534.12C161.907 531.94 165.01 528.648 167.135 524.546L166.248 524.085C163.133 530.098 157.851 534.304 151.756 535.627" fill="#350E27"/></g></g></svg>