<svg width="440.54999999999995px" height="380.43478260869557px" viewBox="180.22500000000002 319.9656750572083 440.54999999999995 380.43478260869557" fill="none" xmlns="http://www.w3.org/2000/svg"><g id="Hobbies Outlines/Reading"><g id="Outlines"><path id="41:18750" fill-rule="evenodd" clip-rule="evenodd" d="M399.826 699.932C279.8 699.932 182.5 665.406 182.5 622.816C182.5 590.263 231.817 571.82 255.396 564.847C262.684 562.693 267.668 555.975 267.668 548.375C267.668 542.475 264.657 536.973 259.656 533.841C249.697 527.606 234.037 515.52 234.037 501.174C234.037 483.578 253.894 467.706 285.736 456.484C295.653 452.989 302.31 443.643 302.31 433.128C302.31 425.971 299.155 419.224 293.81 414.464C283.744 405.499 277.994 395.129 277.994 384.079C277.994 350.07 332.456 322.5 399.637 322.5H400.015C467.197 322.5 521.658 350.07 521.658 384.079C521.658 395.129 515.909 405.499 505.842 414.464C500.497 419.224 497.343 425.971 497.343 433.128C497.342 443.643 504 452.989 513.917 456.484C545.758 467.706 565.616 483.578 565.616 501.174C565.616 515.52 549.956 527.606 539.997 533.841C534.996 536.973 531.984 542.475 531.984 548.375C531.984 555.975 536.969 562.693 544.256 564.847C567.836 571.82 617.152 590.263 617.152 622.816C617.152 665.406 519.852 699.932 399.826 699.932" fill="#6EB010"/><g id="Group 5"><path id="Fill 3" fill-rule="evenodd" clip-rule="evenodd" d="M399.826 699.432C280.268 699.432 183 665.062 183 622.816C183 590.288 233.728 571.776 255.538 565.327C262.974 563.128 268.168 556.158 268.168 548.375C268.168 542.244 265.085 536.652 259.921 533.417C250.441 527.482 234.537 515.399 234.537 501.174C234.537 484.577 253.259 468.46 285.902 456.956C296.015 453.391 302.81 443.816 302.81 433.128C302.81 425.935 299.651 418.997 294.143 414.091C283.906 404.974 278.494 394.596 278.494 384.079C278.494 350.4 332.839 323 399.637 323H400.015C402.618 323 405.199 323.046 407.761 323.128V360.658L407.738 360.885C407.515 376.419 399.263 390.902 386.199 398.681C379.036 402.948 371.178 405.736 362.841 406.992C362.21 401.388 360.367 395.706 357.335 390.094L356.455 390.569C359.519 396.241 361.355 401.978 361.913 407.62H361.914L361.917 407.656C363.078 419.51 358.481 430.8 348.972 439.447C339.889 447.708 337.654 461.312 343.536 472.531C348.312 481.637 350.117 490.325 348.904 498.337L348.834 498.638L348.847 498.649C348.329 501.856 347.324 504.989 345.838 507.96L346.732 508.408C348.172 505.529 349.16 502.499 349.721 499.387C365.364 512.649 370.293 528.59 371.655 539.697L371.761 540.59L371.959 540.718C399.643 558.468 408.055 580.703 408.136 580.924L408.605 582.203L409.075 580.924C409.153 580.71 417.239 559.325 443.644 541.766C443.949 541.564 444.255 541.363 444.563 541.161L444.791 541.014L444.788 540.356C446.057 529.055 450.926 512.843 466.8 499.386C467.357 502.491 468.346 505.525 469.788 508.408L470.682 507.96C469.157 504.911 468.131 501.696 467.627 498.401L467.603 498.252C466.419 490.251 468.228 481.597 472.983 472.53C478.866 461.312 476.631 447.707 467.547 439.447C458.067 430.826 453.467 419.569 454.593 407.755L454.606 407.621H454.607C455.164 401.98 457 396.243 460.064 390.569L459.185 390.094C458.176 391.962 457.311 393.838 456.565 395.716C450.692 394.72 445.475 392.886 441.065 390.251L440.552 391.11C445.015 393.776 450.277 395.638 456.186 396.663C454.896 400.114 454.063 403.568 453.679 406.993C445.345 405.737 437.486 402.949 430.321 398.681C417.25 390.897 408.997 376.405 408.779 360.817L408.761 360.641V323.161C471.492 325.428 521.158 351.883 521.158 384.079C521.158 394.596 515.747 404.974 505.509 414.091C500.002 418.996 496.843 425.935 496.843 433.128C496.842 443.815 503.637 453.391 513.751 456.956C546.394 468.46 565.116 484.577 565.116 501.174C565.116 515.4 549.212 527.482 539.731 533.417C534.567 536.652 531.484 542.244 531.484 548.375C531.484 556.158 536.678 563.128 544.114 565.327C565.924 571.776 616.652 590.287 616.652 622.816C616.652 665.062 519.385 699.432 399.826 699.432M466.875 440.187C475.621 448.141 477.769 461.25 472.098 472.066C467.273 481.265 465.422 490.071 466.593 498.245C450.113 511.987 445.097 528.657 443.791 540.3V540.472C443.556 540.625 443.323 540.78 443.092 540.934C419.884 556.365 410.67 574.765 408.605 579.453C406.499 574.671 396.951 555.625 372.698 540.004L372.648 539.578C371.251 528.185 366.171 511.79 349.928 498.246C351.099 490.075 349.247 481.267 344.422 472.066C338.751 461.251 340.899 448.141 349.645 440.187C359.265 431.438 363.98 420.037 362.952 407.997C371.432 406.724 379.423 403.881 386.71 399.54C398.378 392.592 406.294 380.419 408.262 366.898C410.237 380.436 418.148 392.596 429.809 399.54C437.097 403.881 445.089 406.725 453.567 407.997C452.529 420.012 457.247 431.431 466.875 440.187M544.397 564.368C537.383 562.294 532.484 555.718 532.484 548.375C532.484 542.59 535.391 537.315 540.263 534.265C549.918 528.219 566.116 515.882 566.116 501.174C566.116 483.877 547.637 467.838 514.083 456.013C504.368 452.589 497.842 443.392 497.843 433.128C497.843 426.22 500.88 419.554 506.175 414.838C516.631 405.526 522.158 394.89 522.158 384.079C522.158 349.849 467.365 322 400.015 322H399.637C332.287 322 277.494 349.849 277.494 384.079C277.494 394.889 283.021 405.525 293.478 414.838C298.773 419.554 301.81 426.221 301.81 433.128C301.81 443.392 295.284 452.589 285.57 456.013C252.016 467.838 233.537 483.876 233.537 501.174C233.537 515.881 249.735 528.219 259.39 534.265C264.261 537.315 267.168 542.59 267.168 548.375C267.168 555.718 262.269 562.294 255.255 564.368C233.229 570.881 182 589.615 182 622.816C182 643.642 204.724 663.175 245.986 677.817C287.086 692.4 341.721 700.432 399.826 700.432C457.931 700.432 512.566 692.4 553.666 677.817C594.929 663.175 617.652 643.642 617.652 622.816C617.652 589.614 566.423 570.88 544.397 564.368" fill="#350E27"/></g><path id="Fill 6" fill-rule="evenodd" clip-rule="evenodd" d="M386.219 384.237L385.508 383.534C380.695 388.402 374.331 391.458 366.594 392.616L366.743 393.605C374.698 392.414 381.25 389.262 386.219 384.237" fill="#350E27"/><path id="Fill 8" fill-rule="evenodd" clip-rule="evenodd" d="M394.02 371.546C397.028 363.235 397.895 352.709 396.597 340.259L395.603 340.362C396.884 352.661 396.036 363.039 393.08 371.206L394.02 371.546Z" fill="#350E27"/><path id="Fill 10" fill-rule="evenodd" clip-rule="evenodd" d="M326.389 464.705C328.729 476.279 324.815 485.918 324.775 486.014L325.699 486.397C325.74 486.299 329.772 476.392 327.369 464.507L326.389 464.705Z" fill="#350E27"/><path id="Fill 12" fill-rule="evenodd" clip-rule="evenodd" d="M425.037 370.196C425.086 370.516 426.309 378.122 433.237 385.323L433.958 384.63C427.262 377.669 426.037 370.121 426.025 370.045L425.037 370.196Z" fill="#350E27"/><path id="Fill 14" fill-rule="evenodd" clip-rule="evenodd" d="M539.766 516.738L540.112 517.677C548.788 514.485 554.179 508.018 554.179 500.8C554.179 495.051 550.729 489.695 544.712 486.106L544.201 486.964C549.907 490.369 553.179 495.411 553.179 500.8C553.179 507.588 548.039 513.695 539.766 516.738" fill="#350E27"/><path id="Fill 16" fill-rule="evenodd" clip-rule="evenodd" d="M246.779 498.8C246.779 493.412 250.051 488.369 255.758 484.965L255.245 484.106C249.229 487.696 245.779 493.051 245.779 498.8C245.779 506.018 251.17 512.486 259.847 515.677L260.193 514.739C251.919 511.696 246.779 505.588 246.779 498.8" fill="#350E27"/><path id="Fill 18" fill-rule="evenodd" clip-rule="evenodd" d="M617.05 620.359C617.041 620.25 617.036 620.139 617.027 620.03C616.959 619.262 616.861 618.504 616.739 617.753C616.717 617.615 616.695 617.478 616.671 617.341C616.54 616.599 616.386 615.865 616.205 615.138C616.175 615.016 616.142 614.895 616.11 614.773C615.914 614.028 615.699 613.289 615.453 612.559C615.434 612.504 615.412 612.448 615.393 612.392C615.146 611.672 614.872 610.961 614.576 610.257C614.545 610.182 614.517 610.107 614.485 610.033C614.185 609.331 613.856 608.638 613.51 607.953C613.449 607.834 613.39 607.713 613.328 607.594C612.983 606.927 612.616 606.268 612.23 605.617C612.158 605.498 612.086 605.379 612.014 605.259C611.614 604.602 611.197 603.951 610.759 603.308C610.702 603.226 610.644 603.146 610.586 603.064C610.137 602.416 609.669 601.774 609.181 601.141C609.155 601.108 609.131 601.075 609.106 601.042C608.609 600.401 608.087 599.77 607.552 599.146C607.469 599.048 607.387 598.951 607.303 598.853C606.783 598.256 606.247 597.669 605.697 597.087C605.592 596.976 605.487 596.866 605.381 596.755C604.825 596.177 604.256 595.605 603.67 595.042C603.576 594.951 603.48 594.862 603.385 594.771C602.771 594.187 602.146 593.609 601.502 593.042C601.474 593.016 601.444 592.991 601.414 592.965C600.777 592.405 600.123 591.853 599.459 591.307C599.374 591.238 599.29 591.167 599.204 591.096C598.549 590.563 597.88 590.039 597.202 589.52C597.079 589.426 596.957 589.333 596.833 589.239C596.16 588.73 595.478 588.229 594.785 587.735C594.664 587.649 594.543 587.564 594.423 587.479C593.709 586.975 592.988 586.477 592.256 585.989C592.186 585.943 592.115 585.898 592.046 585.851C591.31 585.363 590.566 584.881 589.814 584.409C589.757 584.373 589.7 584.336 589.643 584.3C588.882 583.823 588.112 583.355 587.336 582.894C587.219 582.825 587.103 582.755 586.985 582.685C586.228 582.238 585.465 581.798 584.697 581.367C584.571 581.296 584.445 581.224 584.319 581.154C583.539 580.718 582.757 580.291 581.971 579.871C581.882 579.823 581.793 579.777 581.704 579.729C580.045 578.848 578.371 578.002 576.694 577.188C576.609 577.147 576.524 577.105 576.439 577.064C575.628 576.672 574.817 576.29 574.005 575.914C573.897 575.864 573.788 575.813 573.68 575.763C572.868 575.39 572.058 575.024 571.249 574.666C571.164 574.628 571.078 574.59 570.993 574.553C569.27 573.794 567.554 573.067 565.858 572.377C565.84 572.37 565.821 572.362 565.804 572.355C564.967 572.014 564.136 571.684 563.31 571.36C563.242 571.334 563.175 571.307 563.109 571.281C562.294 570.963 561.487 570.654 560.687 570.352C560.63 570.331 560.574 570.31 560.519 570.289C557.994 569.34 555.543 568.471 553.209 567.683C553.208 567.682 553.207 567.682 553.207 567.682C539.623 567.834 525.253 570.956 514.616 577.785L513.402 577.76C443.13 576.345 372.834 576.917 302.595 579.474C288.192 571.536 266.88 567.288 247.795 567.231C245.876 567.867 243.868 568.559 241.799 569.307C241.737 569.33 241.675 569.351 241.613 569.374C241.282 569.494 240.949 569.616 240.615 569.739C240.497 569.782 240.381 569.825 240.262 569.869C239.954 569.982 239.644 570.098 239.334 570.214C239.188 570.269 239.042 570.324 238.895 570.379C238.594 570.493 238.291 570.608 237.988 570.724C237.835 570.782 237.683 570.84 237.529 570.899C237.229 571.015 236.928 571.131 236.626 571.25C236.463 571.313 236.3 571.378 236.136 571.441C235.841 571.557 235.546 571.673 235.249 571.792C235.083 571.858 234.918 571.924 234.752 571.991C234.448 572.113 234.144 572.235 233.839 572.359C233.698 572.417 233.557 572.474 233.416 572.533C233.088 572.667 232.76 572.8 232.43 572.938C232.383 572.958 232.335 572.978 232.287 572.998C231.536 573.31 230.781 573.63 230.025 573.958C229.913 574.005 229.8 574.053 229.688 574.102C229.412 574.222 229.134 574.344 228.858 574.466C228.651 574.557 228.444 574.647 228.237 574.739C227.98 574.853 227.722 574.969 227.465 575.085C227.241 575.186 227.016 575.287 226.792 575.388C226.539 575.504 226.287 575.619 226.035 575.735C225.804 575.841 225.573 575.948 225.343 576.055C225.094 576.171 224.845 576.288 224.596 576.405C224.359 576.517 224.122 576.63 223.885 576.742C223.644 576.857 223.403 576.973 223.161 577.089C222.918 577.208 222.675 577.326 222.432 577.445C222.193 577.562 221.954 577.678 221.716 577.796C221.467 577.92 221.219 578.045 220.971 578.17C220.741 578.285 220.512 578.399 220.282 578.515C220.012 578.653 219.743 578.793 219.473 578.931C219.265 579.039 219.056 579.146 218.849 579.255C218.518 579.426 218.19 579.601 217.861 579.776C217.693 579.866 217.524 579.954 217.357 580.044C216.912 580.283 216.469 580.523 216.028 580.767C215.853 580.863 215.678 580.962 215.504 581.059C215.204 581.226 214.904 581.393 214.606 581.562C214.415 581.671 214.225 581.781 214.034 581.89C213.757 582.049 213.479 582.209 213.203 582.37C213.003 582.487 212.804 582.604 212.606 582.722C212.338 582.88 212.07 583.04 211.803 583.2C211.605 583.319 211.408 583.439 211.211 583.56C210.945 583.721 210.68 583.884 210.416 584.048C210.221 584.17 210.028 584.291 209.834 584.412C209.567 584.581 209.3 584.75 209.034 584.921C208.847 585.041 208.661 585.16 208.475 585.281C208.203 585.458 207.933 585.635 207.663 585.815C207.486 585.932 207.309 586.048 207.133 586.167C206.843 586.361 206.557 586.557 206.27 586.755C206.118 586.859 205.965 586.963 205.814 587.067C205.455 587.316 205.1 587.568 204.747 587.821C204.67 587.876 204.592 587.93 204.515 587.985C204.083 588.296 203.654 588.611 203.23 588.927C203.132 589.001 203.036 589.075 202.939 589.148C202.617 589.391 202.297 589.634 201.98 589.88C201.834 589.993 201.69 590.107 201.545 590.221C201.279 590.431 201.012 590.64 200.75 590.852C200.593 590.979 200.438 591.107 200.282 591.234C200.035 591.437 199.788 591.64 199.544 591.845C199.385 591.978 199.228 592.112 199.071 592.246C198.834 592.449 198.598 592.653 198.364 592.857C198.208 592.994 198.052 593.131 197.898 593.269C197.666 593.475 197.437 593.683 197.208 593.892C197.058 594.03 196.907 594.168 196.759 594.306C196.529 594.52 196.303 594.736 196.077 594.952C195.936 595.088 195.794 595.222 195.654 595.359C195.417 595.59 195.184 595.824 194.952 596.058C194.83 596.18 194.707 596.302 194.587 596.425C194.31 596.709 194.038 596.996 193.769 597.283C193.698 597.359 193.625 597.433 193.554 597.509C193.213 597.878 192.878 598.249 192.549 598.623C192.495 598.683 192.444 598.746 192.39 598.807C192.121 599.117 191.854 599.427 191.593 599.741C191.488 599.868 191.387 599.996 191.283 600.123C191.078 600.374 190.875 600.626 190.676 600.879C190.561 601.026 190.449 601.174 190.336 601.322C190.154 601.56 189.974 601.797 189.798 602.038C189.682 602.194 189.57 602.351 189.457 602.509C189.288 602.744 189.122 602.979 188.959 603.216C188.848 603.379 188.738 603.541 188.629 603.704C188.471 603.94 188.316 604.178 188.163 604.418C188.057 604.582 187.952 604.747 187.85 604.912C187.699 605.155 187.552 605.399 187.407 605.643C187.311 605.807 187.213 605.969 187.119 606.133C186.971 606.392 186.829 606.652 186.687 606.913C186.604 607.065 186.519 607.217 186.438 607.371C186.279 607.671 186.129 607.974 185.979 608.278C185.922 608.393 185.862 608.507 185.806 608.624C185.603 609.046 185.408 609.473 185.222 609.903C185.202 609.949 185.184 609.997 185.164 610.043C185.001 610.423 184.844 610.806 184.695 611.192C184.639 611.337 184.589 611.483 184.535 611.629C184.427 611.918 184.321 612.208 184.221 612.501C184.163 612.672 184.109 612.845 184.053 613.019C183.967 613.288 183.881 613.557 183.801 613.829C183.747 614.013 183.697 614.199 183.646 614.384C183.573 614.648 183.503 614.913 183.437 615.179C183.39 615.37 183.345 615.561 183.301 615.754C183.24 616.018 183.184 616.285 183.13 616.551C183.091 616.745 183.052 616.939 183.017 617.133C182.967 617.405 182.923 617.678 182.881 617.952C182.851 618.144 182.821 618.336 182.794 618.529C182.755 618.814 182.723 619.1 182.692 619.387C182.672 619.572 182.65 619.755 182.633 619.941C182.604 620.257 182.584 620.577 182.565 620.896C182.555 621.054 182.542 621.212 182.534 621.37C182.513 621.849 182.5 622.331 182.5 622.816C182.5 641.488 201.202 658.611 232.323 671.953C235.801 673.444 239.434 674.888 243.214 676.282C245.052 676.96 246.925 677.626 248.831 678.279C273.552 686.755 303.925 693.169 337.747 696.74C343.081 697.302 348.5 697.796 353.996 698.214C355.714 698.344 357.438 698.468 359.17 698.585C372.34 699.469 385.931 699.931 399.826 699.931C421.659 699.931 442.739 698.79 462.619 696.664C504.271 692.211 540.651 683.442 567.633 671.823C598.571 658.5 617.153 641.427 617.153 622.816C617.153 621.987 617.112 621.17 617.05 620.359" fill="#5FA200"/><g id="Group 22"><path id="Fill 20" fill-rule="evenodd" clip-rule="evenodd" d="M185.164 610.042L185.623 610.239C185.463 610.614 185.308 610.991 185.161 611.371L185.004 611.801C184.897 612.087 184.792 612.372 184.695 612.66L184.529 613.171C184.444 613.437 184.359 613.701 184.281 613.969L184.127 614.517C184.057 614.776 183.987 615.037 183.922 615.3L183.788 615.864C183.728 616.125 183.673 616.388 183.62 616.65C183.581 616.84 183.543 617.031 183.509 617.222C183.46 617.49 183.416 617.759 183.375 618.027C183.343 618.231 183.314 618.413 183.289 618.596C183.251 618.877 183.22 619.158 183.189 619.44L183.131 619.985C183.102 620.297 183.082 620.611 183.063 620.926L183.034 621.393C183.013 621.863 183 622.338 183 622.815C183 640.516 200.586 657.803 232.52 671.492C235.977 672.975 239.634 674.429 243.387 675.813C245.221 676.488 247.107 677.159 248.993 677.806C273.974 686.37 304.682 692.745 337.799 696.242C343.151 696.807 348.613 697.302 354.034 697.716C355.749 697.845 357.473 697.969 359.203 698.085C372.494 698.978 386.161 699.431 399.826 699.431C421.2 699.431 442.309 698.332 462.566 696.166C503.705 691.768 539.968 683.19 567.435 671.363C599.173 657.695 616.652 640.454 616.652 622.815C616.652 622.07 616.619 621.279 616.552 620.398L616.528 620.074C616.465 619.352 616.372 618.618 616.246 617.832L616.178 617.425C616.048 616.687 615.893 615.957 615.72 615.259L615.626 614.9C615.416 614.101 615.205 613.387 614.979 612.719L614.92 612.554C614.683 611.863 614.412 611.155 614.115 610.451L614.025 610.231C613.753 609.592 613.438 608.92 613.063 608.178L612.884 607.823C612.543 607.165 612.182 606.515 611.8 605.871L611.586 605.519C611.191 604.869 610.779 604.225 610.346 603.59L610.177 603.351C609.73 602.707 609.268 602.072 608.785 601.446L609.105 601.041L608.711 601.348C608.219 600.713 607.702 600.089 607.172 599.471L606.924 599.179C606.41 598.589 605.879 598.007 605.334 597.43L605.021 597.102C604.469 596.528 603.904 595.96 603.323 595.401L603.039 595.132C602.431 594.553 601.81 593.98 601.171 593.416L601.414 592.965L601.084 593.341C600.45 592.783 599.801 592.235 599.142 591.693L598.888 591.482C598.237 590.953 597.572 590.432 596.898 589.917L596.531 589.637C595.862 589.131 595.184 588.633 594.495 588.142L594.134 587.887C593.424 587.386 592.706 586.89 591.978 586.404L591.766 586.265C591.036 585.781 590.296 585.302 589.548 584.831L589.382 584.727C588.619 584.248 587.852 583.782 587.08 583.323L586.731 583.116C585.976 582.67 585.217 582.231 584.452 581.802L584.074 581.59C583.298 581.156 582.518 580.73 581.735 580.312L581.467 580.169C579.868 579.32 578.187 578.468 576.476 577.638L576.221 577.514C575.413 577.123 574.603 576.741 573.795 576.367L573.471 576.217C572.661 575.845 571.852 575.479 571.047 575.122L570.852 575.037C569.099 574.264 567.375 573.533 565.669 572.839C564.78 572.478 563.951 572.148 563.127 571.825L562.924 571.745C562.114 571.43 561.309 571.12 560.51 570.819L560.339 570.755C557.974 569.866 555.546 569 553.127 568.183C538.472 568.358 524.535 572.01 514.887 578.205L514.758 578.287L513.392 578.26C443.439 576.85 372.524 577.428 302.613 579.974L302.475 579.979L302.353 579.911C288.848 572.468 267.98 567.803 247.875 567.73C245.897 568.387 243.91 569.075 241.969 569.776L241.872 569.812L232.479 573.459C231.73 573.771 230.977 574.09 230.224 574.416L219.08 579.697L217.593 580.483C217.151 580.722 216.709 580.961 216.269 581.204L210.1 584.835L208.747 585.699C208.476 585.875 208.208 586.052 207.939 586.23L207.412 586.581C207.123 586.774 206.838 586.97 206.554 587.166L206.098 587.478C205.742 587.725 205.389 587.976 205.038 588.227L204.805 588.392C204.377 588.7 203.951 589.013 203.528 589.328L203.238 589.548C202.919 589.788 202.601 590.03 202.285 590.274L201.854 590.613C201.539 590.862 201.3 591.05 201.063 591.24L200.599 591.62C200.353 591.822 200.108 592.023 199.865 592.228L198.231 593.642C198 593.847 197.772 594.053 197.545 594.261L197.1 594.671C196.872 594.884 196.647 595.099 196.423 595.313L196.004 595.716C195.768 595.945 195.538 596.177 195.308 596.409L194.945 596.774C194.669 597.056 194.4 597.34 194.133 597.624L193.921 597.848C193.582 598.214 193.25 598.582 192.924 598.952L192.768 599.134C192.5 599.441 192.236 599.749 191.977 600.06L191.669 600.438C191.468 600.687 191.266 600.936 191.07 601.187L190.732 601.626C190.554 601.86 190.375 602.095 190.201 602.333L189.864 602.799C189.696 603.032 189.532 603.265 189.371 603.499L189.045 603.98C188.888 604.215 188.735 604.45 188.584 604.687L188.274 605.175C188.125 605.415 187.98 605.656 187.837 605.897L187.553 606.381C187.406 606.638 187.266 606.894 187.125 607.151L186.879 607.604C186.724 607.899 186.575 608.199 186.427 608.499L186.257 608.839C186.057 609.257 185.864 609.678 185.681 610.101L185.164 610.042ZM399.826 700.431C386.139 700.431 372.449 699.978 359.136 699.083C357.403 698.967 355.677 698.843 353.958 698.713C348.528 698.299 343.056 697.802 337.694 697.236C304.504 693.732 273.719 687.34 248.668 678.751C246.775 678.103 244.882 677.43 243.041 676.75C239.271 675.36 235.599 673.901 232.125 672.412C199.802 658.554 182 640.94 182 622.815C182 622.322 182.013 621.834 182.035 621.347L182.065 620.866C182.085 620.541 182.105 620.217 182.135 619.896L182.195 619.333C182.226 619.041 182.259 618.75 182.298 618.46C182.324 618.271 182.354 618.083 182.384 617.894C182.429 617.597 182.475 617.318 182.525 617.043C182.561 616.846 182.6 616.648 182.639 616.452C182.694 616.181 182.752 615.91 182.813 615.642C182.858 615.446 182.903 615.252 182.951 615.06C183.018 614.787 183.09 614.52 183.163 614.252L183.321 613.688C183.402 613.412 183.49 613.138 183.577 612.865L183.748 612.339C183.848 612.042 183.957 611.747 184.066 611.454L184.228 611.012C184.379 610.62 184.539 610.231 184.705 609.845L185.222 609.902L184.763 609.704C184.952 609.268 185.149 608.835 185.355 608.406L185.53 608.057C185.682 607.748 185.835 607.442 185.995 607.138L186.247 606.673C186.391 606.409 186.535 606.146 186.685 605.884L186.976 605.389C187.124 605.141 187.272 604.894 187.425 604.647L187.742 604.146C187.896 603.905 188.053 603.664 188.213 603.425L188.547 602.933C188.712 602.692 188.88 602.454 189.051 602.217L189.395 601.74C189.572 601.499 189.755 601.259 189.938 601.019L190.282 600.57C190.483 600.314 190.688 600.06 190.895 599.807L191.208 599.422C191.472 599.104 191.741 598.791 192.013 598.479L192.174 598.29C192.505 597.914 192.843 597.54 193.187 597.169L193.402 596.941C193.676 596.65 193.95 596.36 194.229 596.075L194.599 595.704C194.831 595.47 195.066 595.234 195.305 595L195.73 594.591C195.958 594.372 196.187 594.155 196.418 593.939L196.87 593.522C197.101 593.313 197.332 593.103 197.566 592.895L199.222 591.462C199.467 591.256 199.716 591.051 199.965 590.847L200.435 590.463C200.675 590.27 200.917 590.079 201.159 589.888L201.673 589.484C201.992 589.237 202.314 588.993 202.637 588.749L202.93 588.526C203.358 588.208 203.788 587.892 204.222 587.579L204.456 587.413C204.811 587.159 205.168 586.906 205.528 586.656L205.986 586.342C206.275 586.144 206.563 585.946 206.854 585.751L207.386 585.397C207.657 585.218 207.929 585.039 208.202 584.861L214.358 581.127L215.787 580.328C216.229 580.084 216.673 579.843 217.12 579.603L228.657 574.008L229.829 573.497C230.585 573.17 231.342 572.849 232.095 572.535L232.43 572.938L232.237 572.477L241.539 568.868C243.604 568.122 245.625 567.422 247.638 566.756L247.796 566.73C268.024 566.79 289.049 571.479 302.714 578.969C372.599 576.428 443.488 575.851 513.411 577.26L514.475 577.281C524.43 570.935 538.175 567.349 553.201 567.182L553.412 567.18L553.479 567.246C555.898 568.064 558.325 568.93 560.694 569.82L560.797 569.859C561.664 570.187 562.474 570.496 563.29 570.814L563.492 570.894C564.32 571.219 565.153 571.55 565.992 571.892C567.761 572.61 569.493 573.345 571.195 574.096L571.453 574.209C572.263 574.567 573.075 574.935 573.889 575.309L574.214 575.459C575.029 575.837 575.843 576.221 576.656 576.613L576.911 576.737C578.635 577.573 580.326 578.431 581.938 579.287L582.208 579.43C582.995 579.851 583.78 580.279 584.562 580.717L584.943 580.931C585.713 581.364 586.478 581.805 587.239 582.254L587.591 582.463C588.37 582.927 589.144 583.396 589.908 583.876L590.037 583.958C590.835 584.46 591.582 584.943 592.322 585.434L592.471 585.531C593.268 586.063 593.994 586.563 594.711 587.07L595.074 587.326C595.771 587.824 596.458 588.328 597.135 588.84L597.505 589.122C598.187 589.645 598.86 590.172 599.519 590.708L599.775 590.919C600.445 591.47 601.102 592.025 601.744 592.589L601.833 592.666C602.48 593.237 603.11 593.82 603.729 594.408L604.018 594.682C604.607 595.249 605.182 595.825 605.741 596.408L606.059 596.74C606.615 597.329 607.156 597.923 607.68 598.524L607.933 598.821C608.472 599.45 608.998 600.088 609.501 600.734L609.576 600.835C610.07 601.475 610.543 602.123 610.997 602.778L611.17 603.023C611.615 603.676 612.037 604.334 612.441 604.999L612.658 605.359C613.051 606.021 613.422 606.688 613.772 607.363L613.955 607.726C614.341 608.489 614.664 609.179 614.944 609.836L615.004 609.98C615.343 610.788 615.621 611.518 615.865 612.23L615.927 612.398C616.16 613.089 616.378 613.824 616.593 614.646L616.69 615.018C616.869 615.738 617.028 616.49 617.163 617.254L617.232 617.672C617.363 618.483 617.459 619.239 617.524 619.985L617.548 620.32C617.618 621.228 617.652 622.044 617.652 622.815C617.652 640.879 599.959 658.446 567.83 672.281C540.272 684.148 503.909 692.751 462.672 697.16C442.38 699.33 421.235 700.431 399.826 700.431V700.431Z" fill="#350E27"/></g><path id="Stroke 23 (Stroke)" fill-rule="evenodd" clip-rule="evenodd" d="M408.479 545.057C404.756 545.289 401.064 546.632 398.835 549.123L398.09 548.456C400.552 545.704 404.534 544.301 408.417 544.059C412.292 543.817 416.213 544.725 418.56 546.769L417.903 547.523C415.828 545.716 412.21 544.824 408.479 545.057Z" fill="#350E27"/><path id="41:18768" fill-rule="evenodd" clip-rule="evenodd" d="M408.606 580.752C408.606 580.752 400.396 558.356 372.23 540.297L372.152 539.638C370.697 527.773 365.444 511.728 349.392 498.45L349.397 498.429C350.817 489.045 347.987 479.939 343.98 472.298C338.292 461.451 340.249 448.057 349.31 439.816C358.615 431.354 363.639 420.098 362.416 407.606L362.412 407.57C372.022 406.197 379.988 402.962 386.455 399.11C399.9 391.104 408.015 376.513 408.239 360.892L408.261 360.665L408.283 360.869C408.499 376.498 416.615 391.1 430.066 399.11C436.534 402.962 444.5 406.198 454.11 407.571L454.096 407.703C452.909 420.156 457.93 431.376 467.211 439.816C476.273 448.057 478.229 461.451 472.542 472.298C468.548 479.912 465.725 488.979 467.11 498.325L467.129 498.45C450.777 511.976 445.631 528.376 444.292 540.3V540.742C443.981 540.944 443.674 541.147 443.369 541.35C416.501 559.215 408.606 580.752 408.606 580.752" fill="#FFDCDB"/><path id="Fill 27" fill-rule="evenodd" clip-rule="evenodd" d="M434.754 442.01C432.302 442.01 430.307 444.005 430.307 446.457C430.307 448.909 432.302 450.905 434.754 450.905C437.206 450.905 439.201 448.909 439.201 446.457C439.201 444.005 437.206 442.01 434.754 442.01" fill="#350E27"/><path id="Fill 29" fill-rule="evenodd" clip-rule="evenodd" d="M382.753 442.01C380.3 442.01 378.305 444.005 378.305 446.457C378.305 448.909 380.3 450.905 382.753 450.905C385.205 450.905 387.2 448.909 387.2 446.457C387.2 444.005 385.205 442.01 382.753 442.01" fill="#350E27"/><path id="Fill 31" fill-rule="evenodd" clip-rule="evenodd" d="M444.792 540.743H443.792V540.301C445.098 528.657 450.114 511.987 466.594 498.246C465.423 490.072 467.274 481.265 472.1 472.066C477.771 461.251 475.622 448.141 466.876 440.187C457.248 431.431 452.53 420.012 453.568 407.998C445.09 406.726 437.099 403.882 429.811 399.541C418.149 392.597 410.238 380.437 408.263 366.898C406.295 380.42 398.379 392.593 386.711 399.541C379.424 403.881 371.434 406.725 362.953 407.997C363.981 420.037 359.266 431.439 349.646 440.187C340.9 448.142 338.752 461.251 344.423 472.066C349.249 481.268 351.101 490.075 349.929 498.247C366.172 511.79 371.252 528.185 372.649 539.578L372.727 540.239L371.734 540.356L371.656 539.697C370.275 528.436 365.236 512.204 349.073 498.836L348.835 498.639L348.905 498.337C350.118 490.326 348.313 481.637 343.538 472.531C337.655 461.313 339.891 447.708 348.974 439.447C358.482 430.8 363.079 419.51 361.918 407.656L361.872 407.18L362.341 407.076C370.865 405.858 378.893 403.034 386.2 398.681C399.264 390.902 407.517 376.419 407.739 360.886L408.246 355.749L408.78 360.817C408.998 376.406 417.251 390.897 430.322 398.681C437.632 403.035 445.659 405.86 454.181 407.077L454.657 407.145L454.594 407.756C453.468 419.569 458.068 430.826 467.548 439.447C476.632 447.708 478.867 461.312 472.984 472.531C468.229 481.597 466.42 490.252 467.604 498.253L467.668 498.654L467.448 498.836C451.052 512.398 446.076 528.901 444.789 540.356L444.792 540.743Z" fill="#350E27"/><path id="41:18772" fill-rule="evenodd" clip-rule="evenodd" d="M436.132 465.858C436.132 466.823 435.35 467.606 434.385 467.606C433.419 467.606 432.637 466.823 432.637 465.858C432.637 464.893 433.419 464.11 434.385 464.11C435.35 464.11 436.132 464.893 436.132 465.858" fill="#E9553B"/><path id="41:18773" fill-rule="evenodd" clip-rule="evenodd" d="M447.132 462.858C447.132 463.823 446.35 464.606 445.385 464.606C444.419 464.606 443.637 463.823 443.637 462.858C443.637 461.893 444.419 461.11 445.385 461.11C446.35 461.11 447.132 461.893 447.132 462.858" fill="#E9553B"/><path id="41:18774" fill-rule="evenodd" clip-rule="evenodd" d="M443.132 469.858C443.132 470.823 442.35 471.606 441.385 471.606C440.419 471.606 439.637 470.823 439.637 469.858C439.637 468.893 440.419 468.11 441.385 468.11C442.35 468.11 443.132 468.893 443.132 469.858" fill="#E9553B"/><path id="41:18775" fill-rule="evenodd" clip-rule="evenodd" d="M381.676 465.858C381.676 466.823 382.458 467.606 383.424 467.606C384.389 467.606 385.171 466.823 385.171 465.858C385.171 464.893 384.389 464.11 383.424 464.11C382.458 464.11 381.676 464.893 381.676 465.858" fill="#E9553B"/><path id="41:18776" fill-rule="evenodd" clip-rule="evenodd" d="M370.676 462.858C370.676 463.823 371.458 464.606 372.424 464.606C373.389 464.606 374.171 463.823 374.171 462.858C374.171 461.893 373.389 461.11 372.424 461.11C371.458 461.11 370.676 461.893 370.676 462.858" fill="#E9553B"/><path id="41:18777" fill-rule="evenodd" clip-rule="evenodd" d="M374.676 469.858C374.676 470.823 375.458 471.606 376.424 471.606C377.389 471.606 378.171 470.823 378.171 469.858C378.171 468.893 377.389 468.11 376.424 468.11C375.458 468.11 374.676 468.893 374.676 469.858" fill="#E9553B"/><path id="Fill 45" fill-rule="evenodd" clip-rule="evenodd" d="M392.948 492.905C393.182 492.905 393.418 492.877 393.653 492.821L412.787 488.207L412.552 487.236L393.418 491.849C392.674 492.027 391.938 491.784 391.448 491.199C390.957 490.613 390.846 489.845 391.153 489.145L410.474 445.006L409.558 444.605L390.237 488.744C389.781 489.784 389.952 490.971 390.681 491.842C391.256 492.527 392.083 492.905 392.948 492.905" fill="#350E27"/><path id="Fill 47" fill-rule="evenodd" clip-rule="evenodd" d="M446.81 510.996C444.529 512.913 441.626 513.828 438.667 513.567C436.368 513.367 434.24 512.475 432.504 511.027C432.516 510.997 432.53 510.97 432.541 510.941L432.306 510.85C431.876 510.474 431.465 510.073 431.091 509.627C429.174 507.345 428.261 504.454 428.52 501.485C428.778 498.516 430.177 495.825 432.459 493.909L431.817 493.143C429.33 495.231 427.805 498.163 427.524 501.398C427.242 504.633 428.237 507.784 430.326 510.27C430.631 510.635 430.961 510.972 431.302 511.295C427.05 521.483 416.927 528.285 405.842 528.285C391.756 528.285 379.968 517.743 378.422 503.763L377.428 503.873C379.03 518.36 391.246 529.285 405.842 529.285C417.216 529.285 427.611 522.372 432.092 511.987C433.94 513.455 436.175 514.354 438.581 514.563C438.94 514.595 439.298 514.61 439.655 514.61C442.507 514.61 445.243 513.618 447.453 511.762L446.81 510.996Z" fill="#350E27"/><path id="41:18780" fill-rule="evenodd" clip-rule="evenodd" d="M329.911 442.51C323.279 452.289 326.879 464.605 326.879 464.605L322.196 465.468C313.687 467.035 306.024 460.067 306.778 451.448V451.448C307.542 442.708 316.516 437.177 324.667 440.422L329.911 442.51Z" fill="#FFDCDB"/><path id="Fill 51" fill-rule="evenodd" clip-rule="evenodd" d="M325.431 457.312L316.059 449.861L315.437 450.645L325.479 458.628C325.628 461.262 326.045 463.293 326.263 464.211L322.105 464.977C318.202 465.695 314.284 464.578 311.349 461.908C308.415 459.24 306.93 455.443 307.276 451.492C307.626 447.486 309.791 443.978 313.215 441.867C315.244 440.616 317.513 439.981 319.803 439.981C321.377 439.981 322.96 440.281 324.482 440.887L329.157 442.749C326.058 447.616 325.354 453.058 325.431 457.312V457.312ZM330.674 442.276L324.852 439.958C320.82 438.353 316.386 438.739 312.69 441.016C308.994 443.294 306.658 447.081 306.28 451.406C305.907 455.67 307.509 459.768 310.676 462.648C313.215 464.957 316.436 466.19 319.783 466.19C320.613 466.19 321.45 466.114 322.286 465.96L327.514 464.997L327.359 464.466C327.324 464.345 323.907 452.255 330.325 442.791L330.674 442.276Z" fill="#350E27"/><path id="Fill 53" fill-rule="evenodd" clip-rule="evenodd" d="M408.605 580.752C408.605 580.752 416.5 559.215 443.368 541.35C443.673 541.147 443.98 540.944 444.291 540.742C460.361 530.277 483.049 521.184 514.616 518.605V673.595C514.616 673.595 449.784 658.752 408.731 686.1H408.479C367.426 658.752 302.594 673.595 302.594 673.595V518.605C333.711 521.148 356.201 530.02 372.229 540.297C400.395 558.356 408.605 580.752 408.605 580.752V686.058" fill="#3F88EB"/><path id="Fill 55" fill-rule="evenodd" clip-rule="evenodd" d="M444.292 540.742C443.981 540.944 443.675 541.146 443.369 541.349C416.501 559.215 408.606 580.752 408.606 580.752C408.606 580.752 400.397 558.356 372.23 540.297C356.203 530.019 333.713 521.147 302.596 518.604V529.784C302.596 529.784 377.027 533.005 408.479 592.5H408.732C440.186 533.005 514.617 529.784 514.617 529.784V518.604C483.051 521.184 460.362 530.277 444.292 540.742" fill="white"/><path id="Fill 57" fill-rule="evenodd" clip-rule="evenodd" d="M407.979 686.1H408.979V580.752H407.979V686.1Z" fill="#350E27"/><path id="41:18787" fill-rule="evenodd" clip-rule="evenodd" d="M440.629 642.566L439.208 640.661C437.162 637.918 433.23 637.461 430.608 639.661C428.673 641.287 427.969 643.96 428.866 646.322C432.728 656.48 444.244 683.435 462.074 696.532L462.62 696.664C504.272 692.211 540.651 683.442 567.634 671.823L567.291 671.636L546.246 660.236C548.802 636.055 529.615 610.131 514.617 608.226V624.679C513.899 624.708 513.174 624.766 512.451 624.857L512.331 624.772C509.459 622.729 489.805 608.646 469.498 591.49C467.131 589.489 463.766 589.176 461.075 590.713C457.531 592.739 456.295 597.255 458.336 600.79C459.118 602.143 460.053 603.682 461.155 605.383L460.961 605.222L448.629 595.009C445.28 592.237 440.476 592.094 436.97 594.665C432.649 597.831 431.8 603.937 435.099 608.157C436.574 610.044 438.343 612.235 440.417 614.696L440.521 614.818C437.57 612.283 433.137 612.185 430.065 614.768C426.962 617.377 426.28 621.876 428.455 625.296C434.908 635.446 449.583 656.45 470.375 673.911" fill="#FFDCDB"/><path id="41:18788" fill-rule="evenodd" clip-rule="evenodd" d="M376.191 643.566L377.612 641.661C379.658 638.918 383.59 638.461 386.212 640.661C388.148 642.287 388.852 644.96 387.954 647.322C384.093 657.48 372.656 684.586 354.826 697.682L353.996 698.213C348.5 697.795 343.08 697.303 337.746 696.74C303.924 693.169 273.551 686.754 248.83 678.279C246.924 677.626 245.051 676.96 243.213 676.282L270.574 661.236C268.019 637.055 287.596 611.069 302.594 609.164V625.712C303.313 625.74 303.647 625.766 304.369 625.857L304.489 625.772C307.361 623.729 327.015 609.646 347.322 592.49C349.69 590.489 353.055 590.176 355.745 591.713C359.289 593.739 360.525 598.255 358.484 601.79C357.702 603.143 356.768 604.682 355.665 606.383L355.859 606.222L368.191 596.009C371.54 593.237 376.344 593.094 379.851 595.665C384.171 598.831 385.02 604.937 381.721 609.157C380.246 611.044 378.478 613.235 376.403 615.696L376.3 615.818C379.25 613.283 383.684 613.185 386.755 615.768C389.858 618.377 390.54 622.876 388.365 626.296C381.912 636.446 367.237 657.45 346.445 674.911" fill="#FFDCDB"/><path id="Fill 61" fill-rule="evenodd" clip-rule="evenodd" d="M462.652 696.157L462.288 696.07C444.757 683.138 433.404 656.856 429.333 646.144C428.512 643.986 429.154 641.535 430.928 640.044C432.091 639.068 433.567 638.636 435.065 638.803C436.337 638.952 437.481 639.52 438.351 640.425C446.151 650.773 456.865 663.219 470.052 674.294L470.695 673.528C458.599 663.37 448.593 652.05 441.021 642.272L441.028 642.267L439.607 640.362C439.453 640.154 439.288 639.958 439.113 639.773C434.761 633.997 431.324 628.879 428.876 625.028C426.842 621.83 427.491 617.584 430.384 615.151C433.232 612.755 437.341 612.768 440.168 615.178C448.189 624.675 461.959 639.539 482.051 656.482L482.696 655.719C462.631 638.798 448.892 623.962 440.9 614.496L440.893 614.502L440.9 614.495L440.798 614.374C438.923 612.148 437.136 609.953 435.491 607.849C433.981 605.917 433.335 603.516 433.671 601.088C434.006 598.658 435.283 596.519 437.264 595.068C440.588 592.63 445.131 592.762 448.308 595.394L460.779 605.723C466.582 614.658 477.272 628.416 495.318 643.348L495.955 642.579C477.964 627.689 467.328 613.986 461.574 605.111C460.57 603.563 459.626 602.025 458.767 600.54C457.851 598.953 457.61 597.102 458.089 595.331C458.57 593.55 459.718 592.064 461.322 591.148C463.82 589.722 466.974 590.013 469.174 591.872C489.247 608.831 508.404 622.594 512.041 625.18L512.32 625.378L512.512 625.353C513.209 625.265 513.923 625.207 514.635 625.179C517.707 625.058 520.628 625.524 522.648 626.46L523.068 625.552C520.995 624.594 518.186 624.118 515.116 624.172V608.804C530.126 611.294 548.174 637.22 545.748 660.183L545.713 660.516L566.486 671.769C539.153 683.38 503.285 691.807 462.652 696.157V696.157ZM546.776 659.955C549.071 636.304 530.13 609.693 514.679 607.73L514.116 607.659V624.203C513.601 624.233 513.087 624.278 512.582 624.338C510.173 622.624 490.174 608.304 469.82 591.108C467.299 588.979 463.685 588.647 460.826 590.279C458.989 591.329 457.674 593.03 457.124 595.07C456.575 597.1 456.851 599.22 457.902 601.04C458.276 601.687 458.667 602.344 459.07 603.009L448.947 594.625C445.416 591.702 440.37 591.552 436.673 594.261C434.471 595.875 433.053 598.25 432.679 600.951C432.306 603.649 433.025 606.318 434.704 608.465C435.835 609.911 437.031 611.399 438.277 612.911C435.446 611.842 432.183 612.332 429.742 614.386C426.465 617.139 425.731 621.945 428.032 625.565C430.173 628.932 433.068 633.266 436.668 638.162C436.194 637.989 435.696 637.871 435.181 637.81C433.392 637.606 431.66 638.125 430.286 639.278C428.185 641.042 427.426 643.944 428.397 646.5C432.507 657.31 443.986 683.867 461.777 696.935L462.586 697.171L462.672 697.161C503.909 692.752 540.272 684.149 567.831 672.282L568.775 671.876L546.776 659.955Z" fill="#350E27"/><path id="Fill 62" fill-rule="evenodd" clip-rule="evenodd" d="M378.467 641.424C379.338 640.52 380.483 639.951 381.754 639.803C383.263 639.634 384.729 640.069 385.89 641.043C387.665 642.534 388.307 644.986 387.487 647.144C383.376 657.959 371.936 684.493 354.556 697.261L353.867 697.701C348.48 697.29 343.074 696.8 337.799 696.242C304.682 692.745 273.973 686.37 248.992 677.806C247.458 677.279 245.924 676.737 244.418 676.19L271.106 661.514L271.071 661.183C268.644 638.211 286.92 612.245 302.094 609.741V624.171C299.025 624.116 296.215 624.593 294.142 625.551L294.562 626.459C296.476 625.572 299.199 625.112 302.094 625.171V626.192L302.575 626.211C303.288 626.238 303.613 626.266 304.307 626.353L304.5 626.377L304.779 626.179C308.415 623.593 327.571 609.83 347.645 592.871C349.845 591.011 353 590.721 355.497 592.148C357.101 593.064 358.249 594.55 358.731 596.331C359.209 598.103 358.968 599.952 358.051 601.539C357.195 603.022 356.252 604.56 355.246 606.111V606.111C349.491 614.986 338.855 628.69 320.863 643.578L321.501 644.348C339.539 629.422 350.228 615.67 356.032 606.735L368.51 596.394C371.687 593.763 376.228 593.63 379.555 596.068C381.536 597.519 382.813 599.657 383.149 602.087C383.485 604.516 382.838 606.916 381.327 608.849C379.685 610.949 377.9 613.145 376.022 615.372L375.919 615.494L375.925 615.501L375.919 615.495C367.926 624.962 354.187 639.799 334.123 656.718L334.768 657.482C354.86 640.539 368.63 625.675 376.651 616.177C379.477 613.77 383.586 613.755 386.434 616.151C389.328 618.583 389.977 622.829 387.943 626.028C387.675 626.448 387.391 626.891 387.1 627.341C387.012 627.477 386.923 627.614 386.833 627.753C386.593 628.121 386.346 628.499 386.092 628.885C386.017 628.998 385.946 629.109 385.869 629.224C385.555 629.698 385.227 630.189 384.891 630.689C384.79 630.84 384.685 630.994 384.581 631.148C384.309 631.549 384.03 631.958 383.745 632.375C383.643 632.524 383.543 632.67 383.439 632.82C383.068 633.359 382.686 633.908 382.292 634.468C382.2 634.6 382.104 634.735 382.01 634.867C381.684 635.33 381.349 635.8 381.008 636.277C380.888 636.443 380.77 636.609 380.649 636.778C380.215 637.379 379.773 637.987 379.317 638.608C379.279 638.659 379.239 638.712 379.201 638.764C378.776 639.341 378.34 639.927 377.895 640.518C377.825 640.612 377.754 640.705 377.684 640.799C377.518 640.976 377.359 641.163 377.211 641.362L375.79 643.267L375.797 643.272C375.707 643.386 375.615 643.503 375.526 643.618C375.193 644.046 374.857 644.477 374.515 644.909C374.349 645.12 374.18 645.332 374.012 645.544C373.717 645.915 373.419 646.288 373.117 646.663C372.93 646.897 372.741 647.13 372.552 647.363C372.258 647.726 371.96 648.091 371.659 648.456C371.463 648.695 371.267 648.935 371.068 649.175C370.749 649.56 370.425 649.947 370.099 650.335C369.917 650.552 369.737 650.769 369.552 650.987C369.058 651.571 368.557 652.158 368.047 652.748C367.929 652.884 367.808 653.022 367.69 653.157C367.274 653.637 366.854 654.117 366.428 654.599C366.217 654.837 366.003 655.077 365.79 655.316C365.455 655.692 365.118 656.068 364.778 656.445C364.541 656.706 364.3 656.969 364.061 657.232C363.733 657.591 363.402 657.95 363.069 658.31C362.821 658.576 362.574 658.843 362.324 659.111C361.98 659.478 361.632 659.845 361.282 660.213C361.042 660.466 360.802 660.72 360.559 660.973C360.152 661.397 359.738 661.82 359.324 662.244C359.133 662.442 358.944 662.638 358.75 662.834C358.154 663.44 357.55 664.044 356.94 664.648C356.742 664.844 356.539 665.039 356.34 665.235C355.908 665.657 355.476 666.079 355.038 666.501C354.788 666.74 354.535 666.98 354.284 667.22C353.885 667.599 353.484 667.978 353.08 668.356C352.815 668.603 352.548 668.851 352.28 669.098C351.876 669.471 351.468 669.844 351.058 670.215C350.792 670.456 350.527 670.696 350.259 670.937C349.812 671.336 349.361 671.735 348.908 672.132C348.675 672.336 348.445 672.541 348.21 672.744C347.521 673.342 346.827 673.937 346.124 674.528L346.767 675.293C347.519 674.662 348.26 674.025 348.996 673.386C349.217 673.194 349.435 673 349.655 672.807C350.178 672.347 350.698 671.886 351.214 671.422C351.448 671.211 351.682 671 351.914 670.789C352.462 670.292 353.004 669.792 353.541 669.292C353.706 669.138 353.874 668.985 354.038 668.83C354.736 668.176 355.425 667.519 356.107 666.861C356.24 666.732 356.37 666.603 356.503 666.474C357.051 665.94 357.595 665.405 358.133 664.87C358.34 664.663 358.545 664.457 358.751 664.25C359.23 663.769 359.704 663.288 360.174 662.806C360.363 662.612 360.552 662.419 360.74 662.225C361.344 661.601 361.942 660.976 362.531 660.351C362.565 660.316 362.599 660.28 362.632 660.245C363.264 659.574 363.886 658.903 364.501 658.234C364.656 658.064 364.809 657.895 364.964 657.725C365.422 657.222 365.876 656.721 366.323 656.22C366.5 656.022 366.676 655.824 366.851 655.627C367.305 655.115 367.754 654.606 368.197 654.097C368.328 653.946 368.462 653.795 368.592 653.645C369.165 652.984 369.73 652.325 370.284 651.67C370.345 651.598 370.405 651.526 370.466 651.453C370.951 650.878 371.429 650.307 371.9 649.737C372.055 649.55 372.208 649.364 372.361 649.177C372.747 648.708 373.128 648.241 373.504 647.777C373.654 647.591 373.803 647.406 373.952 647.222C374.391 646.675 374.824 646.132 375.249 645.594C375.312 645.514 375.377 645.433 375.44 645.353C375.929 644.732 376.407 644.117 376.878 643.507C376.999 643.35 377.117 643.195 377.237 643.038C377.581 642.59 377.92 642.146 378.253 641.704C378.323 641.611 378.397 641.517 378.467 641.424M381.709 637.015C381.987 636.628 382.26 636.244 382.529 635.865C382.658 635.684 382.786 635.503 382.913 635.323C383.173 634.953 383.428 634.589 383.679 634.228C383.785 634.076 383.893 633.922 383.997 633.773C384.697 632.761 385.36 631.787 385.983 630.857C386.075 630.72 386.162 630.588 386.252 630.453C386.472 630.123 386.687 629.799 386.897 629.481C386.995 629.332 387.092 629.186 387.188 629.039C387.391 628.728 387.59 628.424 387.783 628.125C387.863 628.003 387.943 627.88 388.02 627.76C388.285 627.351 388.542 626.949 388.787 626.565C391.089 622.945 390.353 618.139 387.077 615.385C384.634 613.33 381.371 612.842 378.543 613.91C379.79 612.398 380.986 610.908 382.115 609.464C383.794 607.318 384.512 604.649 384.139 601.95C383.766 599.249 382.347 596.874 380.146 595.261C376.449 592.551 371.403 592.699 367.873 595.624L357.749 604.008C358.154 603.343 358.544 602.686 358.917 602.039C359.968 600.22 360.244 598.101 359.696 596.07C359.145 594.03 357.83 592.328 355.993 591.278C353.133 589.645 349.519 589.977 347 592.108C326.646 609.303 306.648 623.621 304.238 625.336C303.796 625.283 303.493 625.255 303.094 625.234V608.596L302.531 608.667C286.917 610.651 267.747 637.298 270.043 660.957L242.012 676.371L243.041 676.75C244.882 677.43 246.775 678.103 248.668 678.751C273.719 687.34 304.503 693.732 337.694 697.237C343.033 697.801 348.506 698.297 353.958 698.712L354.125 698.725L355.122 698.085C372.743 685.142 384.279 658.397 388.421 647.499C389.392 644.944 388.634 642.041 386.533 640.278C385.159 639.124 383.422 638.607 381.638 638.81C381.123 638.87 380.625 638.988 380.151 639.161C380.568 638.595 380.971 638.039 381.369 637.488C381.484 637.329 381.595 637.173 381.709 637.015" fill="#350E27"/></g></g></svg>